<svg version="1.1" xmlns="http://www.w3.org/2000/svg" xmlns:xlink="http://www.w3.org/1999/xlink" width="484" height="324"><defs/><g><g><path fill="none" stroke="#000000" paint-order="fill stroke markers" d=" M 186 10 L 474 10 L 474 314 L 186 314 L 186 10" stroke-miterlimit="10" stroke-dasharray=""/></g><g><path fill="#ffffff" stroke="none" paint-order="stroke fill markers" d=" M 186 10 L 186 33 L 324.12255859375 33 L 335.62255859375 21.5 L 335.62255859375 10 L 186 10"/></g><g><path fill="none" stroke="#000000" paint-order="fill stroke markers" d=" M 186 10 L 186 33 L 324.12255859375 33 L 335.62255859375 21.5 L 335.62255859375 10 L 186 10 L 186 10" stroke-miterlimit="10" stroke-dasharray=""/></g><g><g><path fill="none" stroke="none"/><text fill="#000000" stroke="none" font-family="Arial" font-size="13px" font-style="normal" font-weight="normal" text-decoration="undefined" x="254.92626953125" y="227.5" text-anchor="middle" dominant-baseline="central" transform="matrix(1 0 0 1 10 -206)">C4 Model::jsonette</text></g></g><g><g><path fill="none" stroke="none"/><text fill="#000000" stroke="none" font-family="Arial" font-size="13px" font-style="normal" font-weight="bold" text-decoration="undefined" x="187.864990234375" y="227.5" text-anchor="middle" dominant-baseline="central" transform="matrix(1 0 0 1 10 -206)">uc</text></g></g><g><path fill="#ffffff" stroke="none" paint-order="stroke fill markers" d=" M 42.99544921875 139.85000000000002 C 42.99544921875 134.96227952000004 46.95325158675 131 51.83544921875 131 C 56.71764685075 131 60.67544921875 134.96227952000004 60.67544921875 139.85000000000002 C 60.67544921875 144.73772048 56.71764685075 148.7 51.83544921875 148.7 C 46.95325158675 148.7 42.99544921875 144.73772048 42.99544921875 139.85000000000002 Z"/></g><g><path fill="none" stroke="#000000" paint-order="fill stroke markers" d=" M 42.99544921875 139.85000000000002 C 42.99544921875 134.96227952000004 46.95325158675 131 51.83544921875 131 C 56.71764685075 131 60.67544921875 134.96227952000004 60.67544921875 139.85000000000002 C 60.67544921875 144.73772048 56.71764685075 148.7 51.83544921875 148.7 C 46.95325158675 148.7 42.99544921875 144.73772048 42.99544921875 139.85000000000002 Z" stroke-miterlimit="10" stroke-dasharray=""/></g><g><path fill="none" stroke="#000000" paint-order="fill stroke markers" d=" M 51.83544921875 148.7 L 51.83544921875 166.3" stroke-miterlimit="10" stroke-dasharray=""/></g><g><path fill="none" stroke="#000000" paint-order="fill stroke markers" d=" M 42.47544921875 155.3 L 61.19544921875 155.3" stroke-miterlimit="10" stroke-dasharray=""/></g><g><path fill="none" stroke="#000000" paint-order="fill stroke markers" d=" M 51.83544921875 166.3 L 38.83544921875 184" stroke-miterlimit="10" stroke-dasharray=""/></g><g><path fill="none" stroke="#000000" paint-order="fill stroke markers" d=" M 51.83544921875 166.3 L 64.83544921875 184" stroke-miterlimit="10" stroke-dasharray=""/></g><g><g><path fill="none" stroke="none"/><text fill="#000000" stroke="none" font-family="Arial" font-size="13px" font-style="normal" font-weight="bold" text-decoration="undefined" x="42.33544921875" y="404.5" text-anchor="middle" dominant-baseline="central" transform="matrix(1 0 0 1 10 -206)">Developer</text></g></g><g><g><path fill="none" stroke="none"/><text fill="#000000" stroke="none" font-family="Arial" font-size="13px" font-style="normal" font-weight="normal" text-decoration="undefined" x="42.33544921875" y="419.5" text-anchor="middle" dominant-baseline="central" transform="matrix(1 0 0 1 10 -206)">(from actors)</text></g></g><g><path fill="#C0C0C0" stroke="none" paint-order="stroke fill markers" d=" M 209 93 C 209 77.53602560000002 265.85983039999996 65 336 65 C 406.14016960000004 65 463 77.53602560000002 463 93 C 463 108.46397439999998 406.14016960000004 121 336 121 C 265.85983039999996 121 209 108.46397439999998 209 93 Z" fill-opacity="0.2"/></g><g><path fill="#ffffff" stroke="none" paint-order="stroke fill markers" d=" M 202 86 C 202 70.53602560000002 258.85983039999996 58 329 58 C 399.14016960000004 58 456 70.53602560000002 456 86 C 456 101.46397439999998 399.14016960000004 114 329 114 C 258.85983039999996 114 202 101.46397439999998 202 86 Z"/></g><g><path fill="none" stroke="#000000" paint-order="fill stroke markers" d=" M 202 86 C 202 70.53602560000002 258.85983039999996 58 329 58 C 399.14016960000004 58 456 70.53602560000002 456 86 C 456 101.46397439999998 399.14016960000004 114 329 114 C 258.85983039999996 114 202 101.46397439999998 202 86 Z" stroke-miterlimit="10" stroke-dasharray=""/></g><g><g><path fill="none" stroke="none"/><text fill="#000000" stroke="none" font-family="Arial" font-size="13px" font-style="normal" font-weight="bold" text-decoration="undefined" x="319" y="285.5" text-anchor="middle" dominant-baseline="central" transform="matrix(1 0 0 1 10 -206)">Type JSONPath Expression</text></g></g><g><g><path fill="none" stroke="none"/><text fill="#000000" stroke="none" font-family="Arial" font-size="13px" font-style="normal" font-weight="normal" text-decoration="undefined" x="319" y="300.5" text-anchor="middle" dominant-baseline="central" transform="matrix(1 0 0 1 10 -206)">(from System Features)</text></g></g><g><path fill="#C0C0C0" stroke="none" paint-order="stroke fill markers" d=" M 232 181 C 232 165.53602560000002 278.3385232 153 335.5 153 C 392.6614768 153 439 165.53602560000002 439 181 C 439 196.46397439999998 392.6614768 209 335.5 209 C 278.3385232 209 232 196.46397439999998 232 181 Z" fill-opacity="0.2"/></g><g><path fill="#ffffff" stroke="none" paint-order="stroke fill markers" d=" M 225 174 C 225 158.53602560000002 271.3385232 146 328.5 146 C 385.6614768 146 432 158.53602560000002 432 174 C 432 189.46397439999998 385.6614768 202 328.5 202 C 271.3385232 202 225 189.46397439999998 225 174 Z"/></g><g><path fill="none" stroke="#000000" paint-order="fill stroke markers" d=" M 225 174 C 225 158.53602560000002 271.3385232 146 328.5 146 C 385.6614768 146 432 158.53602560000002 432 174 C 432 189.46397439999998 385.6614768 202 328.5 202 C 271.3385232 202 225 189.46397439999998 225 174 Z" stroke-miterlimit="10" stroke-dasharray=""/></g><g><g><path fill="none" stroke="none"/><text fill="#000000" stroke="none" font-family="Arial" font-size="13px" font-style="normal" font-weight="bold" text-decoration="undefined" x="318.5" y="373.5" text-anchor="middle" dominant-baseline="central" transform="matrix(1 0 0 1 10 -206)">Get Live Results</text></g></g><g><g><path fill="none" stroke="none"/><text fill="#000000" stroke="none" font-family="Arial" font-size="13px" font-style="normal" font-weight="normal" text-decoration="undefined" x="318.5" y="388.5" text-anchor="middle" dominant-baseline="central" transform="matrix(1 0 0 1 10 -206)">(from System Features)</text></g></g><g><path fill="#C0C0C0" stroke="none" paint-order="stroke fill markers" d=" M 232 269 C 232 253.53602560000002 278.3385232 241 335.5 241 C 392.6614768 241 439 253.53602560000002 439 269 C 439 284.4639744 392.6614768 297 335.5 297 C 278.3385232 297 232 284.4639744 232 269 Z" fill-opacity="0.2"/></g><g><path fill="#ffffff" stroke="none" paint-order="stroke fill markers" d=" M 225 262 C 225 246.53602560000002 271.3385232 234 328.5 234 C 385.6614768 234 432 246.53602560000002 432 262 C 432 277.4639744 385.6614768 290 328.5 290 C 271.3385232 290 225 277.4639744 225 262 Z"/></g><g><path fill="none" stroke="#000000" paint-order="fill stroke markers" d=" M 225 262 C 225 246.53602560000002 271.3385232 234 328.5 234 C 385.6614768 234 432 246.53602560000002 432 262 C 432 277.4639744 385.6614768 290 328.5 290 C 271.3385232 290 225 277.4639744 225 262 Z" stroke-miterlimit="10" stroke-dasharray=""/></g><g><g><path fill="none" stroke="none"/><text fill="#000000" stroke="none" font-family="Arial" font-size="13px" font-style="normal" font-weight="bold" text-decoration="undefined" x="318.5" y="461.5" text-anchor="middle" dominant-baseline="central" transform="matrix(1 0 0 1 10 -206)">Get Autocomplete</text></g></g><g><g><path fill="none" stroke="none"/><text fill="#000000" stroke="none" font-family="Arial" font-size="13px" font-style="normal" font-weight="normal" text-decoration="undefined" x="318.5" y="476.5" text-anchor="middle" dominant-baseline="central" transform="matrix(1 0 0 1 10 -206)">(from System Features)</text></g></g><g><path fill="none" stroke="#000000" paint-order="fill stroke markers" d=" M 95 163 L 240 115" stroke-miterlimit="10" stroke-dasharray=""/></g><g><path fill="none" stroke="#000000" paint-order="fill stroke markers" d=" M 95 177 L 224 175" stroke-miterlimit="10" stroke-dasharray=""/></g><g><path fill="none" stroke="#000000" paint-order="fill stroke markers" d=" M 95 190 L 233 233" stroke-miterlimit="10" stroke-dasharray=""/></g></g></svg>