<svg version="1.1" xmlns="http://www.w3.org/2000/svg" xmlns:xlink="http://www.w3.org/1999/xlink" width="1076.1279296875" height="631"><defs/><g><g><rect fill="#C0C0C0" stroke="none" x="54.26123046875" y="47" width="330.08056640625" height="296" transform="matrix(1 0 0 1 248.73876953125 74)" fill-opacity="0.2"/></g><g><rect fill="#ffffff" stroke="none" x="47.26123046875" y="40" width="330.08056640625" height="296" transform="matrix(1 0 0 1 248.73876953125 74)"/></g><g><path fill="none" stroke="#000000" paint-order="fill stroke markers" d=" M 296 114 L 626.08056640625 114 L 626.08056640625 410 L 296 410 L 296 114 Z Z" stroke-miterlimit="10" stroke-dasharray=""/></g><g><path fill="none" stroke="#000000" paint-order="fill stroke markers" d=" M 296 154 L 626.08056640625 154" stroke-miterlimit="10" stroke-dasharray=""/></g><g><path fill="none" stroke="#000000" paint-order="fill stroke markers" d=" M 296 207 L 626.08056640625 207" stroke-miterlimit="10" stroke-dasharray=""/></g><g><g><path fill="none" stroke="none"/><text fill="#000000" stroke="none" font-family="Arial" font-size="13px" font-style="normal" font-weight="bold" text-decoration="undefined" x="212.801513671875" y="53.5" text-anchor="middle" dominant-baseline="central" transform="matrix(1 0 0 1 248.73876953125 74)">Parser</text></g></g><g><g><path fill="none" stroke="none"/><text fill="#000000" stroke="none" font-family="Arial" font-size="13px" font-style="normal" font-weight="normal" text-decoration="undefined" x="212.801513671875" y="68.5" text-anchor="middle" dominant-baseline="central" transform="matrix(1 0 0 1 248.73876953125 74)">(from Parser)</text></g></g><g><g><path fill="none" stroke="none"/><text fill="#000000" stroke="none" font-family="Arial" font-size="13px" font-style="normal" font-weight="normal" text-decoration="undefined" x="52.26123046875" y="91.5" text-anchor="start" dominant-baseline="central" transform="matrix(1 0 0 1 248.73876953125 74)">-input: u8[*]</text></g></g><g><g><path fill="none" stroke="none"/><text fill="#000000" stroke="none" font-family="Arial" font-size="13px" font-style="normal" font-weight="normal" text-decoration="undefined" x="52.26123046875" y="106.5" text-anchor="start" dominant-baseline="central" transform="matrix(1 0 0 1 248.73876953125 74)">-input_raw: String</text></g></g><g><g><path fill="none" stroke="none"/><text fill="#000000" stroke="none" font-family="Arial" font-size="13px" font-style="normal" font-weight="normal" text-decoration="undefined" x="52.26123046875" y="121.5" text-anchor="start" dominant-baseline="central" transform="matrix(1 0 0 1 248.73876953125 74)">-cursor: usize</text></g></g><g><g><path fill="none" stroke="none"/><text fill="#000000" stroke="none" font-family="Arial" font-size="13px" font-style="normal" font-weight="normal" text-decoration="undefined" x="52.26123046875" y="144.5" text-anchor="start" dominant-baseline="central" transform="matrix(1 0 0 1 248.73876953125 74)">+Parser(input: String): Parser</text></g></g><g><g><path fill="none" stroke="none"/><text fill="#000000" stroke="none" font-family="Arial" font-size="13px" font-style="normal" font-weight="normal" text-decoration="undefined" x="52.26123046875" y="159.5" text-anchor="start" dominant-baseline="central" transform="matrix(1 0 0 1 248.73876953125 74)">+parse_value(): Result&lt;JsonNode, Diagnostic&gt;</text></g></g><g><g><path fill="none" stroke="none"/><text fill="#000000" stroke="none" font-family="Arial" font-size="13px" font-style="normal" font-weight="normal" text-decoration="undefined" x="52.26123046875" y="174.5" text-anchor="start" dominant-baseline="central" transform="matrix(1 0 0 1 248.73876953125 74)">-peek(): Option&lt;u8&gt;</text></g></g><g><g><path fill="none" stroke="none"/><text fill="#000000" stroke="none" font-family="Arial" font-size="13px" font-style="normal" font-weight="normal" text-decoration="undefined" x="52.26123046875" y="189.5" text-anchor="start" dominant-baseline="central" transform="matrix(1 0 0 1 248.73876953125 74)">-advance()</text></g></g><g><g><path fill="none" stroke="none"/><text fill="#000000" stroke="none" font-family="Arial" font-size="13px" font-style="normal" font-weight="normal" text-decoration="undefined" x="52.26123046875" y="204.5" text-anchor="start" dominant-baseline="central" transform="matrix(1 0 0 1 248.73876953125 74)">-skip_whitespace()</text></g></g><g><g><path fill="none" stroke="none"/><text fill="#000000" stroke="none" font-family="Arial" font-size="13px" font-style="normal" font-weight="normal" text-decoration="undefined" x="52.26123046875" y="219.5" text-anchor="start" dominant-baseline="central" transform="matrix(1 0 0 1 248.73876953125 74)">-error(pos: usize, msg: String): Diagnostic</text></g></g><g><g><path fill="none" stroke="none"/><text fill="#000000" stroke="none" font-family="Arial" font-size="13px" font-style="normal" font-weight="normal" text-decoration="undefined" x="52.26123046875" y="234.5" text-anchor="start" dominant-baseline="central" transform="matrix(1 0 0 1 248.73876953125 74)">-parse_null(): Result&lt;JsonNode, Diagnostic&gt;</text></g></g><g><g><path fill="none" stroke="none"/><text fill="#000000" stroke="none" font-family="Arial" font-size="13px" font-style="normal" font-weight="normal" text-decoration="undefined" x="52.26123046875" y="249.5" text-anchor="start" dominant-baseline="central" transform="matrix(1 0 0 1 248.73876953125 74)">-parse_bool(): Result&lt;JsonNode, Diagnostic&gt;</text></g></g><g><g><path fill="none" stroke="none"/><text fill="#000000" stroke="none" font-family="Arial" font-size="13px" font-style="normal" font-weight="normal" text-decoration="undefined" x="52.26123046875" y="264.5" text-anchor="start" dominant-baseline="central" transform="matrix(1 0 0 1 248.73876953125 74)">-parse_string_raw(): Result&lt;(String, Span), Diagnostic&gt;</text></g></g><g><g><path fill="none" stroke="none"/><text fill="#000000" stroke="none" font-family="Arial" font-size="13px" font-style="normal" font-weight="normal" text-decoration="undefined" x="52.26123046875" y="279.5" text-anchor="start" dominant-baseline="central" transform="matrix(1 0 0 1 248.73876953125 74)">-parse_string_node(): Result&lt;JsonNode, Diagnostic&gt;</text></g></g><g><g><path fill="none" stroke="none"/><text fill="#000000" stroke="none" font-family="Arial" font-size="13px" font-style="normal" font-weight="normal" text-decoration="undefined" x="52.26123046875" y="294.5" text-anchor="start" dominant-baseline="central" transform="matrix(1 0 0 1 248.73876953125 74)">-parse_number(): Result&lt;JsonNode, Diagnostic&gt;</text></g></g><g><g><path fill="none" stroke="none"/><text fill="#000000" stroke="none" font-family="Arial" font-size="13px" font-style="normal" font-weight="normal" text-decoration="undefined" x="52.26123046875" y="309.5" text-anchor="start" dominant-baseline="central" transform="matrix(1 0 0 1 248.73876953125 74)">-parse_array(): Result&lt;JsonNode, Diagnostic&gt;</text></g></g><g><g><path fill="none" stroke="none"/><text fill="#000000" stroke="none" font-family="Arial" font-size="13px" font-style="normal" font-weight="normal" text-decoration="undefined" x="52.26123046875" y="324.5" text-anchor="start" dominant-baseline="central" transform="matrix(1 0 0 1 248.73876953125 74)">-parse_object(): Result&lt;JsonNode, Diagnostic&gt;</text></g></g><g><rect fill="#C0C0C0" stroke="none" x="55" y="423" width="215.943359375" height="131" transform="matrix(1 0 0 1 248.73876953125 74)" fill-opacity="0.2"/></g><g><rect fill="#ffffff" stroke="none" x="48" y="416" width="215.943359375" height="131" transform="matrix(1 0 0 1 248.73876953125 74)"/></g><g><path fill="none" stroke="#000000" paint-order="fill stroke markers" d=" M 296.73876953125 490 L 512.68212890625 490 L 512.68212890625 621 L 296.73876953125 621 L 296.73876953125 490 Z Z" stroke-miterlimit="10" stroke-dasharray=""/></g><g><path fill="none" stroke="#000000" paint-order="fill stroke markers" d=" M 296.73876953125 530 L 512.68212890625 530" stroke-miterlimit="10" stroke-dasharray=""/></g><g><path fill="none" stroke="#000000" paint-order="fill stroke markers" d=" M 296.73876953125 568 L 512.68212890625 568" stroke-miterlimit="10" stroke-dasharray=""/></g><g><g><path fill="none" stroke="none"/><text fill="#000000" stroke="none" font-family="Arial" font-size="13px" font-style="italic" font-weight="bold" text-decoration="undefined" x="156.4716796875" y="429.5" text-anchor="middle" dominant-baseline="central" transform="matrix(1 0 0 1 248.73876953125 74)">JsonNode</text></g></g><g><g><path fill="none" stroke="none"/><text fill="#000000" stroke="none" font-family="Arial" font-size="13px" font-style="normal" font-weight="normal" text-decoration="undefined" x="156.4716796875" y="444.5" text-anchor="middle" dominant-baseline="central" transform="matrix(1 0 0 1 248.73876953125 74)">(from JsonNode)</text></g></g><g><g><path fill="none" stroke="none"/><text fill="#000000" stroke="none" font-family="Arial" font-size="13px" font-style="normal" font-weight="normal" text-decoration="undefined" x="53" y="467.5" text-anchor="start" dominant-baseline="central" transform="matrix(1 0 0 1 248.73876953125 74)">-type: String</text></g></g><g><g><path fill="none" stroke="none"/><text fill="#000000" stroke="none" font-family="Arial" font-size="13px" font-style="normal" font-weight="normal" text-decoration="undefined" x="53" y="482.5" text-anchor="start" dominant-baseline="central" transform="matrix(1 0 0 1 248.73876953125 74)">+span: Span</text></g></g><g><g><path fill="none" stroke="none"/><text fill="#000000" stroke="none" font-family="Arial" font-size="13px" font-style="normal" font-weight="normal" text-decoration="undefined" x="53" y="505.5" text-anchor="start" dominant-baseline="central" transform="matrix(1 0 0 1 248.73876953125 74)">#JsonNode(type: String): JsonNode</text></g></g><g><g><path fill="none" stroke="none"/><text fill="#000000" stroke="none" font-family="Arial" font-size="13px" font-style="normal" font-weight="normal" text-decoration="undefined" x="53" y="520.5" text-anchor="start" dominant-baseline="central" transform="matrix(1 0 0 1 248.73876953125 74)">+nodeType(): String</text></g></g><g><g><path fill="none" stroke="none"/><text fill="#000000" stroke="none" font-family="Arial" font-size="13px" font-style="italic" font-weight="normal" text-decoration="undefined" x="53" y="535.5" text-anchor="start" dominant-baseline="central" transform="matrix(1 0 0 1 248.73876953125 74)">+getValue()</text></g></g><g><rect fill="#C0C0C0" stroke="none" x="305" y="423" width="79.341796875" height="53" transform="matrix(1 0 0 1 248.73876953125 74)" fill-opacity="0.2"/></g><g><rect fill="#ffffff" stroke="none" x="298" y="416" width="79.341796875" height="53" transform="matrix(1 0 0 1 248.73876953125 74)"/></g><g><path fill="none" stroke="#000000" paint-order="fill stroke markers" d=" M 546.73876953125 490 L 626.08056640625 490 L 626.08056640625 543 L 546.73876953125 543 L 546.73876953125 490 Z Z" stroke-miterlimit="10" stroke-dasharray=""/></g><g><g><path fill="none" stroke="none"/><text fill="#000000" stroke="none" font-family="Arial" font-size="13px" font-style="normal" font-weight="normal" text-decoration="undefined" x="338.1708984375" y="427.5" text-anchor="middle" dominant-baseline="central" transform="matrix(1 0 0 1 248.73876953125 74)">«dataType»</text></g></g><g><g><path fill="none" stroke="none"/><text fill="#000000" stroke="none" font-family="Arial" font-size="13px" font-style="normal" font-weight="bold" text-decoration="undefined" x="338.1708984375" y="442.5" text-anchor="middle" dominant-baseline="central" transform="matrix(1 0 0 1 248.73876953125 74)">Diagnostic</text></g></g><g><g><path fill="none" stroke="none"/><text fill="#000000" stroke="none" font-family="Arial" font-size="13px" font-style="normal" font-weight="normal" text-decoration="undefined" x="338.1708984375" y="457.5" text-anchor="middle" dominant-baseline="central" transform="matrix(1 0 0 1 248.73876953125 74)">(from types)</text></g></g><g><path fill="none" stroke="#000000" paint-order="fill stroke markers" d=" M 392.73876953125 490 L 392.73876953125 410" stroke-miterlimit="10" stroke-dasharray=""/></g><g><path fill="#000000" stroke="none" paint-order="stroke fill markers" d=" M 396.948287287266 420.16267485762415 L 392.73876953125 410 L 388.529251775234 420.16267485762415 L 392.73876953125 432"/></g><g><path fill="none" stroke="#000000" paint-order="fill stroke markers" d=" M 396.948287287266 420.16267485762415 L 392.73876953125 410 L 388.529251775234 420.16267485762415 L 392.73876953125 432 L 396.948287287266 420.16267485762415" stroke-miterlimit="10" stroke-dasharray=""/></g><g><path fill="none" stroke="#000000" paint-order="fill stroke markers" d=" M 583.73876953125 490 L 583.73876953125 410" stroke-miterlimit="10" stroke-dasharray=""/></g><g><path fill="#000000" stroke="none" paint-order="stroke fill markers" d=" M 587.948287287266 420.16267485762415 L 583.73876953125 410 L 579.529251775234 420.16267485762415 L 583.73876953125 432"/></g><g><path fill="none" stroke="#000000" paint-order="fill stroke markers" d=" M 587.948287287266 420.16267485762415 L 583.73876953125 410 L 579.529251775234 420.16267485762415 L 583.73876953125 432 L 587.948287287266 420.16267485762415" stroke-miterlimit="10" stroke-dasharray=""/></g><g><rect fill="#C0C0C0" stroke="none" x="431" y="47" width="392.38916015625" height="73" transform="matrix(1 0 0 1 248.73876953125 74)" fill-opacity="0.2"/></g><g><rect fill="#ffffff" stroke="none" x="424" y="40" width="392.38916015625" height="73" transform="matrix(1 0 0 1 248.73876953125 74)"/></g><g><path fill="none" stroke="#000000" paint-order="fill stroke markers" d=" M 672.73876953125 114 L 1065.1279296875 114 L 1065.1279296875 187 L 672.73876953125 187 L 672.73876953125 114 Z Z" stroke-miterlimit="10" stroke-dasharray=""/></g><g><path fill="none" stroke="#000000" paint-order="fill stroke markers" d=" M 672.73876953125 154 L 1065.1279296875 154" stroke-miterlimit="10" stroke-dasharray=""/></g><g><path fill="none" stroke="#000000" paint-order="fill stroke markers" d=" M 672.73876953125 164 L 1065.1279296875 164" stroke-miterlimit="10" stroke-dasharray=""/></g><g><g><path fill="none" stroke="none"/><text fill="#000000" stroke="none" font-family="Arial" font-size="13px" font-style="normal" font-weight="bold" text-decoration="undefined" x="620.694580078125" y="53.5" text-anchor="middle" dominant-baseline="central" transform="matrix(1 0 0 1 248.73876953125 74)">ParserUtils</text></g></g><g><g><path fill="none" stroke="none"/><text fill="#000000" stroke="none" font-family="Arial" font-size="13px" font-style="normal" font-weight="normal" text-decoration="undefined" x="620.694580078125" y="68.5" text-anchor="middle" dominant-baseline="central" transform="matrix(1 0 0 1 248.73876953125 74)">(from Parser)</text></g></g><g><g><path fill="none" stroke="none"/><text fill="#000000" stroke="none" font-family="Arial" font-size="13px" font-style="normal" font-weight="normal" text-decoration="undefined" x="429" y="101.5" text-anchor="start" dominant-baseline="central" transform="matrix(1 0 0 1 248.73876953125 74)">+line_col_to_byte_offset(input: String, line: usize, col: usize): usize</text></g></g></g></svg>