<svg version="1.1" xmlns="http://www.w3.org/2000/svg" xmlns:xlink="http://www.w3.org/1999/xlink" width="492" height="372"><defs/><g><g><path fill="none" stroke="#000000" paint-order="fill stroke markers" d=" M 130 10 L 482 10 L 482 362 L 130 362 L 130 10" stroke-miterlimit="10" stroke-dasharray=""/></g><g><path fill="#ffffff" stroke="none" paint-order="stroke fill markers" d=" M 130 10 L 130 33 L 268.12255859375 33 L 279.62255859375 21.5 L 279.62255859375 10 L 130 10"/></g><g><path fill="none" stroke="#000000" paint-order="fill stroke markers" d=" M 130 10 L 130 33 L 268.12255859375 33 L 279.62255859375 21.5 L 279.62255859375 10 L 130 10 L 130 10" stroke-miterlimit="10" stroke-dasharray=""/></g><g><g><path fill="none" stroke="none"/><text fill="#000000" stroke="none" font-family="Arial" font-size="13px" font-style="normal" font-weight="normal" text-decoration="undefined" x="206.92626953125" y="227.5" text-anchor="middle" dominant-baseline="central" transform="matrix(1 0 0 1 2 -206)">C4 Model::jsonette</text></g></g><g><g><path fill="none" stroke="none"/><text fill="#000000" stroke="none" font-family="Arial" font-size="13px" font-style="normal" font-weight="bold" text-decoration="undefined" x="139.864990234375" y="227.5" text-anchor="middle" dominant-baseline="central" transform="matrix(1 0 0 1 2 -206)">uc</text></g></g><g><path fill="#ffffff" stroke="none" paint-order="stroke fill markers" d=" M 42.99544921875 163.85000000000002 C 42.99544921875 158.96227952000004 46.95325158675 155 51.83544921875 155 C 56.71764685075 155 60.67544921875 158.96227952000004 60.67544921875 163.85000000000002 C 60.67544921875 168.73772048 56.71764685075 172.7 51.83544921875 172.7 C 46.95325158675 172.7 42.99544921875 168.73772048 42.99544921875 163.85000000000002 Z"/></g><g><path fill="none" stroke="#000000" paint-order="fill stroke markers" d=" M 42.99544921875 163.85000000000002 C 42.99544921875 158.96227952000004 46.95325158675 155 51.83544921875 155 C 56.71764685075 155 60.67544921875 158.96227952000004 60.67544921875 163.85000000000002 C 60.67544921875 168.73772048 56.71764685075 172.7 51.83544921875 172.7 C 46.95325158675 172.7 42.99544921875 168.73772048 42.99544921875 163.85000000000002 Z" stroke-miterlimit="10" stroke-dasharray=""/></g><g><path fill="none" stroke="#000000" paint-order="fill stroke markers" d=" M 51.83544921875 172.7 L 51.83544921875 190.3" stroke-miterlimit="10" stroke-dasharray=""/></g><g><path fill="none" stroke="#000000" paint-order="fill stroke markers" d=" M 42.47544921875 179.3 L 61.19544921875 179.3" stroke-miterlimit="10" stroke-dasharray=""/></g><g><path fill="none" stroke="#000000" paint-order="fill stroke markers" d=" M 51.83544921875 190.3 L 38.83544921875 208" stroke-miterlimit="10" stroke-dasharray=""/></g><g><path fill="none" stroke="#000000" paint-order="fill stroke markers" d=" M 51.83544921875 190.3 L 64.83544921875 208" stroke-miterlimit="10" stroke-dasharray=""/></g><g><g><path fill="none" stroke="none"/><text fill="#000000" stroke="none" font-family="Arial" font-size="13px" font-style="normal" font-weight="bold" text-decoration="undefined" x="50.33544921875" y="428.5" text-anchor="middle" dominant-baseline="central" transform="matrix(1 0 0 1 2 -206)">Developer</text></g></g><g><g><path fill="none" stroke="none"/><text fill="#000000" stroke="none" font-family="Arial" font-size="13px" font-style="normal" font-weight="normal" text-decoration="undefined" x="50.33544921875" y="443.5" text-anchor="middle" dominant-baseline="central" transform="matrix(1 0 0 1 2 -206)">(from actors)</text></g></g><g><path fill="#C0C0C0" stroke="none" paint-order="stroke fill markers" d=" M 222 101 C 222 85.53602560000002 268.3385232 73 325.5 73 C 382.6614768 73 429 85.53602560000002 429 101 C 429 116.46397439999998 382.6614768 129 325.5 129 C 268.3385232 129 222 116.46397439999998 222 101 Z" fill-opacity="0.2"/></g><g><path fill="#ffffff" stroke="none" paint-order="stroke fill markers" d=" M 215 94 C 215 78.53602560000002 261.3385232 66 318.5 66 C 375.6614768 66 422 78.53602560000002 422 94 C 422 109.46397439999998 375.6614768 122 318.5 122 C 261.3385232 122 215 109.46397439999998 215 94 Z"/></g><g><path fill="none" stroke="#000000" paint-order="fill stroke markers" d=" M 215 94 C 215 78.53602560000002 261.3385232 66 318.5 66 C 375.6614768 66 422 78.53602560000002 422 94 C 422 109.46397439999998 375.6614768 122 318.5 122 C 261.3385232 122 215 109.46397439999998 215 94 Z" stroke-miterlimit="10" stroke-dasharray=""/></g><g><g><path fill="none" stroke="none"/><text fill="#000000" stroke="none" font-family="Arial" font-size="13px" font-style="normal" font-weight="bold" text-decoration="undefined" x="316.5" y="293.5" text-anchor="middle" dominant-baseline="central" transform="matrix(1 0 0 1 2 -206)">See Collapsible Tree</text></g></g><g><g><path fill="none" stroke="none"/><text fill="#000000" stroke="none" font-family="Arial" font-size="13px" font-style="normal" font-weight="normal" text-decoration="undefined" x="316.5" y="308.5" text-anchor="middle" dominant-baseline="central" transform="matrix(1 0 0 1 2 -206)">(from System Features)</text></g></g><g><path fill="#C0C0C0" stroke="none" paint-order="stroke fill markers" d=" M 222 201 C 222 185.53602560000002 268.3385232 173 325.5 173 C 382.6614768 173 429 185.53602560000002 429 201 C 429 216.46397439999998 382.6614768 229 325.5 229 C 268.3385232 229 222 216.46397439999998 222 201 Z" fill-opacity="0.2"/></g><g><path fill="#ffffff" stroke="none" paint-order="stroke fill markers" d=" M 215 194 C 215 178.53602560000002 261.3385232 166 318.5 166 C 375.6614768 166 422 178.53602560000002 422 194 C 422 209.46397439999998 375.6614768 222 318.5 222 C 261.3385232 222 215 209.46397439999998 215 194 Z"/></g><g><path fill="none" stroke="#000000" paint-order="fill stroke markers" d=" M 215 194 C 215 178.53602560000002 261.3385232 166 318.5 166 C 375.6614768 166 422 178.53602560000002 422 194 C 422 209.46397439999998 375.6614768 222 318.5 222 C 261.3385232 222 215 209.46397439999998 215 194 Z" stroke-miterlimit="10" stroke-dasharray=""/></g><g><g><path fill="none" stroke="none"/><text fill="#000000" stroke="none" font-family="Arial" font-size="13px" font-style="normal" font-weight="bold" text-decoration="undefined" x="316.5" y="393.5" text-anchor="middle" dominant-baseline="central" transform="matrix(1 0 0 1 2 -206)">Navigate</text></g></g><g><g><path fill="none" stroke="none"/><text fill="#000000" stroke="none" font-family="Arial" font-size="13px" font-style="normal" font-weight="normal" text-decoration="undefined" x="316.5" y="408.5" text-anchor="middle" dominant-baseline="central" transform="matrix(1 0 0 1 2 -206)">(from System Features)</text></g></g><g><path fill="#C0C0C0" stroke="none" paint-order="stroke fill markers" d=" M 222 301 C 222 285.5360256 268.3385232 273 325.5 273 C 382.6614768 273 429 285.5360256 429 301 C 429 316.4639744 382.6614768 329 325.5 329 C 268.3385232 329 222 316.4639744 222 301 Z" fill-opacity="0.2"/></g><g><path fill="#ffffff" stroke="none" paint-order="stroke fill markers" d=" M 215 294 C 215 278.5360256 261.3385232 266 318.5 266 C 375.6614768 266 422 278.5360256 422 294 C 422 309.4639744 375.6614768 322 318.5 322 C 261.3385232 322 215 309.4639744 215 294 Z"/></g><g><path fill="none" stroke="#000000" paint-order="fill stroke markers" d=" M 215 294 C 215 278.5360256 261.3385232 266 318.5 266 C 375.6614768 266 422 278.5360256 422 294 C 422 309.4639744 375.6614768 322 318.5 322 C 261.3385232 322 215 309.4639744 215 294 Z" stroke-miterlimit="10" stroke-dasharray=""/></g><g><g><path fill="none" stroke="none"/><text fill="#000000" stroke="none" font-family="Arial" font-size="13px" font-style="normal" font-weight="bold" text-decoration="undefined" x="316.5" y="493.5" text-anchor="middle" dominant-baseline="central" transform="matrix(1 0 0 1 2 -206)">Search</text></g></g><g><g><path fill="none" stroke="none"/><text fill="#000000" stroke="none" font-family="Arial" font-size="13px" font-style="normal" font-weight="normal" text-decoration="undefined" x="316.5" y="508.5" text-anchor="middle" dominant-baseline="central" transform="matrix(1 0 0 1 2 -206)">(from System Features)</text></g></g><g><path fill="none" stroke="#000000" paint-order="fill stroke markers" d=" M 95 183 L 246 123" stroke-miterlimit="10" stroke-dasharray=""/></g><g><path fill="none" stroke="#000000" paint-order="fill stroke markers" d=" M 95 200 L 214 197" stroke-miterlimit="10" stroke-dasharray=""/></g><g><path fill="none" stroke="#000000" paint-order="fill stroke markers" d=" M 95 216 L 235 265" stroke-miterlimit="10" stroke-dasharray=""/></g></g></svg>