<svg version="1.1" xmlns="http://www.w3.org/2000/svg" xmlns:xlink="http://www.w3.org/1999/xlink" width="868" height="612"><defs/><g><g><path fill="none" stroke="#000000" paint-order="fill stroke markers" d=" M 10 10 L 858 10 L 858 602 L 10 602 L 10 10" stroke-miterlimit="10" stroke-dasharray=""/></g><g><path fill="#ffffff" stroke="none" paint-order="stroke fill markers" d=" M 10 10 L 10 33 L 114.88623046875 33 L 126.38623046875 21.5 L 126.38623046875 10 L 10 10"/></g><g><path fill="none" stroke="#000000" paint-order="fill stroke markers" d=" M 10 10 L 10 33 L 114.88623046875 33 L 126.38623046875 21.5 L 126.38623046875 10 L 10 10 L 10 10" stroke-miterlimit="10" stroke-dasharray=""/></g><g><g><path fill="none" stroke="none"/><text fill="#000000" stroke="none" font-family="Arial" font-size="13px" font-style="normal" font-weight="normal" text-decoration="undefined" x="70.30810546875" y="19.5" text-anchor="middle" dominant-baseline="central" transform="matrix(1 0 0 1 2 2)">jsonette::Edit</text></g></g><g><g><path fill="none" stroke="none"/><text fill="#000000" stroke="none" font-family="Arial" font-size="13px" font-style="normal" font-weight="bold" text-decoration="undefined" x="19.864990234375" y="19.5" text-anchor="middle" dominant-baseline="central" transform="matrix(1 0 0 1 2 2)">sd</text></g></g><g><path fill="#ffffff" stroke="none" paint-order="stroke fill markers" d=" M 90.3399520596591 49.3 C 90.3399520596591 45.82060576 93.21835378184092 43 96.76904296875 43 C 100.31973215565908 43 103.1981338778409 45.82060576 103.1981338778409 49.3 C 103.1981338778409 52.779394239999995 100.31973215565908 55.6 96.76904296875 55.6 C 93.21835378184092 55.6 90.3399520596591 52.779394239999995 90.3399520596591 49.3 Z"/></g><g><path fill="none" stroke="#000000" paint-order="fill stroke markers" d=" M 90.3399520596591 49.3 C 90.3399520596591 45.82060576 93.21835378184092 43 96.76904296875 43 C 100.31973215565908 43 103.1981338778409 45.82060576 103.1981338778409 49.3 C 103.1981338778409 52.779394239999995 100.31973215565908 55.6 96.76904296875 55.6 C 93.21835378184092 55.6 90.3399520596591 52.779394239999995 90.3399520596591 49.3 Z" stroke-miterlimit="10" stroke-dasharray=""/></g><g><path fill="none" stroke="#000000" paint-order="fill stroke markers" d=" M 96.76904296875 55.6 L 96.76904296875 68.4" stroke-miterlimit="10" stroke-dasharray=""/></g><g><path fill="none" stroke="#000000" paint-order="fill stroke markers" d=" M 89.96177024147727 60.4 L 103.57631569602273 60.4" stroke-miterlimit="10" stroke-dasharray=""/></g><g><path fill="none" stroke="#000000" paint-order="fill stroke markers" d=" M 96.76904296875 68.4 L 87.31449751420455 81" stroke-miterlimit="10" stroke-dasharray=""/></g><g><path fill="none" stroke="#000000" paint-order="fill stroke markers" d=" M 96.76904296875 68.4 L 106.22358842329545 81" stroke-miterlimit="10" stroke-dasharray=""/></g><g><g><path fill="none" stroke="none"/><text fill="#000000" stroke="none" font-family="Arial" font-size="13px" font-style="normal" font-weight="bold" text-decoration="undefined" x="95.26904296875" y="93.5" text-anchor="middle" dominant-baseline="central" transform="matrix(1 0 0 1 2 2)">Lifeline1: Developer</text></g></g><g><g><path fill="none" stroke="none"/><text fill="#000000" stroke="none" font-family="Arial" font-size="13px" font-style="normal" font-weight="normal" text-decoration="undefined" x="95.26904296875" y="108.5" text-anchor="middle" dominant-baseline="central" transform="matrix(1 0 0 1 2 2)">(from Edit)</text></g></g><g><path fill="none" stroke="#000000" paint-order="fill stroke markers" d=" M 97.5 123 L 97.5 570" stroke-miterlimit="10" stroke-dasharray="3"/></g><g><rect fill="#ffffff" stroke="none" x="252.51727973090277" y="40" width="34.44444444444446" height="40" transform="matrix(1 0 0 1 2 2)"/></g><g><path fill="none" stroke="#000000" paint-order="fill stroke markers" d=" M 254.51727973090277 42 L 288.96172417534723 42 L 288.96172417534723 82 L 254.51727973090277 82 L 254.51727973090277 42 Z Z" stroke-miterlimit="10" stroke-dasharray=""/></g><g><rect fill="#ffffff" stroke="none" x="242.51727973090277" y="46" width="20" height="10" transform="matrix(1 0 0 1 2 2)"/></g><g><path fill="none" stroke="#000000" paint-order="fill stroke markers" d=" M 244.51727973090277 48 L 264.51727973090277 48 L 264.51727973090277 58 L 244.51727973090277 58 L 244.51727973090277 48 Z Z" stroke-miterlimit="10" stroke-dasharray=""/></g><g><rect fill="#ffffff" stroke="none" x="242.51727973090277" y="63" width="20" height="10" transform="matrix(1 0 0 1 2 2)"/></g><g><path fill="none" stroke="#000000" paint-order="fill stroke markers" d=" M 244.51727973090277 65 L 264.51727973090277 65 L 264.51727973090277 75 L 244.51727973090277 75 L 244.51727973090277 65 Z Z" stroke-miterlimit="10" stroke-dasharray=""/></g><g><g><path fill="none" stroke="none"/><text fill="#000000" stroke="none" font-family="Arial" font-size="13px" font-style="normal" font-weight="bold" text-decoration="undefined" x="265.239501953125" y="93.5" text-anchor="middle" dominant-baseline="central" transform="matrix(1 0 0 1 2 2)">Lifeline2: macOS</text></g></g><g><g><path fill="none" stroke="none"/><text fill="#000000" stroke="none" font-family="Arial" font-size="13px" font-style="normal" font-weight="normal" text-decoration="undefined" x="265.239501953125" y="108.5" text-anchor="middle" dominant-baseline="central" transform="matrix(1 0 0 1 2 2)">(from Edit)</text></g></g><g><path fill="none" stroke="#000000" paint-order="fill stroke markers" d=" M 267.5 123 L 267.5 570" stroke-miterlimit="10" stroke-dasharray="3"/></g><g><rect fill="#ffffff" stroke="none" x="748.7841254340278" y="40" width="34.44444444444446" height="40" transform="matrix(1 0 0 1 2 2)"/></g><g><path fill="none" stroke="#000000" paint-order="fill stroke markers" d=" M 750.7841254340278 42 L 785.2285698784723 42 L 785.2285698784723 82 L 750.7841254340278 82 L 750.7841254340278 42 Z Z" stroke-miterlimit="10" stroke-dasharray=""/></g><g><rect fill="#ffffff" stroke="none" x="738.7841254340278" y="46" width="20" height="10" transform="matrix(1 0 0 1 2 2)"/></g><g><path fill="none" stroke="#000000" paint-order="fill stroke markers" d=" M 740.7841254340278 48 L 760.7841254340278 48 L 760.7841254340278 58 L 740.7841254340278 58 L 740.7841254340278 48 Z Z" stroke-miterlimit="10" stroke-dasharray=""/></g><g><rect fill="#ffffff" stroke="none" x="738.7841254340278" y="63" width="20" height="10" transform="matrix(1 0 0 1 2 2)"/></g><g><path fill="none" stroke="#000000" paint-order="fill stroke markers" d=" M 740.7841254340278 65 L 760.7841254340278 65 L 760.7841254340278 75 L 740.7841254340278 75 L 740.7841254340278 65 Z Z" stroke-miterlimit="10" stroke-dasharray=""/></g><g><g><path fill="none" stroke="none"/><text fill="#000000" stroke="none" font-family="Arial" font-size="13px" font-style="normal" font-weight="bold" text-decoration="undefined" x="761.50634765625" y="93.5" text-anchor="middle" dominant-baseline="central" transform="matrix(1 0 0 1 2 2)">Lifeline3: Engine</text></g></g><g><g><path fill="none" stroke="none"/><text fill="#000000" stroke="none" font-family="Arial" font-size="13px" font-style="normal" font-weight="normal" text-decoration="undefined" x="761.50634765625" y="108.5" text-anchor="middle" dominant-baseline="central" transform="matrix(1 0 0 1 2 2)">(from Edit)</text></g></g><g><path fill="none" stroke="#000000" paint-order="fill stroke markers" d=" M 763.5 123 L 763.5 570" stroke-miterlimit="10" stroke-dasharray="3"/></g><g><path fill="none" stroke="#000000" paint-order="fill stroke markers" d=" M 98 124 L 260 124" stroke-miterlimit="10" stroke-dasharray=""/></g><g><path fill="none" stroke="#000000" paint-order="fill stroke markers" d=" M 249.83732514237585 128.209517756016 L 260 124 L 249.83732514237585 119.79048224398402" stroke-miterlimit="10" stroke-dasharray=""/></g><g><rect fill="#ffffff" stroke="none" x="138" y="106" width="78.04443359375" height="13" transform="matrix(1 0 0 1 2 2)"/></g><g><g><path fill="none" stroke="none"/><text fill="#000000" stroke="none" font-family="Arial" font-size="13px" font-style="normal" font-weight="normal" text-decoration="undefined" x="177.022216796875" y="112.5" text-anchor="middle" dominant-baseline="central" transform="matrix(1 0 0 1 2 2)">1 : EditsText</text></g></g><g><rect fill="#ffffff" stroke="none" x="258" y="122" width="14" height="28" transform="matrix(1 0 0 1 2 2)"/></g><g><path fill="none" stroke="#000000" paint-order="fill stroke markers" d=" M 260 124 L 274 124 L 274 152 L 260 152 L 260 124 Z Z" stroke-miterlimit="10" stroke-dasharray=""/></g><g><path fill="none" stroke="#000000" paint-order="fill stroke markers" d=" M 268 178 L 756 178" stroke-miterlimit="10" stroke-dasharray=""/></g><g><path fill="#000000" stroke="none" paint-order="stroke fill markers" d=" M 745.8373251423759 182.209517756016 L 756 178 L 745.8373251423758 173.790482243984"/></g><g><path fill="none" stroke="#000000" paint-order="fill stroke markers" d=" M 745.8373251423759 182.209517756016 L 756 178 L 745.8373251423758 173.790482243984 L 745.8373251423759 182.209517756016" stroke-miterlimit="10" stroke-dasharray=""/></g><g><rect fill="#ffffff" stroke="none" x="422" y="160" width="177.0234375" height="13" transform="matrix(1 0 0 1 2 2)"/></g><g><g><path fill="none" stroke="none"/><text fill="#000000" stroke="none" font-family="Arial" font-size="13px" font-style="normal" font-weight="normal" text-decoration="undefined" x="510.51171875" y="166.5" text-anchor="middle" dominant-baseline="central" transform="matrix(1 0 0 1 2 2)">2 : tolerant_parse(CurrentText)</text></g></g><g><rect fill="#ffffff" stroke="none" x="754" y="176" width="14" height="28" transform="matrix(1 0 0 1 2 2)"/></g><g><path fill="none" stroke="#000000" paint-order="fill stroke markers" d=" M 756 178 L 770 178 L 770 206 L 756 206 L 756 178 Z Z" stroke-miterlimit="10" stroke-dasharray=""/></g><g><path fill="none" stroke="#000000" paint-order="fill stroke markers" d=" M 756 194 L 268 194" stroke-miterlimit="10" stroke-dasharray="3"/></g><g><path fill="none" stroke="#000000" paint-order="fill stroke markers" d=" M 278.16267485762415 189.790482243984 L 268 194 L 278.16267485762415 198.209517756016" stroke-miterlimit="10" stroke-dasharray=""/></g><g><rect fill="#ffffff" stroke="none" x="458" y="196" width="102.83203125" height="13" transform="matrix(1 0 0 1 2 2)"/></g><g><g><path fill="none" stroke="none"/><text fill="#000000" stroke="none" font-family="Arial" font-size="13px" font-style="normal" font-weight="normal" text-decoration="undefined" x="509.416015625" y="202.5" text-anchor="middle" dominant-baseline="central" transform="matrix(1 0 0 1 2 2)">3 : TreeAndErrors</text></g></g><g><path fill="none" stroke="#000000" paint-order="fill stroke markers" d=" M 268 234 L 298 234 L 298 254 L 274 254" stroke-miterlimit="10" stroke-dasharray=""/></g><g><path fill="#000000" stroke="none" paint-order="stroke fill markers" d=" M 284.16267485762415 249.790482243984 L 274 254 L 284.16267485762415 258.209517756016"/></g><g><path fill="none" stroke="#000000" paint-order="fill stroke markers" d=" M 284.16267485762415 249.790482243984 L 274 254 L 284.16267485762415 258.209517756016 L 284.16267485762415 249.790482243984" stroke-miterlimit="10" stroke-dasharray=""/></g><g><rect fill="#ffffff" stroke="none" x="259" y="235" width="92.73291015625" height="13" transform="matrix(1 0 0 1 2 2)"/></g><g><g><path fill="none" stroke="none"/><text fill="#000000" stroke="none" font-family="Arial" font-size="13px" font-style="normal" font-weight="normal" text-decoration="undefined" x="305.366455078125" y="241.5" text-anchor="middle" dominant-baseline="central" transform="matrix(1 0 0 1 2 2)">4 : UpdatesTree</text></g></g><g><rect fill="#ffffff" stroke="none" x="258" y="252" width="14" height="28" transform="matrix(1 0 0 1 2 2)"/></g><g><path fill="none" stroke="#000000" paint-order="fill stroke markers" d=" M 260 254 L 274 254 L 274 282 L 260 282 L 260 254 Z Z" stroke-miterlimit="10" stroke-dasharray=""/></g><g><path fill="none" stroke="#000000" paint-order="fill stroke markers" d=" M 268 298 L 298 298 L 298 318 L 274 318" stroke-miterlimit="10" stroke-dasharray=""/></g><g><path fill="#000000" stroke="none" paint-order="stroke fill markers" d=" M 284.16267485762415 313.790482243984 L 274 318 L 284.16267485762415 322.209517756016"/></g><g><path fill="none" stroke="#000000" paint-order="fill stroke markers" d=" M 284.16267485762415 313.790482243984 L 274 318 L 284.16267485762415 322.209517756016 L 284.16267485762415 313.790482243984" stroke-miterlimit="10" stroke-dasharray=""/></g><g><rect fill="#ffffff" stroke="none" x="238" y="299" width="134.41162109375" height="13" transform="matrix(1 0 0 1 2 2)"/></g><g><g><path fill="none" stroke="none"/><text fill="#000000" stroke="none" font-family="Arial" font-size="13px" font-style="normal" font-weight="normal" text-decoration="undefined" x="305.205810546875" y="305.5" text-anchor="middle" dominant-baseline="central" transform="matrix(1 0 0 1 2 2)">5 : MapDiagnosticSpan</text></g></g><g><rect fill="#ffffff" stroke="none" x="258" y="316" width="14" height="28" transform="matrix(1 0 0 1 2 2)"/></g><g><path fill="none" stroke="#000000" paint-order="fill stroke markers" d=" M 260 318 L 274 318 L 274 346 L 260 346 L 260 318 Z Z" stroke-miterlimit="10" stroke-dasharray=""/></g></g></svg>