<svg version="1.1" xmlns="http://www.w3.org/2000/svg" xmlns:xlink="http://www.w3.org/1999/xlink" width="1028" height="812"><defs/><g><g><path fill="none" stroke="#000000" paint-order="fill stroke markers" d=" M 10 10 L 1018 10 L 1018 802 L 10 802 L 10 10" stroke-miterlimit="10" stroke-dasharray=""/></g><g><path fill="#FFE2D8" stroke="none" paint-order="stroke fill markers" d=" M 10 10 L 10 33 L 224.73876953125 33 L 236.23876953125 21.5 L 236.23876953125 10 L 10 10"/></g><g><path fill="none" stroke="#000000" paint-order="fill stroke markers" d=" M 10 10 L 10 33 L 224.73876953125 33 L 236.23876953125 21.5 L 236.23876953125 10 L 10 10 L 10 10" stroke-miterlimit="10" stroke-dasharray=""/></g><g><g><path fill="none" stroke="none"/><text fill="#000000" stroke="none" font-family="Arial" font-size="13px" font-style="normal" font-weight="normal" text-decoration="undefined" x="125.234375" y="11.5" text-anchor="middle" dominant-baseline="central" transform="matrix(1 0 0 1 2 10)">UpdateSettings::UpdateSettings</text></g></g><g><g><path fill="none" stroke="none"/><text fill="#000000" stroke="none" font-family="Arial" font-size="13px" font-style="normal" font-weight="bold" text-decoration="undefined" x="19.864990234375" y="11.5" text-anchor="middle" dominant-baseline="central" transform="matrix(1 0 0 1 2 10)">sd</text></g></g><g><rect fill="#C0C0C0" stroke="none" x="23" y="47" width="147.16259765625" height="40" transform="matrix(1 0 0 1 2 10)" fill-opacity="0.2"/></g><g><rect fill="#ffffff" stroke="none" x="16" y="40" width="147.16259765625" height="40" transform="matrix(1 0 0 1 2 10)"/></g><g><path fill="none" stroke="#000000" paint-order="fill stroke markers" d=" M 18 50 L 165.16259765625 50 L 165.16259765625 90 L 18 90 L 18 50 Z Z" stroke-miterlimit="10" stroke-dasharray=""/></g><g><g><path fill="none" stroke="none"/><text fill="#000000" stroke="none" font-family="Arial" font-size="13px" font-style="normal" font-weight="bold" text-decoration="undefined" x="90.081298828125" y="53.5" text-anchor="middle" dominant-baseline="central" transform="matrix(1 0 0 1 2 10)">Caller: macOS</text></g></g><g><g><path fill="none" stroke="none"/><text fill="#000000" stroke="none" font-family="Arial" font-size="13px" font-style="normal" font-weight="normal" text-decoration="undefined" x="90.081298828125" y="68.5" text-anchor="middle" dominant-baseline="central" transform="matrix(1 0 0 1 2 10)">(from UpdateSettings)</text></g></g><g><path fill="none" stroke="#000000" paint-order="fill stroke markers" d=" M 92.5 91 L 92.5 786" stroke-miterlimit="10" stroke-dasharray="3"/></g><g><rect fill="#C0C0C0" stroke="none" x="207" y="47" width="147.16259765625" height="40" transform="matrix(1 0 0 1 2 10)" fill-opacity="0.2"/></g><g><rect fill="#ffffff" stroke="none" x="200" y="40" width="147.16259765625" height="40" transform="matrix(1 0 0 1 2 10)"/></g><g><path fill="none" stroke="#000000" paint-order="fill stroke markers" d=" M 202 50 L 349.16259765625 50 L 349.16259765625 90 L 202 90 L 202 50 Z Z" stroke-miterlimit="10" stroke-dasharray=""/></g><g><g><path fill="none" stroke="none"/><text fill="#000000" stroke="none" font-family="Arial" font-size="13px" font-style="normal" font-weight="bold" text-decoration="undefined" x="274.081298828125" y="53.5" text-anchor="middle" dominant-baseline="central" transform="matrix(1 0 0 1 2 10)">Engine: Engine</text></g></g><g><g><path fill="none" stroke="none"/><text fill="#000000" stroke="none" font-family="Arial" font-size="13px" font-style="normal" font-weight="normal" text-decoration="undefined" x="274.081298828125" y="68.5" text-anchor="middle" dominant-baseline="central" transform="matrix(1 0 0 1 2 10)">(from UpdateSettings)</text></g></g><g><path fill="none" stroke="#000000" paint-order="fill stroke markers" d=" M 276.5 91 L 276.5 786" stroke-miterlimit="10" stroke-dasharray="3"/></g><g><rect fill="#C0C0C0" stroke="none" x="391" y="47" width="147.16259765625" height="40" transform="matrix(1 0 0 1 2 10)" fill-opacity="0.2"/></g><g><rect fill="#ffffff" stroke="none" x="384" y="40" width="147.16259765625" height="40" transform="matrix(1 0 0 1 2 10)"/></g><g><path fill="none" stroke="#000000" paint-order="fill stroke markers" d=" M 386 50 L 533.16259765625 50 L 533.16259765625 90 L 386 90 L 386 50 Z Z" stroke-miterlimit="10" stroke-dasharray=""/></g><g><g><path fill="none" stroke="none"/><text fill="#000000" stroke="none" font-family="Arial" font-size="13px" font-style="normal" font-weight="bold" text-decoration="undefined" x="458.081298828125" y="53.5" text-anchor="middle" dominant-baseline="central" transform="matrix(1 0 0 1 2 10)">Settings: Settings</text></g></g><g><g><path fill="none" stroke="none"/><text fill="#000000" stroke="none" font-family="Arial" font-size="13px" font-style="normal" font-weight="normal" text-decoration="undefined" x="458.081298828125" y="68.5" text-anchor="middle" dominant-baseline="central" transform="matrix(1 0 0 1 2 10)">(from UpdateSettings)</text></g></g><g><path fill="none" stroke="#000000" paint-order="fill stroke markers" d=" M 460.5 91 L 460.5 786" stroke-miterlimit="10" stroke-dasharray="3"/></g><g><rect fill="#C0C0C0" stroke="none" x="623" y="47" width="147.16259765625" height="40" transform="matrix(1 0 0 1 2 10)" fill-opacity="0.2"/></g><g><rect fill="#ffffff" stroke="none" x="616" y="40" width="147.16259765625" height="40" transform="matrix(1 0 0 1 2 10)"/></g><g><path fill="none" stroke="#000000" paint-order="fill stroke markers" d=" M 618 50 L 765.16259765625 50 L 765.16259765625 90 L 618 90 L 618 50 Z Z" stroke-miterlimit="10" stroke-dasharray=""/></g><g><g><path fill="none" stroke="none"/><text fill="#000000" stroke="none" font-family="Arial" font-size="13px" font-style="normal" font-weight="bold" text-decoration="undefined" x="690.081298828125" y="53.5" text-anchor="middle" dominant-baseline="central" transform="matrix(1 0 0 1 2 10)">Lock</text></g></g><g><g><path fill="none" stroke="none"/><text fill="#000000" stroke="none" font-family="Arial" font-size="13px" font-style="normal" font-weight="normal" text-decoration="undefined" x="690.081298828125" y="68.5" text-anchor="middle" dominant-baseline="central" transform="matrix(1 0 0 1 2 10)">(from UpdateSettings)</text></g></g><g><path fill="none" stroke="#000000" paint-order="fill stroke markers" d=" M 692.5 91 L 692.5 786" stroke-miterlimit="10" stroke-dasharray="3"/></g><g><rect fill="#C0C0C0" stroke="none" x="823" y="47" width="147.16259765625" height="40" transform="matrix(1 0 0 1 2 10)" fill-opacity="0.2"/></g><g><rect fill="#ffffff" stroke="none" x="816" y="40" width="147.16259765625" height="40" transform="matrix(1 0 0 1 2 10)"/></g><g><path fill="none" stroke="#000000" paint-order="fill stroke markers" d=" M 818 50 L 965.16259765625 50 L 965.16259765625 90 L 818 90 L 818 50 Z Z" stroke-miterlimit="10" stroke-dasharray=""/></g><g><g><path fill="none" stroke="none"/><text fill="#000000" stroke="none" font-family="Arial" font-size="13px" font-style="normal" font-weight="bold" text-decoration="undefined" x="890.081298828125" y="53.5" text-anchor="middle" dominant-baseline="central" transform="matrix(1 0 0 1 2 10)">Desk</text></g></g><g><g><path fill="none" stroke="none"/><text fill="#000000" stroke="none" font-family="Arial" font-size="13px" font-style="normal" font-weight="normal" text-decoration="undefined" x="890.081298828125" y="68.5" text-anchor="middle" dominant-baseline="central" transform="matrix(1 0 0 1 2 10)">(from UpdateSettings)</text></g></g><g><path fill="none" stroke="#000000" paint-order="fill stroke markers" d=" M 892.5 91 L 892.5 778" stroke-miterlimit="10" stroke-dasharray="3"/></g><g><path fill="none" stroke="#000000" paint-order="fill stroke markers" d=" M 93 115 L 269 115" stroke-miterlimit="10" stroke-dasharray=""/></g><g><path fill="#000000" stroke="none" paint-order="stroke fill markers" d=" M 258.83732514237585 119.20951775601598 L 269 115 L 258.83732514237585 110.79048224398402"/></g><g><path fill="none" stroke="#000000" paint-order="fill stroke markers" d=" M 258.83732514237585 119.20951775601598 L 269 115 L 258.83732514237585 110.79048224398402 L 258.83732514237585 119.20951775601598" stroke-miterlimit="10" stroke-dasharray=""/></g><g><rect fill="#ffffff" stroke="none" x="93" y="88" width="163.31884765625" height="13" transform="matrix(1 0 0 1 2 10)"/></g><g><g><path fill="none" stroke="none"/><text fill="#000000" stroke="none" font-family="Arial" font-size="13px" font-style="normal" font-weight="normal" text-decoration="undefined" x="174.659423828125" y="94.5" text-anchor="middle" dominant-baseline="central" transform="matrix(1 0 0 1 2 10)">1 : update_settings(settings)</text></g></g><g><rect fill="#ffffff" stroke="none" x="267" y="105" width="14" height="639" transform="matrix(1 0 0 1 2 10)"/></g><g><path fill="none" stroke="#000000" paint-order="fill stroke markers" d=" M 269 115 L 283 115 L 283 754 L 269 754 L 269 115 Z Z" stroke-miterlimit="10" stroke-dasharray=""/></g><g><path fill="none" stroke="#000000" paint-order="fill stroke markers" d=" M 283 154 L 453 154" stroke-miterlimit="10" stroke-dasharray=""/></g><g><path fill="#000000" stroke="none" paint-order="stroke fill markers" d=" M 442.83732514237585 158.209517756016 L 453 154 L 442.83732514237585 149.790482243984"/></g><g><path fill="none" stroke="#000000" paint-order="fill stroke markers" d=" M 442.83732514237585 158.209517756016 L 453 154 L 442.83732514237585 149.790482243984 L 442.83732514237585 158.209517756016" stroke-miterlimit="10" stroke-dasharray=""/></g><g><rect fill="#ffffff" stroke="none" x="245" y="128" width="243.5341796875" height="13" transform="matrix(1 0 0 1 2 10)"/></g><g><g><path fill="none" stroke="none"/><text fill="#000000" stroke="none" font-family="Arial" font-size="13px" font-style="normal" font-weight="normal" text-decoration="undefined" x="366.76708984375" y="134.5" text-anchor="middle" dominant-baseline="central" transform="matrix(1 0 0 1 2 10)">2 : get_settings_lock():Lock&lt;AppSettings&gt;</text></g></g><g><rect fill="#ffffff" stroke="none" x="451" y="144" width="14" height="56" transform="matrix(1 0 0 1 2 10)"/></g><g><path fill="none" stroke="#000000" paint-order="fill stroke markers" d=" M 453 154 L 467 154 L 467 210 L 453 210 L 453 154 Z Z" stroke-miterlimit="10" stroke-dasharray=""/></g><g><path fill="none" stroke="#000000" paint-order="fill stroke markers" d=" M 467 178 L 685 178" stroke-miterlimit="10" stroke-dasharray=""/></g><g><path fill="#000000" stroke="none" paint-order="stroke fill markers" d=" M 674.8373251423759 182.209517756016 L 685 178 L 674.8373251423758 173.790482243984"/></g><g><path fill="none" stroke="#000000" paint-order="fill stroke markers" d=" M 674.8373251423759 182.209517756016 L 685 178 L 674.8373251423758 173.790482243984 L 674.8373251423759 182.209517756016" stroke-miterlimit="10" stroke-dasharray=""/></g><g><rect fill="#ffffff" stroke="none" x="535" y="152" width="78.04443359375" height="13" transform="matrix(1 0 0 1 2 10)"/></g><g><g><path fill="none" stroke="none"/><text fill="#000000" stroke="none" font-family="Arial" font-size="13px" font-style="normal" font-weight="normal" text-decoration="undefined" x="574.022216796875" y="158.5" text-anchor="middle" dominant-baseline="central" transform="matrix(1 0 0 1 2 10)">3 : GetLock</text></g></g><g><rect fill="#ffffff" stroke="none" x="683" y="168" width="14" height="28" transform="matrix(1 0 0 1 2 10)"/></g><g><path fill="none" stroke="#000000" paint-order="fill stroke markers" d=" M 685 178 L 699 178 L 699 206 L 685 206 L 685 178 Z Z" stroke-miterlimit="10" stroke-dasharray=""/></g><g><path fill="none" stroke="#000000" paint-order="fill stroke markers" d=" M 685 194 L 467 194" stroke-miterlimit="10" stroke-dasharray="3"/></g><g><path fill="none" stroke="#000000" paint-order="fill stroke markers" d=" M 477.16267485762415 189.790482243984 L 467 194 L 477.16267485762415 198.209517756016" stroke-miterlimit="10" stroke-dasharray=""/></g><g><rect fill="#ffffff" stroke="none" x="531" y="188" width="84.54443359375" height="13" transform="matrix(1 0 0 1 2 10)"/></g><g><g><path fill="none" stroke="none"/><text fill="#000000" stroke="none" font-family="Arial" font-size="13px" font-style="normal" font-weight="normal" text-decoration="undefined" x="573.272216796875" y="194.5" text-anchor="middle" dominant-baseline="central" transform="matrix(1 0 0 1 2 10)">4 : ReturnLock</text></g></g><g><path fill="none" stroke="#000000" paint-order="fill stroke markers" d=" M 461 226 L 491 226 L 491 246 L 467 246" stroke-miterlimit="10" stroke-dasharray=""/></g><g><path fill="#000000" stroke="none" paint-order="stroke fill markers" d=" M 477.16267485762415 241.790482243984 L 467 246 L 477.16267485762415 250.209517756016"/></g><g><path fill="none" stroke="#000000" paint-order="fill stroke markers" d=" M 477.16267485762415 241.790482243984 L 467 246 L 477.16267485762415 250.209517756016 L 477.16267485762415 241.790482243984" stroke-miterlimit="10" stroke-dasharray=""/></g><g><rect fill="#ffffff" stroke="none" x="378" y="219" width="240.626953125" height="13" transform="matrix(1 0 0 1 2 10)"/></g><g><g><path fill="none" stroke="none"/><text fill="#000000" stroke="none" font-family="Arial" font-size="13px" font-style="normal" font-weight="normal" text-decoration="undefined" x="498.3134765625" y="225.5" text-anchor="middle" dominant-baseline="central" transform="matrix(1 0 0 1 2 10)">5 : load_settings_from_disk():AppSettings</text></g></g><g><rect fill="#ffffff" stroke="none" x="451" y="236" width="14" height="380" transform="matrix(1 0 0 1 2 10)"/></g><g><path fill="none" stroke="#000000" paint-order="fill stroke markers" d=" M 453 246 L 467 246 L 467 626 L 453 626 L 453 246 Z Z" stroke-miterlimit="10" stroke-dasharray=""/></g><g><path fill="none" stroke="#000000" paint-order="fill stroke markers" d=" M 467 290 L 497 290 L 497 310 L 474 310" stroke-miterlimit="10" stroke-dasharray=""/></g><g><path fill="#000000" stroke="none" paint-order="stroke fill markers" d=" M 484.16267485762415 305.790482243984 L 474 310 L 484.16267485762415 314.209517756016"/></g><g><path fill="none" stroke="#000000" paint-order="fill stroke markers" d=" M 484.16267485762415 305.790482243984 L 474 310 L 484.16267485762415 314.209517756016 L 484.16267485762415 305.790482243984" stroke-miterlimit="10" stroke-dasharray=""/></g><g><rect fill="#ffffff" stroke="none" x="425" y="283" width="159.71337890625" height="13" transform="matrix(1 0 0 1 2 10)"/></g><g><g><path fill="none" stroke="none"/><text fill="#000000" stroke="none" font-family="Arial" font-size="13px" font-style="normal" font-weight="normal" text-decoration="undefined" x="504.856689453125" y="289.5" text-anchor="middle" dominant-baseline="central" transform="matrix(1 0 0 1 2 10)">6 : get_settings_path():Path</text></g></g><g><rect fill="#ffffff" stroke="none" x="458" y="300" width="14" height="108" transform="matrix(1 0 0 1 2 10)"/></g><g><path fill="none" stroke="#000000" paint-order="fill stroke markers" d=" M 460 310 L 474 310 L 474 418 L 460 418 L 460 310 Z Z" stroke-miterlimit="10" stroke-dasharray=""/></g><g><path fill="none" stroke="#000000" paint-order="fill stroke markers" d=" M 474 362 L 504 362 L 504 382 L 481 382" stroke-miterlimit="10" stroke-dasharray=""/></g><g><path fill="#000000" stroke="none" paint-order="stroke fill markers" d=" M 491.16267485762415 377.790482243984 L 481 382 L 491.16267485762415 386.209517756016"/></g><g><path fill="none" stroke="#000000" paint-order="fill stroke markers" d=" M 491.16267485762415 377.790482243984 L 481 382 L 491.16267485762415 386.209517756016 L 491.16267485762415 377.790482243984" stroke-miterlimit="10" stroke-dasharray=""/></g><g><rect fill="#ffffff" stroke="none" x="443" y="355" width="136.576171875" height="13" transform="matrix(1 0 0 1 2 10)"/></g><g><g><path fill="none" stroke="none"/><text fill="#000000" stroke="none" font-family="Arial" font-size="13px" font-style="normal" font-weight="normal" text-decoration="undefined" x="511.2880859375" y="361.5" text-anchor="middle" dominant-baseline="central" transform="matrix(1 0 0 1 2 10)">7 : get_home_dir():Path</text></g></g><g><rect fill="#ffffff" stroke="none" x="465" y="372" width="14" height="28" transform="matrix(1 0 0 1 2 10)"/></g><g><path fill="none" stroke="#000000" paint-order="fill stroke markers" d=" M 467 382 L 481 382 L 481 410 L 467 410 L 467 382 Z Z" stroke-miterlimit="10" stroke-dasharray=""/></g><g><path fill="none" stroke="#000000" paint-order="fill stroke markers" d=" M 467 450 L 497 450 L 497 470 L 474 470" stroke-miterlimit="10" stroke-dasharray=""/></g><g><path fill="#000000" stroke="none" paint-order="stroke fill markers" d=" M 484.16267485762415 465.790482243984 L 474 470 L 484.16267485762415 474.209517756016"/></g><g><path fill="none" stroke="#000000" paint-order="fill stroke markers" d=" M 484.16267485762415 465.790482243984 L 474 470 L 484.16267485762415 474.209517756016 L 484.16267485762415 465.790482243984" stroke-miterlimit="10" stroke-dasharray=""/></g><g><rect fill="#ffffff" stroke="none" x="376" y="443" width="256.5341796875" height="13" transform="matrix(1 0 0 1 2 10)"/></g><g><g><path fill="none" stroke="none"/><text fill="#000000" stroke="none" font-family="Arial" font-size="13px" font-style="normal" font-weight="normal" text-decoration="undefined" x="504.26708984375" y="449.5" text-anchor="middle" dominant-baseline="central" transform="matrix(1 0 0 1 2 10)">8 : save_settings_to_disk(default)</text></g></g><g><rect fill="#ffffff" stroke="none" x="458" y="460" width="14" height="44" transform="matrix(1 0 0 1 2 10)"/></g><g><path fill="none" stroke="#000000" paint-order="fill stroke markers" d=" M 460 470 L 474 470 L 474 514 L 460 514 L 460 470 Z Z" stroke-miterlimit="10" stroke-dasharray=""/></g><g><path fill="none" stroke="#000000" paint-order="fill stroke markers" d=" M 474 483 L 885 483" stroke-miterlimit="10" stroke-dasharray=""/></g><g><path fill="#000000" stroke="none" paint-order="stroke fill markers" d=" M 874.8373251423759 487.209517756016 L 885 483 L 874.8373251423758 478.790482243984"/></g><g><path fill="none" stroke="#000000" paint-order="fill stroke markers" d=" M 874.8373251423759 487.209517756016 L 885 483 L 874.8373251423758 478.790482243984 L 874.8373251423759 487.209517756016" stroke-miterlimit="10" stroke-dasharray=""/></g><g><rect fill="#ffffff" stroke="none" x="632" y="457" width="91.5078125" height="13" transform="matrix(1 0 0 1 2 10)"/></g><g><g><path fill="none" stroke="none"/><text fill="#000000" stroke="none" font-family="Arial" font-size="13px" font-style="normal" font-weight="normal" text-decoration="undefined" x="677.75390625" y="463.5" text-anchor="middle" dominant-baseline="central" transform="matrix(1 0 0 1 2 10)">9 : WriteToDesk</text></g></g><g><rect fill="#ffffff" stroke="none" x="883" y="473" width="14" height="28" transform="matrix(1 0 0 1 2 10)"/></g><g><path fill="none" stroke="#000000" paint-order="fill stroke markers" d=" M 885 483 L 899 483 L 899 511 L 885 511 L 885 483 Z Z" stroke-miterlimit="10" stroke-dasharray=""/></g><g><path fill="none" stroke="#000000" paint-order="fill stroke markers" d=" M 885 498 L 474 498" stroke-miterlimit="10" stroke-dasharray="3"/></g><g><path fill="none" stroke="#000000" paint-order="fill stroke markers" d=" M 484.16267485762415 493.790482243984 L 474 498 L 484.16267485762415 502.209517756016" stroke-miterlimit="10" stroke-dasharray=""/></g><g><rect fill="#ffffff" stroke="none" x="637" y="492" width="79.47900390625" height="13" transform="matrix(1 0 0 1 2 10)"/></g><g><g><path fill="none" stroke="none"/><text fill="#000000" stroke="none" font-family="Arial" font-size="13px" font-style="normal" font-weight="normal" text-decoration="undefined" x="676.739501953125" y="498.5" text-anchor="middle" dominant-baseline="central" transform="matrix(1 0 0 1 2 10)">10 : return Ok</text></g></g><g><path fill="none" stroke="#000000" paint-order="fill stroke markers" d=" M 467 548 L 885 548" stroke-miterlimit="10" stroke-dasharray=""/></g><g><path fill="#000000" stroke="none" paint-order="stroke fill markers" d=" M 874.8373251423759 552.209517756016 L 885 548 L 874.8373251423758 543.790482243984"/></g><g><path fill="none" stroke="#000000" paint-order="fill stroke markers" d=" M 874.8373251423759 552.209517756016 L 885 548 L 874.8373251423758 543.790482243984 L 874.8373251423759 552.209517756016" stroke-miterlimit="10" stroke-dasharray=""/></g><g><rect fill="#ffffff" stroke="none" x="617" y="522" width="115.35595703125" height="13" transform="matrix(1 0 0 1 2 10)"/></g><g><g><path fill="none" stroke="none"/><text fill="#000000" stroke="none" font-family="Arial" font-size="13px" font-style="normal" font-weight="normal" text-decoration="undefined" x="674.677978515625" y="528.5" text-anchor="middle" dominant-baseline="central" transform="matrix(1 0 0 1 2 10)">11 : ReadFromDesk</text></g></g><g><rect fill="#ffffff" stroke="none" x="883" y="538" width="14" height="28" transform="matrix(1 0 0 1 2 10)"/></g><g><path fill="none" stroke="#000000" paint-order="fill stroke markers" d=" M 885 548 L 899 548 L 899 576 L 885 576 L 885 548 Z Z" stroke-miterlimit="10" stroke-dasharray=""/></g><g><path fill="none" stroke="#000000" paint-order="fill stroke markers" d=" M 885 565 L 467 565" stroke-miterlimit="10" stroke-dasharray="3"/></g><g><path fill="none" stroke="#000000" paint-order="fill stroke markers" d=" M 477.16267485762415 560.790482243984 L 467 565 L 477.16267485762415 569.209517756016" stroke-miterlimit="10" stroke-dasharray=""/></g><g><rect fill="#ffffff" stroke="none" x="633" y="559" width="81.64990234375" height="13" transform="matrix(1 0 0 1 2 10)"/></g><g><g><path fill="none" stroke="none"/><text fill="#000000" stroke="none" font-family="Arial" font-size="13px" font-style="normal" font-weight="normal" text-decoration="undefined" x="673.824951171875" y="565.5" text-anchor="middle" dominant-baseline="central" transform="matrix(1 0 0 1 2 10)">12 : return OK</text></g></g><g><path fill="none" stroke="#000000" paint-order="fill stroke markers" d=" M 453 602 L 283 602" stroke-miterlimit="10" stroke-dasharray="3"/></g><g><path fill="none" stroke="#000000" paint-order="fill stroke markers" d=" M 293.16267485762415 597.790482243984 L 283 602 L 293.16267485762415 606.209517756016" stroke-miterlimit="10" stroke-dasharray=""/></g><g><rect fill="#ffffff" stroke="none" x="305" y="575" width="121.41162109375" height="13" transform="matrix(1 0 0 1 2 10)"/></g><g><g><path fill="none" stroke="none"/><text fill="#000000" stroke="none" font-family="Arial" font-size="13px" font-style="normal" font-weight="normal" text-decoration="undefined" x="365.705810546875" y="581.5" text-anchor="middle" dominant-baseline="central" transform="matrix(1 0 0 1 2 10)">13 : SettingsInstance</text></g></g><g><path fill="none" stroke="#000000" paint-order="fill stroke markers" d=" M 283 650 L 453 650" stroke-miterlimit="10" stroke-dasharray=""/></g><g><path fill="#000000" stroke="none" paint-order="stroke fill markers" d=" M 442.83732514237585 654.209517756016 L 453 650 L 442.83732514237585 645.790482243984"/></g><g><path fill="none" stroke="#000000" paint-order="fill stroke markers" d=" M 442.83732514237585 654.209517756016 L 453 650 L 442.83732514237585 645.790482243984 L 442.83732514237585 654.209517756016" stroke-miterlimit="10" stroke-dasharray=""/></g><g><rect fill="#ffffff" stroke="none" x="235" y="624" width="263.76416015625" height="13" transform="matrix(1 0 0 1 2 10)"/></g><g><g><path fill="none" stroke="none"/><text fill="#000000" stroke="none" font-family="Arial" font-size="13px" font-style="normal" font-weight="normal" text-decoration="undefined" x="366.882080078125" y="630.5" text-anchor="middle" dominant-baseline="central" transform="matrix(1 0 0 1 2 10)">14 : save_settings_to_disk(updatedSettings)</text></g></g><g><rect fill="#ffffff" stroke="none" x="451" y="640" width="14" height="80" transform="matrix(1 0 0 1 2 10)"/></g><g><path fill="none" stroke="#000000" paint-order="fill stroke markers" d=" M 453 650 L 467 650 L 467 730 L 453 730 L 453 650 Z Z" stroke-miterlimit="10" stroke-dasharray=""/></g><g><path fill="none" stroke="#000000" paint-order="fill stroke markers" d=" M 467 658 L 885 658" stroke-miterlimit="10" stroke-dasharray=""/></g><g><path fill="#000000" stroke="none" paint-order="stroke fill markers" d=" M 874.8373251423759 662.209517756016 L 885 658 L 874.8373251423758 653.790482243984"/></g><g><path fill="none" stroke="#000000" paint-order="fill stroke markers" d=" M 874.8373251423759 662.209517756016 L 885 658 L 874.8373251423758 653.790482243984 L 874.8373251423759 662.209517756016" stroke-miterlimit="10" stroke-dasharray=""/></g><g><rect fill="#ffffff" stroke="none" x="625" y="632" width="98.73779296875" height="13" transform="matrix(1 0 0 1 2 10)"/></g><g><g><path fill="none" stroke="none"/><text fill="#000000" stroke="none" font-family="Arial" font-size="13px" font-style="normal" font-weight="normal" text-decoration="undefined" x="674.368896484375" y="638.5" text-anchor="middle" dominant-baseline="central" transform="matrix(1 0 0 1 2 10)">15 : WriteToDesk</text></g></g><g><rect fill="#ffffff" stroke="none" x="883" y="648" width="14" height="28" transform="matrix(1 0 0 1 2 10)"/></g><g><path fill="none" stroke="#000000" paint-order="fill stroke markers" d=" M 885 658 L 899 658 L 899 686 L 885 686 L 885 658 Z Z" stroke-miterlimit="10" stroke-dasharray=""/></g><g><path fill="none" stroke="#000000" paint-order="fill stroke markers" d=" M 885 674 L 467 674" stroke-miterlimit="10" stroke-dasharray="3"/></g><g><path fill="none" stroke="#000000" paint-order="fill stroke markers" d=" M 477.16267485762415 669.790482243984 L 467 674 L 477.16267485762415 678.209517756016" stroke-miterlimit="10" stroke-dasharray=""/></g><g><rect fill="#ffffff" stroke="none" x="630" y="668" width="86.708984375" height="13" transform="matrix(1 0 0 1 2 10)"/></g><g><g><path fill="none" stroke="none"/><text fill="#000000" stroke="none" font-family="Arial" font-size="13px" font-style="normal" font-weight="normal" text-decoration="undefined" x="673.3544921875" y="674.5" text-anchor="middle" dominant-baseline="central" transform="matrix(1 0 0 1 2 10)">16 : Return OK</text></g></g><g><path fill="none" stroke="#000000" paint-order="fill stroke markers" d=" M 453 714 L 283 714" stroke-miterlimit="10" stroke-dasharray="3"/></g><g><path fill="none" stroke="#000000" paint-order="fill stroke markers" d=" M 293.16267485762415 709.790482243984 L 283 714 L 293.16267485762415 718.209517756016" stroke-miterlimit="10" stroke-dasharray=""/></g><g><rect fill="#ffffff" stroke="none" x="322" y="708" width="86.708984375" height="13" transform="matrix(1 0 0 1 2 10)"/></g><g><g><path fill="none" stroke="none"/><text fill="#000000" stroke="none" font-family="Arial" font-size="13px" font-style="normal" font-weight="normal" text-decoration="undefined" x="365.3544921875" y="714.5" text-anchor="middle" dominant-baseline="central" transform="matrix(1 0 0 1 2 10)">17 : Return OK</text></g></g><g><path fill="none" stroke="#000000" paint-order="fill stroke markers" d=" M 269 730 L 93 730" stroke-miterlimit="10" stroke-dasharray="3"/></g><g><path fill="none" stroke="#000000" paint-order="fill stroke markers" d=" M 103.16267485762415 725.790482243984 L 93 730 L 103.16267485762415 734.209517756016" stroke-miterlimit="10" stroke-dasharray=""/></g><g><rect fill="#ffffff" stroke="none" x="135" y="724" width="86.708984375" height="13" transform="matrix(1 0 0 1 2 10)"/></g><g><g><path fill="none" stroke="none"/><text fill="#000000" stroke="none" font-family="Arial" font-size="13px" font-style="normal" font-weight="normal" text-decoration="undefined" x="178.3544921875" y="730.5" text-anchor="middle" dominant-baseline="central" transform="matrix(1 0 0 1 2 10)">18 : Return OK</text></g></g><g><path fill="none" stroke="#000000" paint-order="fill stroke markers" d=" M 250 426 L 930 426 L 930 581 L 250 581 L 250 426" stroke-miterlimit="10" stroke-dasharray=""/></g><g><path fill="#FFFFD8" stroke="none" paint-order="stroke fill markers" d=" M 250 426 L 250 449 L 375.1162109375 449 L 386.6162109375 437.5 L 386.6162109375 426 L 250 426"/></g><g><path fill="none" stroke="#000000" paint-order="fill stroke markers" d=" M 250 426 L 250 449 L 375.1162109375 449 L 386.6162109375 437.5 L 386.6162109375 426 L 250 426 L 250 426" stroke-miterlimit="10" stroke-dasharray=""/></g><g><g><path fill="none" stroke="none"/><text fill="#000000" stroke="none" font-family="Arial" font-size="13px" font-style="normal" font-weight="normal" text-decoration="undefined" x="320.423095703125" y="427.5" text-anchor="middle" dominant-baseline="central" transform="matrix(1 0 0 1 2 10)">SettingPathExist</text></g></g><g><g><path fill="none" stroke="none"/><text fill="#000000" stroke="none" font-family="Arial" font-size="13px" font-style="normal" font-weight="bold" text-decoration="undefined" x="259.864990234375" y="427.5" text-anchor="middle" dominant-baseline="central" transform="matrix(1 0 0 1 2 10)">alt</text></g></g><g><g><path fill="none" stroke="none"/><text fill="#000000" stroke="none" font-family="Arial" font-size="13px" font-style="normal" font-weight="normal" text-decoration="undefined" x="291.844970703125" y="460.5" text-anchor="middle" dominant-baseline="central" transform="matrix(1 0 0 1 2 10)">[FALSE]</text></g></g><g><path fill="none" stroke="#000000" paint-order="fill stroke markers" d=" M 250 538 L 929 538" stroke-miterlimit="10" stroke-dasharray="10,3"/></g><g><g><path fill="none" stroke="none"/><text fill="#000000" stroke="none" font-family="Arial" font-size="13px" font-style="normal" font-weight="normal" text-decoration="undefined" x="289.305908203125" y="549.5" text-anchor="middle" dominant-baseline="central" transform="matrix(1 0 0 1 2 10)">[TRUE]</text></g></g></g></svg>