<svg version="1.1" xmlns="http://www.w3.org/2000/svg" xmlns:xlink="http://www.w3.org/1999/xlink" width="712" height="612"><defs/><g><g><path fill="none" stroke="#000000" paint-order="fill stroke markers" d=" M 10 10 L 702 10 L 702 602 L 10 602 L 10 10" stroke-miterlimit="10" stroke-dasharray=""/></g><g><path fill="#ffffff" stroke="none" paint-order="stroke fill markers" d=" M 10 10 L 10 33 L 127.88623046875 33 L 139.38623046875 21.5 L 139.38623046875 10 L 10 10"/></g><g><path fill="none" stroke="#000000" paint-order="fill stroke markers" d=" M 10 10 L 10 33 L 127.88623046875 33 L 139.38623046875 21.5 L 139.38623046875 10 L 10 10 L 10 10" stroke-miterlimit="10" stroke-dasharray=""/></g><g><g><path fill="none" stroke="none"/><text fill="#000000" stroke="none" font-family="Arial" font-size="13px" font-style="normal" font-weight="normal" text-decoration="undefined" x="76.80810546875" y="43.5" text-anchor="middle" dominant-baseline="central" transform="matrix(1 0 0 1 2 -22)">jsonette::Query</text></g></g><g><g><path fill="none" stroke="none"/><text fill="#000000" stroke="none" font-family="Arial" font-size="13px" font-style="normal" font-weight="bold" text-decoration="undefined" x="19.864990234375" y="43.5" text-anchor="middle" dominant-baseline="central" transform="matrix(1 0 0 1 2 -22)">sd</text></g></g><g><path fill="#ffffff" stroke="none" paint-order="stroke fill markers" d=" M 90.3399520596591 25.299999999999997 C 90.3399520596591 21.82060576 93.21835378184092 19 96.76904296875 19 C 100.31973215565908 19 103.1981338778409 21.82060576 103.1981338778409 25.299999999999997 C 103.1981338778409 28.779394239999995 100.31973215565908 31.6 96.76904296875 31.6 C 93.21835378184092 31.6 90.3399520596591 28.779394239999995 90.3399520596591 25.299999999999997 Z"/></g><g><path fill="none" stroke="#000000" paint-order="fill stroke markers" d=" M 90.3399520596591 25.299999999999997 C 90.3399520596591 21.82060576 93.21835378184092 19 96.76904296875 19 C 100.31973215565908 19 103.1981338778409 21.82060576 103.1981338778409 25.299999999999997 C 103.1981338778409 28.779394239999995 100.31973215565908 31.6 96.76904296875 31.6 C 93.21835378184092 31.6 90.3399520596591 28.779394239999995 90.3399520596591 25.299999999999997 Z" stroke-miterlimit="10" stroke-dasharray=""/></g><g><path fill="none" stroke="#000000" paint-order="fill stroke markers" d=" M 96.76904296875 31.6 L 96.76904296875 44.400000000000006" stroke-miterlimit="10" stroke-dasharray=""/></g><g><path fill="none" stroke="#000000" paint-order="fill stroke markers" d=" M 89.96177024147727 36.4 L 103.57631569602273 36.4" stroke-miterlimit="10" stroke-dasharray=""/></g><g><path fill="none" stroke="#000000" paint-order="fill stroke markers" d=" M 96.76904296875 44.400000000000006 L 87.31449751420455 57" stroke-miterlimit="10" stroke-dasharray=""/></g><g><path fill="none" stroke="#000000" paint-order="fill stroke markers" d=" M 96.76904296875 44.400000000000006 L 106.22358842329545 57" stroke-miterlimit="10" stroke-dasharray=""/></g><g><g><path fill="none" stroke="none"/><text fill="#000000" stroke="none" font-family="Arial" font-size="13px" font-style="normal" font-weight="bold" text-decoration="undefined" x="95.26904296875" y="93.5" text-anchor="middle" dominant-baseline="central" transform="matrix(1 0 0 1 2 -22)">Lifeline1: Developer</text></g></g><g><g><path fill="none" stroke="none"/><text fill="#000000" stroke="none" font-family="Arial" font-size="13px" font-style="normal" font-weight="normal" text-decoration="undefined" x="95.26904296875" y="108.5" text-anchor="middle" dominant-baseline="central" transform="matrix(1 0 0 1 2 -22)">(from Query)</text></g></g><g><path fill="none" stroke="#000000" paint-order="fill stroke markers" d=" M 97.5 99 L 97.5 554" stroke-miterlimit="10" stroke-dasharray="3"/></g><g><rect fill="#ffffff" stroke="none" x="229.51727973090277" y="40" width="34.44444444444446" height="40" transform="matrix(1 0 0 1 2 -22)"/></g><g><path fill="none" stroke="#000000" paint-order="fill stroke markers" d=" M 231.51727973090277 18 L 265.96172417534723 18 L 265.96172417534723 58 L 231.51727973090277 58 L 231.51727973090277 18 Z Z" stroke-miterlimit="10" stroke-dasharray=""/></g><g><rect fill="#ffffff" stroke="none" x="219.51727973090277" y="46" width="20" height="10" transform="matrix(1 0 0 1 2 -22)"/></g><g><path fill="none" stroke="#000000" paint-order="fill stroke markers" d=" M 221.51727973090277 24 L 241.51727973090277 24 L 241.51727973090277 34 L 221.51727973090277 34 L 221.51727973090277 24 Z Z" stroke-miterlimit="10" stroke-dasharray=""/></g><g><rect fill="#ffffff" stroke="none" x="219.51727973090277" y="63" width="20" height="10" transform="matrix(1 0 0 1 2 -22)"/></g><g><path fill="none" stroke="#000000" paint-order="fill stroke markers" d=" M 221.51727973090277 41 L 241.51727973090277 41 L 241.51727973090277 51 L 221.51727973090277 51 L 221.51727973090277 41 Z Z" stroke-miterlimit="10" stroke-dasharray=""/></g><g><g><path fill="none" stroke="none"/><text fill="#000000" stroke="none" font-family="Arial" font-size="13px" font-style="normal" font-weight="bold" text-decoration="undefined" x="242.239501953125" y="93.5" text-anchor="middle" dominant-baseline="central" transform="matrix(1 0 0 1 2 -22)">Lifeline2: macOS</text></g></g><g><g><path fill="none" stroke="none"/><text fill="#000000" stroke="none" font-family="Arial" font-size="13px" font-style="normal" font-weight="normal" text-decoration="undefined" x="242.239501953125" y="108.5" text-anchor="middle" dominant-baseline="central" transform="matrix(1 0 0 1 2 -22)">(from Query)</text></g></g><g><path fill="none" stroke="#000000" paint-order="fill stroke markers" d=" M 244.5 99 L 244.5 568" stroke-miterlimit="10" stroke-dasharray="3"/></g><g><rect fill="#ffffff" stroke="none" x="532.7841254340278" y="40" width="34.44444444444446" height="40" transform="matrix(1 0 0 1 2 -22)"/></g><g><path fill="none" stroke="#000000" paint-order="fill stroke markers" d=" M 534.7841254340278 18 L 569.2285698784723 18 L 569.2285698784723 58 L 534.7841254340278 58 L 534.7841254340278 18 Z Z" stroke-miterlimit="10" stroke-dasharray=""/></g><g><rect fill="#ffffff" stroke="none" x="522.7841254340278" y="46" width="20" height="10" transform="matrix(1 0 0 1 2 -22)"/></g><g><path fill="none" stroke="#000000" paint-order="fill stroke markers" d=" M 524.7841254340278 24 L 544.7841254340278 24 L 544.7841254340278 34 L 524.7841254340278 34 L 524.7841254340278 24 Z Z" stroke-miterlimit="10" stroke-dasharray=""/></g><g><rect fill="#ffffff" stroke="none" x="522.7841254340278" y="63" width="20" height="10" transform="matrix(1 0 0 1 2 -22)"/></g><g><path fill="none" stroke="#000000" paint-order="fill stroke markers" d=" M 524.7841254340278 41 L 544.7841254340278 41 L 544.7841254340278 51 L 524.7841254340278 51 L 524.7841254340278 41 Z Z" stroke-miterlimit="10" stroke-dasharray=""/></g><g><g><path fill="none" stroke="none"/><text fill="#000000" stroke="none" font-family="Arial" font-size="13px" font-style="normal" font-weight="bold" text-decoration="undefined" x="545.50634765625" y="93.5" text-anchor="middle" dominant-baseline="central" transform="matrix(1 0 0 1 2 -22)">Lifeline3: Engine</text></g></g><g><g><path fill="none" stroke="none"/><text fill="#000000" stroke="none" font-family="Arial" font-size="13px" font-style="normal" font-weight="normal" text-decoration="undefined" x="545.50634765625" y="108.5" text-anchor="middle" dominant-baseline="central" transform="matrix(1 0 0 1 2 -22)">(from Query)</text></g></g><g><path fill="none" stroke="#000000" paint-order="fill stroke markers" d=" M 547.5 99 L 547.5 554" stroke-miterlimit="10" stroke-dasharray="3"/></g><g><path fill="none" stroke="#000000" paint-order="fill stroke markers" d=" M 98 130 L 237 130" stroke-miterlimit="10" stroke-dasharray=""/></g><g><path fill="none" stroke="#000000" paint-order="fill stroke markers" d=" M 226.83732514237585 134.209517756016 L 237 130 L 226.83732514237585 125.790482243984" stroke-miterlimit="10" stroke-dasharray=""/></g><g><rect fill="#ffffff" stroke="none" x="103" y="136" width="125.7216796875" height="13" transform="matrix(1 0 0 1 2 -22)"/></g><g><g><path fill="none" stroke="none"/><text fill="#000000" stroke="none" font-family="Arial" font-size="13px" font-style="normal" font-weight="normal" text-decoration="undefined" x="165.86083984375" y="142.5" text-anchor="middle" dominant-baseline="central" transform="matrix(1 0 0 1 2 -22)">1 : StartsTypingQuery</text></g></g><g><rect fill="#ffffff" stroke="none" x="235" y="152" width="14" height="28" transform="matrix(1 0 0 1 2 -22)"/></g><g><path fill="none" stroke="#000000" paint-order="fill stroke markers" d=" M 237 130 L 251 130 L 251 158 L 237 158 L 237 130 Z Z" stroke-miterlimit="10" stroke-dasharray=""/></g><g><path fill="none" stroke="#000000" paint-order="fill stroke markers" d=" M 245 234 L 540 234" stroke-miterlimit="10" stroke-dasharray=""/></g><g><path fill="#000000" stroke="none" paint-order="stroke fill markers" d=" M 529.8373251423759 238.209517756016 L 540 234 L 529.8373251423758 229.790482243984"/></g><g><path fill="none" stroke="#000000" paint-order="fill stroke markers" d=" M 529.8373251423759 238.209517756016 L 540 234 L 529.8373251423758 229.790482243984 L 529.8373251423759 238.209517756016" stroke-miterlimit="10" stroke-dasharray=""/></g><g><rect fill="#ffffff" stroke="none" x="269" y="240" width="242.06787109375" height="13" transform="matrix(1 0 0 1 2 -22)"/></g><g><g><path fill="none" stroke="none"/><text fill="#000000" stroke="none" font-family="Arial" font-size="13px" font-style="normal" font-weight="normal" text-decoration="undefined" x="390.033935546875" y="246.5" text-anchor="middle" dominant-baseline="central" transform="matrix(1 0 0 1 2 -22)">2 : completions_at(activeNode, typedText)</text></g></g><g><rect fill="#ffffff" stroke="none" x="538" y="256" width="14" height="28" transform="matrix(1 0 0 1 2 -22)"/></g><g><path fill="none" stroke="#000000" paint-order="fill stroke markers" d=" M 540 234 L 554 234 L 554 262 L 540 262 L 540 234 Z Z" stroke-miterlimit="10" stroke-dasharray=""/></g><g><path fill="none" stroke="#000000" paint-order="fill stroke markers" d=" M 540 250 L 245 250" stroke-miterlimit="10" stroke-dasharray="3"/></g><g><path fill="none" stroke="#000000" paint-order="fill stroke markers" d=" M 255.16267485762415 245.790482243984 L 245 250 L 255.16267485762415 254.209517756016" stroke-miterlimit="10" stroke-dasharray=""/></g><g><rect fill="#ffffff" stroke="none" x="327" y="276" width="124.2744140625" height="13" transform="matrix(1 0 0 1 2 -22)"/></g><g><g><path fill="none" stroke="none"/><text fill="#000000" stroke="none" font-family="Arial" font-size="13px" font-style="normal" font-weight="normal" text-decoration="undefined" x="389.13720703125" y="282.5" text-anchor="middle" dominant-baseline="central" transform="matrix(1 0 0 1 2 -22)">3 : ListOfCompletions</text></g></g><g><path fill="none" stroke="#000000" paint-order="fill stroke markers" d=" M 245 314 L 275 314 L 275 334 L 251 334" stroke-miterlimit="10" stroke-dasharray=""/></g><g><path fill="#000000" stroke="none" paint-order="stroke fill markers" d=" M 261.16267485762415 329.790482243984 L 251 334 L 261.16267485762415 338.209517756016"/></g><g><path fill="none" stroke="#000000" paint-order="fill stroke markers" d=" M 261.16267485762415 329.790482243984 L 251 334 L 261.16267485762415 338.209517756016 L 261.16267485762415 329.790482243984" stroke-miterlimit="10" stroke-dasharray=""/></g><g><rect fill="#ffffff" stroke="none" x="179" y="339" width="207.39697265625" height="13" transform="matrix(1 0 0 1 2 -22)"/></g><g><g><path fill="none" stroke="none"/><text fill="#000000" stroke="none" font-family="Arial" font-size="13px" font-style="normal" font-weight="normal" text-decoration="undefined" x="282.698486328125" y="345.5" text-anchor="middle" dominant-baseline="central" transform="matrix(1 0 0 1 2 -22)">4 : RendersNativeCompletionPopup</text></g></g><g><rect fill="#ffffff" stroke="none" x="235" y="356" width="14" height="28" transform="matrix(1 0 0 1 2 -22)"/></g><g><path fill="none" stroke="#000000" paint-order="fill stroke markers" d=" M 237 334 L 251 334 L 251 362 L 237 362 L 237 334 Z Z" stroke-miterlimit="10" stroke-dasharray=""/></g><g><path fill="none" stroke="#000000" paint-order="fill stroke markers" d=" M 98 394 L 237 394" stroke-miterlimit="10" stroke-dasharray=""/></g><g><path fill="none" stroke="#000000" paint-order="fill stroke markers" d=" M 226.83732514237585 398.209517756016 L 237 394 L 226.83732514237585 389.790482243984" stroke-miterlimit="10" stroke-dasharray=""/></g><g><rect fill="#ffffff" stroke="none" x="102" y="400" width="126.45166015625" height="13" transform="matrix(1 0 0 1 2 -22)"/></g><g><g><path fill="none" stroke="none"/><text fill="#000000" stroke="none" font-family="Arial" font-size="13px" font-style="normal" font-weight="normal" text-decoration="undefined" x="165.225830078125" y="406.5" text-anchor="middle" dominant-baseline="central" transform="matrix(1 0 0 1 2 -22)">5 : SelectsCompletion</text></g></g><g><rect fill="#ffffff" stroke="none" x="235" y="416" width="14" height="28" transform="matrix(1 0 0 1 2 -22)"/></g><g><path fill="none" stroke="#000000" paint-order="fill stroke markers" d=" M 237 394 L 251 394 L 251 422 L 237 422 L 237 394 Z Z" stroke-miterlimit="10" stroke-dasharray=""/></g><g><path fill="none" stroke="#000000" paint-order="fill stroke markers" d=" M 245 442 L 540 442" stroke-miterlimit="10" stroke-dasharray=""/></g><g><path fill="#000000" stroke="none" paint-order="stroke fill markers" d=" M 529.8373251423759 446.209517756016 L 540 442 L 529.8373251423758 437.790482243984"/></g><g><path fill="none" stroke="#000000" paint-order="fill stroke markers" d=" M 529.8373251423759 446.209517756016 L 540 442 L 529.8373251423758 437.790482243984 L 529.8373251423759 446.209517756016" stroke-miterlimit="10" stroke-dasharray=""/></g><g><rect fill="#ffffff" stroke="none" x="274" y="448" width="232.68603515625" height="13" transform="matrix(1 0 0 1 2 -22)"/></g><g><g><path fill="none" stroke="none"/><text fill="#000000" stroke="none" font-family="Arial" font-size="13px" font-style="normal" font-weight="normal" text-decoration="undefined" x="390.343017578125" y="454.5" text-anchor="middle" dominant-baseline="central" transform="matrix(1 0 0 1 2 -22)">6 : evaluate_path(activeNode, fullQuery)</text></g></g><g><rect fill="#ffffff" stroke="none" x="538" y="464" width="14" height="28" transform="matrix(1 0 0 1 2 -22)"/></g><g><path fill="none" stroke="#000000" paint-order="fill stroke markers" d=" M 540 442 L 554 442 L 554 470 L 540 470 L 540 442 Z Z" stroke-miterlimit="10" stroke-dasharray=""/></g><g><path fill="none" stroke="#000000" paint-order="fill stroke markers" d=" M 547 490 L 245 490" stroke-miterlimit="10" stroke-dasharray="3"/></g><g><path fill="none" stroke="#000000" paint-order="fill stroke markers" d=" M 255.16267485762415 485.790482243984 L 245 490 L 255.16267485762415 494.209517756016" stroke-miterlimit="10" stroke-dasharray=""/></g><g><rect fill="#ffffff" stroke="none" x="345" y="516" width="96.814453125" height="13" transform="matrix(1 0 0 1 2 -22)"/></g><g><g><path fill="none" stroke="none"/><text fill="#000000" stroke="none" font-family="Arial" font-size="13px" font-style="normal" font-weight="normal" text-decoration="undefined" x="393.4072265625" y="522.5" text-anchor="middle" dominant-baseline="central" transform="matrix(1 0 0 1 2 -22)">7 : QueryResults</text></g></g><g><path fill="none" stroke="#000000" paint-order="fill stroke markers" d=" M 245 522 L 275 522 L 275 542 L 251 542" stroke-miterlimit="10" stroke-dasharray=""/></g><g><path fill="#000000" stroke="none" paint-order="stroke fill markers" d=" M 261.16267485762415 537.790482243984 L 251 542 L 261.16267485762415 546.209517756016"/></g><g><path fill="none" stroke="#000000" paint-order="fill stroke markers" d=" M 261.16267485762415 537.790482243984 L 251 542 L 261.16267485762415 546.209517756016 L 261.16267485762415 537.790482243984" stroke-miterlimit="10" stroke-dasharray=""/></g><g><rect fill="#ffffff" stroke="none" x="185" y="547" width="195.1015625" height="13" transform="matrix(1 0 0 1 2 -22)"/></g><g><g><path fill="none" stroke="none"/><text fill="#000000" stroke="none" font-family="Arial" font-size="13px" font-style="normal" font-weight="normal" text-decoration="undefined" x="282.55078125" y="553.5" text-anchor="middle" dominant-baseline="central" transform="matrix(1 0 0 1 2 -22)">8 : RendersResultsInResultsPane</text></g></g><g><rect fill="#ffffff" stroke="none" x="235" y="564" width="14" height="28" transform="matrix(1 0 0 1 2 -22)"/></g><g><path fill="none" stroke="#000000" paint-order="fill stroke markers" d=" M 237 542 L 251 542 L 251 570 L 237 570 L 237 542 Z Z" stroke-miterlimit="10" stroke-dasharray=""/></g><g><path fill="none" stroke="#000000" paint-order="fill stroke markers" d=" M 186 162 L 626 162 L 626 370 L 186 370 L 186 162" stroke-miterlimit="10" stroke-dasharray=""/></g><g><path fill="#FFFFD8" stroke="none" paint-order="stroke fill markers" d=" M 186 162 L 186 185 L 347.970703125 185 L 359.470703125 173.5 L 359.470703125 162 L 186 162"/></g><g><path fill="none" stroke="#000000" paint-order="fill stroke markers" d=" M 186 162 L 186 185 L 347.970703125 185 L 359.470703125 173.5 L 359.470703125 162 L 186 162 L 186 162" stroke-miterlimit="10" stroke-dasharray=""/></g><g><g><path fill="none" stroke="none"/><text fill="#000000" stroke="none" font-family="Arial" font-size="13px" font-style="normal" font-weight="normal" text-decoration="undefined" x="280.2744140625" y="195.5" text-anchor="middle" dominant-baseline="central" transform="matrix(1 0 0 1 2 -22)">AsLongAsUserTypes</text></g></g><g><g><path fill="none" stroke="none"/><text fill="#000000" stroke="none" font-family="Arial" font-size="13px" font-style="normal" font-weight="bold" text-decoration="undefined" x="201.2890625" y="195.5" text-anchor="middle" dominant-baseline="central" transform="matrix(1 0 0 1 2 -22)">loop</text></g></g><g><g><path fill="none" stroke="none"/><text fill="#000000" stroke="none" font-family="Arial" font-size="13px" font-style="normal" font-weight="normal" text-decoration="undefined" x="268.30810546875" y="228.5" text-anchor="middle" dominant-baseline="central" transform="matrix(1 0 0 1 2 -22)">[AsLongAsUserTypes]</text></g></g></g></svg>