<svg version="1.1" xmlns="http://www.w3.org/2000/svg" xmlns:xlink="http://www.w3.org/1999/xlink" width="712" height="612"><defs/><g><g><path fill="none" stroke="#000000" paint-order="fill stroke markers" d=" M 10 10 L 702 10 L 702 602 L 10 602 L 10 10" stroke-miterlimit="10" stroke-dasharray=""/></g><g><path fill="#ffffff" stroke="none" paint-order="stroke fill markers" d=" M 10 10 L 10 33 L 75.130859375 33 L 86.630859375 21.5 L 86.630859375 10 L 10 10"/></g><g><path fill="none" stroke="#000000" paint-order="fill stroke markers" d=" M 10 10 L 10 33 L 75.130859375 33 L 86.630859375 21.5 L 86.630859375 10 L 10 10 L 10 10" stroke-miterlimit="10" stroke-dasharray=""/></g><g><g><path fill="none" stroke="none"/><text fill="#000000" stroke="none" font-family="Arial" font-size="13px" font-style="normal" font-weight="normal" text-decoration="undefined" x="50.430419921875" y="19.5" text-anchor="middle" dominant-baseline="central" transform="matrix(1 0 0 1 2 2)">Query</text></g></g><g><g><path fill="none" stroke="none"/><text fill="#000000" stroke="none" font-family="Arial" font-size="13px" font-style="normal" font-weight="bold" text-decoration="undefined" x="19.864990234375" y="19.5" text-anchor="middle" dominant-baseline="central" transform="matrix(1 0 0 1 2 2)">sd</text></g></g><g><path fill="#ffffff" stroke="none" paint-order="stroke fill markers" d=" M 90.3399520596591 49.3 C 90.3399520596591 45.82060576 93.21835378184092 43 96.76904296875 43 C 100.31973215565908 43 103.1981338778409 45.82060576 103.1981338778409 49.3 C 103.1981338778409 52.779394239999995 100.31973215565908 55.6 96.76904296875 55.6 C 93.21835378184092 55.6 90.3399520596591 52.779394239999995 90.3399520596591 49.3 Z"/></g><g><path fill="none" stroke="#000000" paint-order="fill stroke markers" d=" M 90.3399520596591 49.3 C 90.3399520596591 45.82060576 93.21835378184092 43 96.76904296875 43 C 100.31973215565908 43 103.1981338778409 45.82060576 103.1981338778409 49.3 C 103.1981338778409 52.779394239999995 100.31973215565908 55.6 96.76904296875 55.6 C 93.21835378184092 55.6 90.3399520596591 52.779394239999995 90.3399520596591 49.3 Z" stroke-miterlimit="10" stroke-dasharray=""/></g><g><path fill="none" stroke="#000000" paint-order="fill stroke markers" d=" M 96.76904296875 55.6 L 96.76904296875 68.4" stroke-miterlimit="10" stroke-dasharray=""/></g><g><path fill="none" stroke="#000000" paint-order="fill stroke markers" d=" M 89.96177024147727 60.4 L 103.57631569602273 60.4" stroke-miterlimit="10" stroke-dasharray=""/></g><g><path fill="none" stroke="#000000" paint-order="fill stroke markers" d=" M 96.76904296875 68.4 L 87.31449751420455 81" stroke-miterlimit="10" stroke-dasharray=""/></g><g><path fill="none" stroke="#000000" paint-order="fill stroke markers" d=" M 96.76904296875 68.4 L 106.22358842329545 81" stroke-miterlimit="10" stroke-dasharray=""/></g><g><g><path fill="none" stroke="none"/><text fill="#000000" stroke="none" font-family="Arial" font-size="13px" font-style="normal" font-weight="bold" text-decoration="undefined" x="95.26904296875" y="93.5" text-anchor="middle" dominant-baseline="central" transform="matrix(1 0 0 1 2 2)">Lifeline1: Developer</text></g></g><g><path fill="none" stroke="#000000" paint-order="fill stroke markers" d=" M 97.5 108 L 97.5 578" stroke-miterlimit="10" stroke-dasharray="3"/></g><g><rect fill="#ffffff" stroke="none" x="229.51727973090277" y="40" width="34.44444444444446" height="40" transform="matrix(1 0 0 1 2 2)"/></g><g><path fill="none" stroke="#000000" paint-order="fill stroke markers" d=" M 231.51727973090277 42 L 265.96172417534723 42 L 265.96172417534723 82 L 231.51727973090277 82 L 231.51727973090277 42 Z Z" stroke-miterlimit="10" stroke-dasharray=""/></g><g><rect fill="#ffffff" stroke="none" x="219.51727973090277" y="46" width="20" height="10" transform="matrix(1 0 0 1 2 2)"/></g><g><path fill="none" stroke="#000000" paint-order="fill stroke markers" d=" M 221.51727973090277 48 L 241.51727973090277 48 L 241.51727973090277 58 L 221.51727973090277 58 L 221.51727973090277 48 Z Z" stroke-miterlimit="10" stroke-dasharray=""/></g><g><rect fill="#ffffff" stroke="none" x="219.51727973090277" y="63" width="20" height="10" transform="matrix(1 0 0 1 2 2)"/></g><g><path fill="none" stroke="#000000" paint-order="fill stroke markers" d=" M 221.51727973090277 65 L 241.51727973090277 65 L 241.51727973090277 75 L 221.51727973090277 75 L 221.51727973090277 65 Z Z" stroke-miterlimit="10" stroke-dasharray=""/></g><g><g><path fill="none" stroke="none"/><text fill="#000000" stroke="none" font-family="Arial" font-size="13px" font-style="normal" font-weight="bold" text-decoration="undefined" x="242.239501953125" y="93.5" text-anchor="middle" dominant-baseline="central" transform="matrix(1 0 0 1 2 2)">Lifeline2: macOS</text></g></g><g><path fill="none" stroke="#000000" paint-order="fill stroke markers" d=" M 244.5 108 L 244.5 592" stroke-miterlimit="10" stroke-dasharray="3"/></g><g><rect fill="#ffffff" stroke="none" x="532.7841254340278" y="40" width="34.44444444444446" height="40" transform="matrix(1 0 0 1 2 2)"/></g><g><path fill="none" stroke="#000000" paint-order="fill stroke markers" d=" M 534.7841254340278 42 L 569.2285698784723 42 L 569.2285698784723 82 L 534.7841254340278 82 L 534.7841254340278 42 Z Z" stroke-miterlimit="10" stroke-dasharray=""/></g><g><rect fill="#ffffff" stroke="none" x="522.7841254340278" y="46" width="20" height="10" transform="matrix(1 0 0 1 2 2)"/></g><g><path fill="none" stroke="#000000" paint-order="fill stroke markers" d=" M 524.7841254340278 48 L 544.7841254340278 48 L 544.7841254340278 58 L 524.7841254340278 58 L 524.7841254340278 48 Z Z" stroke-miterlimit="10" stroke-dasharray=""/></g><g><rect fill="#ffffff" stroke="none" x="522.7841254340278" y="63" width="20" height="10" transform="matrix(1 0 0 1 2 2)"/></g><g><path fill="none" stroke="#000000" paint-order="fill stroke markers" d=" M 524.7841254340278 65 L 544.7841254340278 65 L 544.7841254340278 75 L 524.7841254340278 75 L 524.7841254340278 65 Z Z" stroke-miterlimit="10" stroke-dasharray=""/></g><g><g><path fill="none" stroke="none"/><text fill="#000000" stroke="none" font-family="Arial" font-size="13px" font-style="normal" font-weight="bold" text-decoration="undefined" x="545.50634765625" y="93.5" text-anchor="middle" dominant-baseline="central" transform="matrix(1 0 0 1 2 2)">Lifeline3: Engine</text></g></g><g><path fill="none" stroke="#000000" paint-order="fill stroke markers" d=" M 547.5 108 L 547.5 578" stroke-miterlimit="10" stroke-dasharray="3"/></g><g><path fill="none" stroke="#000000" paint-order="fill stroke markers" d=" M 98 125 L 237 125" stroke-miterlimit="10" stroke-dasharray=""/></g><g><path fill="none" stroke="#000000" paint-order="fill stroke markers" d=" M 226.83732514237585 129.209517756016 L 237 125 L 226.83732514237585 120.79048224398402" stroke-miterlimit="10" stroke-dasharray=""/></g><g><rect fill="#ffffff" stroke="none" x="103" y="107" width="125.7216796875" height="13" transform="matrix(1 0 0 1 2 2)"/></g><g><g><path fill="none" stroke="none"/><text fill="#000000" stroke="none" font-family="Arial" font-size="13px" font-style="normal" font-weight="normal" text-decoration="undefined" x="165.86083984375" y="113.5" text-anchor="middle" dominant-baseline="central" transform="matrix(1 0 0 1 2 2)">1 : StartsTypingQuery</text></g></g><g><rect fill="#ffffff" stroke="none" x="235" y="123" width="14" height="28" transform="matrix(1 0 0 1 2 2)"/></g><g><path fill="none" stroke="#000000" paint-order="fill stroke markers" d=" M 237 125 L 251 125 L 251 153 L 237 153 L 237 125 Z Z" stroke-miterlimit="10" stroke-dasharray=""/></g><g><path fill="none" stroke="#000000" paint-order="fill stroke markers" d=" M 245 234 L 540 234" stroke-miterlimit="10" stroke-dasharray=""/></g><g><path fill="#000000" stroke="none" paint-order="stroke fill markers" d=" M 529.8373251423759 238.209517756016 L 540 234 L 529.8373251423758 229.790482243984"/></g><g><path fill="none" stroke="#000000" paint-order="fill stroke markers" d=" M 529.8373251423759 238.209517756016 L 540 234 L 529.8373251423758 229.790482243984 L 529.8373251423759 238.209517756016" stroke-miterlimit="10" stroke-dasharray=""/></g><g><rect fill="#ffffff" stroke="none" x="164" y="216" width="453.08935546875" height="13" transform="matrix(1 0 0 1 2 2)"/></g><g><g><path fill="none" stroke="none"/><text fill="#000000" stroke="none" font-family="Arial" font-size="13px" font-style="normal" font-weight="normal" text-decoration="undefined" x="390.544677734375" y="222.5" text-anchor="middle" dominant-baseline="central" transform="matrix(1 0 0 1 2 2)">2 : completions_at(activeNode, typedText)</text></g></g><g><rect fill="#ffffff" stroke="none" x="538" y="232" width="14" height="28" transform="matrix(1 0 0 1 2 2)"/></g><g><path fill="none" stroke="#000000" paint-order="fill stroke markers" d=" M 540 234 L 554 234 L 554 262 L 540 262 L 540 234 Z Z" stroke-miterlimit="10" stroke-dasharray=""/></g><g><path fill="none" stroke="#000000" paint-order="fill stroke markers" d=" M 540 250 L 245 250" stroke-miterlimit="10" stroke-dasharray="3"/></g><g><path fill="none" stroke="#000000" paint-order="fill stroke markers" d=" M 255.16267485762415 245.790482243984 L 245 250 L 255.16267485762415 254.209517756016" stroke-miterlimit="10" stroke-dasharray=""/></g><g><rect fill="#ffffff" stroke="none" x="327" y="252" width="124.2744140625" height="13" transform="matrix(1 0 0 1 2 2)"/></g><g><g><path fill="none" stroke="none"/><text fill="#000000" stroke="none" font-family="Arial" font-size="13px" font-style="normal" font-weight="normal" text-decoration="undefined" x="389.13720703125" y="258.5" text-anchor="middle" dominant-baseline="central" transform="matrix(1 0 0 1 2 2)">3 : ListOfCompletions</text></g></g><g><path fill="none" stroke="#000000" paint-order="fill stroke markers" d=" M 245 314 L 275 314 L 275 334 L 251 334" stroke-miterlimit="10" stroke-dasharray=""/></g><g><path fill="#000000" stroke="none" paint-order="stroke fill markers" d=" M 261.16267485762415 329.790482243984 L 251 334 L 261.16267485762415 338.209517756016"/></g><g><path fill="none" stroke="#000000" paint-order="fill stroke markers" d=" M 261.16267485762415 329.790482243984 L 251 334 L 261.16267485762415 338.209517756016 L 261.16267485762415 329.790482243984" stroke-miterlimit="10" stroke-dasharray=""/></g><g><rect fill="#ffffff" stroke="none" x="179" y="315" width="207.39697265625" height="13" transform="matrix(1 0 0 1 2 2)"/></g><g><g><path fill="none" stroke="none"/><text fill="#000000" stroke="none" font-family="Arial" font-size="13px" font-style="normal" font-weight="normal" text-decoration="undefined" x="282.698486328125" y="321.5" text-anchor="middle" dominant-baseline="central" transform="matrix(1 0 0 1 2 2)">4 : RendersNativeCompletionPopup</text></g></g><g><rect fill="#ffffff" stroke="none" x="235" y="332" width="14" height="28" transform="matrix(1 0 0 1 2 2)"/></g><g><path fill="none" stroke="#000000" paint-order="fill stroke markers" d=" M 237 334 L 251 334 L 251 362 L 237 362 L 237 334 Z Z" stroke-miterlimit="10" stroke-dasharray=""/></g><g><path fill="none" stroke="#000000" paint-order="fill stroke markers" d=" M 98 394 L 237 394" stroke-miterlimit="10" stroke-dasharray=""/></g><g><path fill="none" stroke="#000000" paint-order="fill stroke markers" d=" M 226.83732514237585 398.209517756016 L 237 394 L 226.83732514237585 389.790482243984" stroke-miterlimit="10" stroke-dasharray=""/></g><g><rect fill="#ffffff" stroke="none" x="102" y="376" width="126.45166015625" height="13" transform="matrix(1 0 0 1 2 2)"/></g><g><g><path fill="none" stroke="none"/><text fill="#000000" stroke="none" font-family="Arial" font-size="13px" font-style="normal" font-weight="normal" text-decoration="undefined" x="165.225830078125" y="382.5" text-anchor="middle" dominant-baseline="central" transform="matrix(1 0 0 1 2 2)">5 : SelectsCompletion</text></g></g><g><rect fill="#ffffff" stroke="none" x="235" y="392" width="14" height="28" transform="matrix(1 0 0 1 2 2)"/></g><g><path fill="none" stroke="#000000" paint-order="fill stroke markers" d=" M 237 394 L 251 394 L 251 422 L 237 422 L 237 394 Z Z" stroke-miterlimit="10" stroke-dasharray=""/></g><g><path fill="none" stroke="#000000" paint-order="fill stroke markers" d=" M 245 442 L 540 442" stroke-miterlimit="10" stroke-dasharray=""/></g><g><path fill="#000000" stroke="none" paint-order="stroke fill markers" d=" M 529.8373251423759 446.209517756016 L 540 442 L 529.8373251423758 437.790482243984"/></g><g><path fill="none" stroke="#000000" paint-order="fill stroke markers" d=" M 529.8373251423759 446.209517756016 L 540 442 L 529.8373251423758 437.790482243984 L 529.8373251423759 446.209517756016" stroke-miterlimit="10" stroke-dasharray=""/></g><g><rect fill="#ffffff" stroke="none" x="156" y="424" width="469.0283203125" height="13" transform="matrix(1 0 0 1 2 2)"/></g><g><g><path fill="none" stroke="none"/><text fill="#000000" stroke="none" font-family="Arial" font-size="13px" font-style="normal" font-weight="normal" text-decoration="undefined" x="390.51416015625" y="430.5" text-anchor="middle" dominant-baseline="central" transform="matrix(1 0 0 1 2 2)">6 : evaluate_path(activeNode, fullQuery)</text></g></g><g><rect fill="#ffffff" stroke="none" x="538" y="440" width="14" height="28" transform="matrix(1 0 0 1 2 2)"/></g><g><path fill="none" stroke="#000000" paint-order="fill stroke markers" d=" M 540 442 L 554 442 L 554 470 L 540 470 L 540 442 Z Z" stroke-miterlimit="10" stroke-dasharray=""/></g><g><path fill="none" stroke="#000000" paint-order="fill stroke markers" d=" M 547 490 L 245 490" stroke-miterlimit="10" stroke-dasharray="3"/></g><g><path fill="none" stroke="#000000" paint-order="fill stroke markers" d=" M 255.16267485762415 485.790482243984 L 245 490 L 255.16267485762415 494.209517756016" stroke-miterlimit="10" stroke-dasharray=""/></g><g><rect fill="#ffffff" stroke="none" x="345" y="492" width="96.814453125" height="13" transform="matrix(1 0 0 1 2 2)"/></g><g><g><path fill="none" stroke="none"/><text fill="#000000" stroke="none" font-family="Arial" font-size="13px" font-style="normal" font-weight="normal" text-decoration="undefined" x="393.4072265625" y="498.5" text-anchor="middle" dominant-baseline="central" transform="matrix(1 0 0 1 2 2)">7 : QueryResults</text></g></g><g><path fill="none" stroke="#000000" paint-order="fill stroke markers" d=" M 245 522 L 275 522 L 275 542 L 251 542" stroke-miterlimit="10" stroke-dasharray=""/></g><g><path fill="#000000" stroke="none" paint-order="stroke fill markers" d=" M 261.16267485762415 537.790482243984 L 251 542 L 261.16267485762415 546.209517756016"/></g><g><path fill="none" stroke="#000000" paint-order="fill stroke markers" d=" M 261.16267485762415 537.790482243984 L 251 542 L 261.16267485762415 546.209517756016 L 261.16267485762415 537.790482243984" stroke-miterlimit="10" stroke-dasharray=""/></g><g><rect fill="#ffffff" stroke="none" x="185" y="523" width="195.1015625" height="13" transform="matrix(1 0 0 1 2 2)"/></g><g><g><path fill="none" stroke="none"/><text fill="#000000" stroke="none" font-family="Arial" font-size="13px" font-style="normal" font-weight="normal" text-decoration="undefined" x="282.55078125" y="529.5" text-anchor="middle" dominant-baseline="central" transform="matrix(1 0 0 1 2 2)">8 : RendersResultsInResultsPane</text></g></g><g><rect fill="#ffffff" stroke="none" x="235" y="540" width="14" height="28" transform="matrix(1 0 0 1 2 2)"/></g><g><path fill="none" stroke="#000000" paint-order="fill stroke markers" d=" M 237 542 L 251 542 L 251 570 L 237 570 L 237 542 Z Z" stroke-miterlimit="10" stroke-dasharray=""/></g><g><path fill="none" stroke="#000000" paint-order="fill stroke markers" d=" M 186 162 L 626 162 L 626 370 L 186 370 L 186 162" stroke-miterlimit="10" stroke-dasharray=""/></g><g><path fill="#FFFFD8" stroke="none" paint-order="stroke fill markers" d=" M 186 162 L 186 185 L 347.970703125 185 L 359.470703125 173.5 L 359.470703125 162 L 186 162"/></g><g><path fill="none" stroke="#000000" paint-order="fill stroke markers" d=" M 186 162 L 186 185 L 347.970703125 185 L 359.470703125 173.5 L 359.470703125 162 L 186 162 L 186 162" stroke-miterlimit="10" stroke-dasharray=""/></g><g><g><path fill="none" stroke="none"/><text fill="#000000" stroke="none" font-family="Arial" font-size="13px" font-style="normal" font-weight="normal" text-decoration="undefined" x="280.2744140625" y="171.5" text-anchor="middle" dominant-baseline="central" transform="matrix(1 0 0 1 2 2)">AsLongAsUserTypes</text></g></g><g><g><path fill="none" stroke="none"/><text fill="#000000" stroke="none" font-family="Arial" font-size="13px" font-style="normal" font-weight="bold" text-decoration="undefined" x="201.2890625" y="171.5" text-anchor="middle" dominant-baseline="central" transform="matrix(1 0 0 1 2 2)">loop</text></g></g><g><g><path fill="none" stroke="none"/><text fill="#000000" stroke="none" font-family="Arial" font-size="13px" font-style="normal" font-weight="normal" text-decoration="undefined" x="268.30810546875" y="204.5" text-anchor="middle" dominant-baseline="central" transform="matrix(1 0 0 1 2 2)">[AsLongAsUserTypes]</text></g></g></g></svg>