<svg version="1.1" xmlns="http://www.w3.org/2000/svg" xmlns:xlink="http://www.w3.org/1999/xlink" width="946.89404296875" height="821"><defs/><g><g><rect fill="#C0C0C0" stroke="none" x="175" y="79" width="424" height="206" transform="matrix(1 0 0 1 -29 -62)" fill-opacity="0.2"/></g><g><rect fill="#ffffff" stroke="none" x="168" y="72" width="424" height="206" transform="matrix(1 0 0 1 -29 -62)"/></g><g><path fill="none" stroke="#000000" paint-order="fill stroke markers" d=" M 139 10 L 563 10 L 563 216 L 139 216 L 139 10 Z Z" stroke-miterlimit="10" stroke-dasharray=""/></g><g><path fill="none" stroke="#000000" paint-order="fill stroke markers" d=" M 139 50 L 563 50" stroke-miterlimit="10" stroke-dasharray=""/></g><g><path fill="none" stroke="#000000" paint-order="fill stroke markers" d=" M 139 88 L 563 88" stroke-miterlimit="10" stroke-dasharray=""/></g><g><g><path fill="none" stroke="none"/><text fill="#000000" stroke="none" font-family="Arial" font-size="13px" font-style="normal" font-weight="bold" text-decoration="undefined" x="380.5" y="85.5" text-anchor="middle" dominant-baseline="central" transform="matrix(1 0 0 1 -29 -62)">Settings</text></g></g><g><g><path fill="none" stroke="none"/><text fill="#000000" stroke="none" font-family="Arial" font-size="13px" font-style="normal" font-weight="normal" text-decoration="undefined" x="380.5" y="100.5" text-anchor="middle" dominant-baseline="central" transform="matrix(1 0 0 1 -29 -62)">(from Settings)</text></g></g><g><g><path fill="none" stroke="none"/><text fill="#000000" stroke="none" font-family="Arial" font-size="13px" font-style="normal" font-weight="normal" text-decoration="undefined" x="173" y="123.5" text-anchor="start" dominant-baseline="central" transform="matrix(1 0 0 1 -29 -62)">-instance: Settings</text><path fill="none" stroke="#000000" paint-order="fill stroke markers" d=" M 144 68 L 250.9453125 68" stroke-miterlimit="10" stroke-dasharray=""/></g></g><g><g><path fill="none" stroke="none"/><text fill="#000000" stroke="none" font-family="Arial" font-size="13px" font-style="normal" font-weight="normal" text-decoration="undefined" x="173" y="138.5" text-anchor="start" dominant-baseline="central" transform="matrix(1 0 0 1 -29 -62)">-settings: FormatOptions</text></g></g><g><g><path fill="none" stroke="none"/><text fill="#000000" stroke="none" font-family="Arial" font-size="13px" font-style="normal" font-weight="normal" text-decoration="undefined" x="173" y="161.5" text-anchor="start" dominant-baseline="central" transform="matrix(1 0 0 1 -29 -62)">+get_settings(): Settings</text><path fill="none" stroke="#000000" paint-order="fill stroke markers" d=" M 144 106 L 284.5498046875 106" stroke-miterlimit="10" stroke-dasharray=""/></g></g><g><g><path fill="none" stroke="none"/><text fill="#000000" stroke="none" font-family="Arial" font-size="13px" font-style="normal" font-weight="normal" text-decoration="undefined" x="173" y="176.5" text-anchor="start" dominant-baseline="central" transform="matrix(1 0 0 1 -29 -62)">-load_settings_from_disk(): AppSettings</text></g></g><g><g><path fill="none" stroke="none"/><text fill="#000000" stroke="none" font-family="Arial" font-size="13px" font-style="normal" font-weight="normal" text-decoration="undefined" x="173" y="191.5" text-anchor="start" dominant-baseline="central" transform="matrix(1 0 0 1 -29 -62)">-save_settings_to_disk(opts: AppSettings)</text></g></g><g><g><path fill="none" stroke="none"/><text fill="#000000" stroke="none" font-family="Arial" font-size="13px" font-style="normal" font-weight="normal" text-decoration="undefined" x="173" y="206.5" text-anchor="start" dominant-baseline="central" transform="matrix(1 0 0 1 -29 -62)">-get_settings_path(): Path</text></g></g><g><g><path fill="none" stroke="none"/><text fill="#000000" stroke="none" font-family="Arial" font-size="13px" font-style="normal" font-weight="normal" text-decoration="undefined" x="173" y="221.5" text-anchor="start" dominant-baseline="central" transform="matrix(1 0 0 1 -29 -62)">-get_home_dir(): Path</text></g></g><g><g><path fill="none" stroke="none"/><text fill="#000000" stroke="none" font-family="Arial" font-size="13px" font-style="normal" font-weight="normal" text-decoration="undefined" x="173" y="236.5" text-anchor="start" dominant-baseline="central" transform="matrix(1 0 0 1 -29 -62)">-get_settings_lock(): Lock&lt;AppSettings&gt;</text></g></g><g><path fill="#FFFFD8" stroke="none" paint-order="stroke fill markers" d=" M 635 10 L 768 10 L 778 20 L 778 92 L 635 92 L 635 10"/></g><g><path fill="none" stroke="#000000" paint-order="fill stroke markers" d=" M 635 10 L 768 10 L 778 20 L 778 92 L 635 92 L 635 10 L 635 10" stroke-miterlimit="10" stroke-dasharray=""/></g><g><path fill="none" stroke="#000000" paint-order="fill stroke markers" d=" M 768 10 L 768 20 L 778 20 L 768 10" stroke-miterlimit="10" stroke-dasharray=""/></g><g><g><path fill="none" stroke="none"/><text fill="#000000" stroke="none" font-family="Arial" font-size="13px" font-style="normal" font-weight="normal" text-decoration="undefined" x="669" y="77" text-anchor="start" dominant-baseline="text-before-edge" transform="matrix(1 0 0 1 -29 -62)">if (instance == null) {</text></g></g><g><g><path fill="none" stroke="none"/><text fill="#000000" stroke="none" font-family="Arial" font-size="13px" font-style="normal" font-weight="normal" text-decoration="undefined" x="669" y="92" text-anchor="start" dominant-baseline="text-before-edge" transform="matrix(1 0 0 1 -29 -62)">    instance = Settings()</text></g></g><g><g><path fill="none" stroke="none"/><text fill="#000000" stroke="none" font-family="Arial" font-size="13px" font-style="normal" font-weight="normal" text-decoration="undefined" x="669" y="107" text-anchor="start" dominant-baseline="text-before-edge" transform="matrix(1 0 0 1 -29 -62)">}</text></g></g><g><g><path fill="none" stroke="none"/><text fill="#000000" stroke="none" font-family="Arial" font-size="13px" font-style="normal" font-weight="normal" text-decoration="undefined" x="669" y="122" text-anchor="start" dominant-baseline="text-before-edge" transform="matrix(1 0 0 1 -29 -62)">return instance</text></g></g><g><path fill="none" stroke="#000000" paint-order="fill stroke markers" d=" M 635 50 L 563 50" stroke-miterlimit="10" stroke-dasharray="3"/></g><g><rect fill="#C0C0C0" stroke="none" x="671" y="175" width="300.89404296875" height="166" transform="matrix(1 0 0 1 -29 -62)" fill-opacity="0.2"/></g><g><rect fill="#ffffff" stroke="none" x="664" y="168" width="300.89404296875" height="166" transform="matrix(1 0 0 1 -29 -62)"/></g><g><path fill="none" stroke="#000000" paint-order="fill stroke markers" d=" M 635 106 L 935.89404296875 106 L 935.89404296875 272 L 635 272 L 635 106 Z Z" stroke-miterlimit="10" stroke-dasharray=""/></g><g><path fill="none" stroke="#000000" paint-order="fill stroke markers" d=" M 635 159 L 935.89404296875 159" stroke-miterlimit="10" stroke-dasharray=""/></g><g><g><path fill="none" stroke="none"/><text fill="#000000" stroke="none" font-family="Arial" font-size="13px" font-style="normal" font-weight="normal" text-decoration="undefined" x="814.947021484375" y="179.5" text-anchor="middle" dominant-baseline="central" transform="matrix(1 0 0 1 -29 -62)">«enumeration»</text></g></g><g><g><path fill="none" stroke="none"/><text fill="#000000" stroke="none" font-family="Arial" font-size="13px" font-style="normal" font-weight="bold" text-decoration="undefined" x="814.947021484375" y="194.5" text-anchor="middle" dominant-baseline="central" transform="matrix(1 0 0 1 -29 -62)">SettingsErrors</text></g></g><g><g><path fill="none" stroke="none"/><text fill="#000000" stroke="none" font-family="Arial" font-size="13px" font-style="normal" font-weight="normal" text-decoration="undefined" x="814.947021484375" y="209.5" text-anchor="middle" dominant-baseline="central" transform="matrix(1 0 0 1 -29 -62)">(from Settings)</text></g></g><g><g><path fill="none" stroke="none"/><text fill="#000000" stroke="none" font-family="Arial" font-size="13px" font-style="normal" font-weight="normal" text-decoration="undefined" x="669" y="232.5" text-anchor="start" dominant-baseline="central" transform="matrix(1 0 0 1 -29 -62)">LOCATE_HOME_DIR</text></g></g><g><g><path fill="none" stroke="none"/><text fill="#000000" stroke="none" font-family="Arial" font-size="13px" font-style="normal" font-weight="normal" text-decoration="undefined" x="669" y="247.5" text-anchor="start" dominant-baseline="central" transform="matrix(1 0 0 1 -29 -62)">READ_SETTINGS_FILE</text></g></g><g><g><path fill="none" stroke="none"/><text fill="#000000" stroke="none" font-family="Arial" font-size="13px" font-style="normal" font-weight="normal" text-decoration="undefined" x="669" y="262.5" text-anchor="start" dominant-baseline="central" transform="matrix(1 0 0 1 -29 -62)">WRITE_SETTINGS_FILE</text></g></g><g><g><path fill="none" stroke="none"/><text fill="#000000" stroke="none" font-family="Arial" font-size="13px" font-style="normal" font-weight="normal" text-decoration="undefined" x="669" y="277.5" text-anchor="start" dominant-baseline="central" transform="matrix(1 0 0 1 -29 -62)">PARSE_SETTINGS_JSON</text></g></g><g><g><path fill="none" stroke="none"/><text fill="#000000" stroke="none" font-family="Arial" font-size="13px" font-style="normal" font-weight="normal" text-decoration="undefined" x="669" y="292.5" text-anchor="start" dominant-baseline="central" transform="matrix(1 0 0 1 -29 -62)">AQUIRE_SETTINGS_WRITE_LOCK</text></g></g><g><g><path fill="none" stroke="none"/><text fill="#000000" stroke="none" font-family="Arial" font-size="13px" font-style="normal" font-weight="normal" text-decoration="undefined" x="669" y="307.5" text-anchor="start" dominant-baseline="central" transform="matrix(1 0 0 1 -29 -62)">AQUIRE_SETTINGS_READ_LOCK</text></g></g><g><g><path fill="none" stroke="none"/><text fill="#000000" stroke="none" font-family="Arial" font-size="13px" font-style="normal" font-weight="normal" text-decoration="undefined" x="669" y="322.5" text-anchor="start" dominant-baseline="central" transform="matrix(1 0 0 1 -29 -62)">SERIALIZE_SETTINGS</text></g></g><g><path fill="none" stroke="#000000" paint-order="fill stroke markers" d=" M 635 152 L 563 152" stroke-miterlimit="10" stroke-dasharray=""/></g><g><path fill="#000000" stroke="none" paint-order="stroke fill markers" d=" M 573.1626748576241 147.790482243984 L 563 152 L 573.1626748576241 156.209517756016 L 585 152"/></g><g><path fill="none" stroke="#000000" paint-order="fill stroke markers" d=" M 573.1626748576241 147.790482243984 L 563 152 L 573.1626748576241 156.209517756016 L 585 152 L 573.1626748576241 147.790482243984" stroke-miterlimit="10" stroke-dasharray=""/></g><g><rect fill="#C0C0C0" stroke="none" x="47" y="566" width="241.98779296875" height="166" transform="matrix(1 0 0 1 -29 -62)" fill-opacity="0.2"/></g><g><rect fill="#ffffff" stroke="none" x="40" y="559" width="241.98779296875" height="166" transform="matrix(1 0 0 1 -29 -62)"/></g><g><path fill="none" stroke="#000000" paint-order="fill stroke markers" d=" M 11 497 L 252.98779296875 497 L 252.98779296875 663 L 11 663 L 11 497 Z Z" stroke-miterlimit="10" stroke-dasharray=""/></g><g><path fill="none" stroke="#000000" paint-order="fill stroke markers" d=" M 11 550 L 252.98779296875 550" stroke-miterlimit="10" stroke-dasharray=""/></g><g><g><path fill="none" stroke="none"/><text fill="#000000" stroke="none" font-family="Arial" font-size="13px" font-style="normal" font-weight="normal" text-decoration="undefined" x="161.493896484375" y="570.5" text-anchor="middle" dominant-baseline="central" transform="matrix(1 0 0 1 -29 -62)">«dataType»</text></g></g><g><g><path fill="none" stroke="none"/><text fill="#000000" stroke="none" font-family="Arial" font-size="13px" font-style="normal" font-weight="bold" text-decoration="undefined" x="161.493896484375" y="585.5" text-anchor="middle" dominant-baseline="central" transform="matrix(1 0 0 1 -29 -62)">FormatOptions</text></g></g><g><g><path fill="none" stroke="none"/><text fill="#000000" stroke="none" font-family="Arial" font-size="13px" font-style="normal" font-weight="normal" text-decoration="undefined" x="161.493896484375" y="600.5" text-anchor="middle" dominant-baseline="central" transform="matrix(1 0 0 1 -29 -62)">(from types)</text></g></g><g><g><path fill="none" stroke="none"/><text fill="#000000" stroke="none" font-family="Arial" font-size="13px" font-style="normal" font-weight="normal" text-decoration="undefined" x="45" y="623.5" text-anchor="start" dominant-baseline="central" transform="matrix(1 0 0 1 -29 -62)">+use_tabs: bool = false</text></g></g><g><g><path fill="none" stroke="none"/><text fill="#000000" stroke="none" font-family="Arial" font-size="13px" font-style="normal" font-weight="normal" text-decoration="undefined" x="45" y="638.5" text-anchor="start" dominant-baseline="central" transform="matrix(1 0 0 1 -29 -62)">+indent: u8 = 2</text></g></g><g><g><path fill="none" stroke="none"/><text fill="#000000" stroke="none" font-family="Arial" font-size="13px" font-style="normal" font-weight="normal" text-decoration="undefined" x="45" y="653.5" text-anchor="start" dominant-baseline="central" transform="matrix(1 0 0 1 -29 -62)">+line_ending: LineEnding = LF</text></g></g><g><g><path fill="none" stroke="none"/><text fill="#000000" stroke="none" font-family="Arial" font-size="13px" font-style="normal" font-weight="normal" text-decoration="undefined" x="45" y="668.5" text-anchor="start" dominant-baseline="central" transform="matrix(1 0 0 1 -29 -62)">+folding_style: FoldingStyle = Expanded</text></g></g><g><g><path fill="none" stroke="none"/><text fill="#000000" stroke="none" font-family="Arial" font-size="13px" font-style="normal" font-weight="normal" text-decoration="undefined" x="45" y="683.5" text-anchor="start" dominant-baseline="central" transform="matrix(1 0 0 1 -29 -62)">+sort_keys: bool = false</text></g></g><g><g><path fill="none" stroke="none"/><text fill="#000000" stroke="none" font-family="Arial" font-size="13px" font-style="normal" font-weight="normal" text-decoration="undefined" x="45" y="698.5" text-anchor="start" dominant-baseline="central" transform="matrix(1 0 0 1 -29 -62)">+space_after_colon: bool = true</text></g></g><g><g><path fill="none" stroke="none"/><text fill="#000000" stroke="none" font-family="Arial" font-size="13px" font-style="normal" font-weight="normal" text-decoration="undefined" x="45" y="713.5" text-anchor="start" dominant-baseline="central" transform="matrix(1 0 0 1 -29 -62)">+space_after_comma: bool = true</text></g></g><g><rect fill="#C0C0C0" stroke="none" x="46" y="774" width="96.72802734375" height="91" transform="matrix(1 0 0 1 -29 -62)" fill-opacity="0.2"/></g><g><rect fill="#ffffff" stroke="none" x="39" y="767" width="96.72802734375" height="91" transform="matrix(1 0 0 1 -29 -62)"/></g><g><path fill="none" stroke="#000000" paint-order="fill stroke markers" d=" M 10 705 L 106.72802734375 705 L 106.72802734375 796 L 10 796 L 10 705 Z Z" stroke-miterlimit="10" stroke-dasharray=""/></g><g><path fill="none" stroke="#000000" paint-order="fill stroke markers" d=" M 10 758 L 106.72802734375 758" stroke-miterlimit="10" stroke-dasharray=""/></g><g><g><path fill="none" stroke="none"/><text fill="#000000" stroke="none" font-family="Arial" font-size="13px" font-style="normal" font-weight="normal" text-decoration="undefined" x="87.864013671875" y="778.5" text-anchor="middle" dominant-baseline="central" transform="matrix(1 0 0 1 -29 -62)">«enumeration»</text></g></g><g><g><path fill="none" stroke="none"/><text fill="#000000" stroke="none" font-family="Arial" font-size="13px" font-style="normal" font-weight="bold" text-decoration="undefined" x="87.864013671875" y="793.5" text-anchor="middle" dominant-baseline="central" transform="matrix(1 0 0 1 -29 -62)">LineEnding</text></g></g><g><g><path fill="none" stroke="none"/><text fill="#000000" stroke="none" font-family="Arial" font-size="13px" font-style="normal" font-weight="normal" text-decoration="undefined" x="87.864013671875" y="808.5" text-anchor="middle" dominant-baseline="central" transform="matrix(1 0 0 1 -29 -62)">(from types)</text></g></g><g><g><path fill="none" stroke="none"/><text fill="#000000" stroke="none" font-family="Arial" font-size="13px" font-style="normal" font-weight="normal" text-decoration="undefined" x="44" y="831.5" text-anchor="start" dominant-baseline="central" transform="matrix(1 0 0 1 -29 -62)">LF</text></g></g><g><g><path fill="none" stroke="none"/><text fill="#000000" stroke="none" font-family="Arial" font-size="13px" font-style="normal" font-weight="normal" text-decoration="undefined" x="44" y="846.5" text-anchor="start" dominant-baseline="central" transform="matrix(1 0 0 1 -29 -62)">CRLF</text></g></g><g><rect fill="#C0C0C0" stroke="none" x="174" y="774" width="100.9873046875" height="91" transform="matrix(1 0 0 1 -29 -62)" fill-opacity="0.2"/></g><g><rect fill="#ffffff" stroke="none" x="167" y="767" width="100.9873046875" height="91" transform="matrix(1 0 0 1 -29 -62)"/></g><g><path fill="none" stroke="#000000" paint-order="fill stroke markers" d=" M 138 705 L 238.9873046875 705 L 238.9873046875 796 L 138 796 L 138 705 Z Z" stroke-miterlimit="10" stroke-dasharray=""/></g><g><path fill="none" stroke="#000000" paint-order="fill stroke markers" d=" M 138 758 L 238.9873046875 758" stroke-miterlimit="10" stroke-dasharray=""/></g><g><g><path fill="none" stroke="none"/><text fill="#000000" stroke="none" font-family="Arial" font-size="13px" font-style="normal" font-weight="normal" text-decoration="undefined" x="217.99365234375" y="778.5" text-anchor="middle" dominant-baseline="central" transform="matrix(1 0 0 1 -29 -62)">«enumeration»</text></g></g><g><g><path fill="none" stroke="none"/><text fill="#000000" stroke="none" font-family="Arial" font-size="13px" font-style="normal" font-weight="bold" text-decoration="undefined" x="217.99365234375" y="793.5" text-anchor="middle" dominant-baseline="central" transform="matrix(1 0 0 1 -29 -62)">FoldingStyle</text></g></g><g><g><path fill="none" stroke="none"/><text fill="#000000" stroke="none" font-family="Arial" font-size="13px" font-style="normal" font-weight="normal" text-decoration="undefined" x="217.99365234375" y="808.5" text-anchor="middle" dominant-baseline="central" transform="matrix(1 0 0 1 -29 -62)">(from types)</text></g></g><g><g><path fill="none" stroke="none"/><text fill="#000000" stroke="none" font-family="Arial" font-size="13px" font-style="normal" font-weight="normal" text-decoration="undefined" x="172" y="831.5" text-anchor="start" dominant-baseline="central" transform="matrix(1 0 0 1 -29 -62)">Expanded</text></g></g><g><g><path fill="none" stroke="none"/><text fill="#000000" stroke="none" font-family="Arial" font-size="13px" font-style="normal" font-weight="normal" text-decoration="undefined" x="172" y="846.5" text-anchor="start" dominant-baseline="central" transform="matrix(1 0 0 1 -29 -62)">Compact</text></g></g><g><path fill="none" stroke="#000000" paint-order="fill stroke markers" d=" M 186 705 L 186 663" stroke-miterlimit="10" stroke-dasharray=""/></g><g><path fill="#000000" stroke="none" paint-order="stroke fill markers" d=" M 190.209517756016 673.1626748576241 L 186 663 L 181.790482243984 673.1626748576241 L 186 685"/></g><g><path fill="none" stroke="#000000" paint-order="fill stroke markers" d=" M 190.209517756016 673.1626748576241 L 186 663 L 181.790482243984 673.1626748576241 L 186 685 L 190.209517756016 673.1626748576241" stroke-miterlimit="10" stroke-dasharray=""/></g><g><path fill="none" stroke="#000000" paint-order="fill stroke markers" d=" M 66 705 L 66 663" stroke-miterlimit="10" stroke-dasharray=""/></g><g><path fill="#000000" stroke="none" paint-order="stroke fill markers" d=" M 70.20951775601598 673.1626748576241 L 66 663 L 61.790482243984016 673.1626748576241 L 66 685"/></g><g><path fill="none" stroke="#000000" paint-order="fill stroke markers" d=" M 70.20951775601598 673.1626748576241 L 66 663 L 61.790482243984016 673.1626748576241 L 66 685 L 70.20951775601598 673.1626748576241" stroke-miterlimit="10" stroke-dasharray=""/></g><g><rect fill="#C0C0C0" stroke="none" x="304" y="566" width="223.1669921875" height="91" transform="matrix(1 0 0 1 -29 -62)" fill-opacity="0.2"/></g><g><rect fill="#ffffff" stroke="none" x="297" y="559" width="223.1669921875" height="91" transform="matrix(1 0 0 1 -29 -62)"/></g><g><path fill="none" stroke="#000000" paint-order="fill stroke markers" d=" M 268 497 L 491.1669921875 497 L 491.1669921875 588 L 268 588 L 268 497 Z Z" stroke-miterlimit="10" stroke-dasharray=""/></g><g><path fill="none" stroke="#000000" paint-order="fill stroke markers" d=" M 268 550 L 491.1669921875 550" stroke-miterlimit="10" stroke-dasharray=""/></g><g><g><path fill="none" stroke="none"/><text fill="#000000" stroke="none" font-family="Arial" font-size="13px" font-style="normal" font-weight="normal" text-decoration="undefined" x="409.08349609375" y="570.5" text-anchor="middle" dominant-baseline="central" transform="matrix(1 0 0 1 -29 -62)">«dataType»</text></g></g><g><g><path fill="none" stroke="none"/><text fill="#000000" stroke="none" font-family="Arial" font-size="13px" font-style="normal" font-weight="bold" text-decoration="undefined" x="409.08349609375" y="585.5" text-anchor="middle" dominant-baseline="central" transform="matrix(1 0 0 1 -29 -62)">ParserOptions</text></g></g><g><g><path fill="none" stroke="none"/><text fill="#000000" stroke="none" font-family="Arial" font-size="13px" font-style="normal" font-weight="normal" text-decoration="undefined" x="409.08349609375" y="600.5" text-anchor="middle" dominant-baseline="central" transform="matrix(1 0 0 1 -29 -62)">(from types)</text></g></g><g><g><path fill="none" stroke="none"/><text fill="#000000" stroke="none" font-family="Arial" font-size="13px" font-style="normal" font-weight="normal" text-decoration="undefined" x="302" y="623.5" text-anchor="start" dominant-baseline="central" transform="matrix(1 0 0 1 -29 -62)">+allow_comments: bool = false</text></g></g><g><g><path fill="none" stroke="none"/><text fill="#000000" stroke="none" font-family="Arial" font-size="13px" font-style="normal" font-weight="normal" text-decoration="undefined" x="302" y="638.5" text-anchor="start" dominant-baseline="central" transform="matrix(1 0 0 1 -29 -62)">+allow_trailing_commas: bool = false</text></g></g><g><rect fill="#C0C0C0" stroke="none" x="542" y="566" width="272.53271484375" height="76" transform="matrix(1 0 0 1 -29 -62)" fill-opacity="0.2"/></g><g><rect fill="#ffffff" stroke="none" x="535" y="559" width="272.53271484375" height="76" transform="matrix(1 0 0 1 -29 -62)"/></g><g><path fill="none" stroke="#000000" paint-order="fill stroke markers" d=" M 506 497 L 778.53271484375 497 L 778.53271484375 573 L 506 573 L 506 497 Z Z" stroke-miterlimit="10" stroke-dasharray=""/></g><g><path fill="none" stroke="#000000" paint-order="fill stroke markers" d=" M 506 550 L 778.53271484375 550" stroke-miterlimit="10" stroke-dasharray=""/></g><g><g><path fill="none" stroke="none"/><text fill="#000000" stroke="none" font-family="Arial" font-size="13px" font-style="normal" font-weight="normal" text-decoration="undefined" x="671.766357421875" y="570.5" text-anchor="middle" dominant-baseline="central" transform="matrix(1 0 0 1 -29 -62)">«dataType»</text></g></g><g><g><path fill="none" stroke="none"/><text fill="#000000" stroke="none" font-family="Arial" font-size="13px" font-style="normal" font-weight="bold" text-decoration="undefined" x="671.766357421875" y="585.5" text-anchor="middle" dominant-baseline="central" transform="matrix(1 0 0 1 -29 -62)">LintOptions</text></g></g><g><g><path fill="none" stroke="none"/><text fill="#000000" stroke="none" font-family="Arial" font-size="13px" font-style="normal" font-weight="normal" text-decoration="undefined" x="671.766357421875" y="600.5" text-anchor="middle" dominant-baseline="central" transform="matrix(1 0 0 1 -29 -62)">(from types)</text></g></g><g><g><path fill="none" stroke="none"/><text fill="#000000" stroke="none" font-family="Arial" font-size="13px" font-style="normal" font-weight="normal" text-decoration="undefined" x="540" y="623.5" text-anchor="start" dominant-baseline="central" transform="matrix(1 0 0 1 -29 -62)">+duplicate_keys_severity: Severity = Warning</text></g></g><g><rect fill="#C0C0C0" stroke="none" x="638" y="774" width="96.72802734375" height="106" transform="matrix(1 0 0 1 -29 -62)" fill-opacity="0.2"/></g><g><rect fill="#ffffff" stroke="none" x="631" y="767" width="96.72802734375" height="106" transform="matrix(1 0 0 1 -29 -62)"/></g><g><path fill="none" stroke="#000000" paint-order="fill stroke markers" d=" M 602 705 L 698.72802734375 705 L 698.72802734375 811 L 602 811 L 602 705 Z Z" stroke-miterlimit="10" stroke-dasharray=""/></g><g><path fill="none" stroke="#000000" paint-order="fill stroke markers" d=" M 602 758 L 698.72802734375 758" stroke-miterlimit="10" stroke-dasharray=""/></g><g><g><path fill="none" stroke="none"/><text fill="#000000" stroke="none" font-family="Arial" font-size="13px" font-style="normal" font-weight="normal" text-decoration="undefined" x="679.864013671875" y="778.5" text-anchor="middle" dominant-baseline="central" transform="matrix(1 0 0 1 -29 -62)">«enumeration»</text></g></g><g><g><path fill="none" stroke="none"/><text fill="#000000" stroke="none" font-family="Arial" font-size="13px" font-style="normal" font-weight="bold" text-decoration="undefined" x="679.864013671875" y="793.5" text-anchor="middle" dominant-baseline="central" transform="matrix(1 0 0 1 -29 -62)">Severity</text></g></g><g><g><path fill="none" stroke="none"/><text fill="#000000" stroke="none" font-family="Arial" font-size="13px" font-style="normal" font-weight="normal" text-decoration="undefined" x="679.864013671875" y="808.5" text-anchor="middle" dominant-baseline="central" transform="matrix(1 0 0 1 -29 -62)">(from types)</text></g></g><g><g><path fill="none" stroke="none"/><text fill="#000000" stroke="none" font-family="Arial" font-size="13px" font-style="normal" font-weight="normal" text-decoration="undefined" x="636" y="831.5" text-anchor="start" dominant-baseline="central" transform="matrix(1 0 0 1 -29 -62)">Error</text></g></g><g><g><path fill="none" stroke="none"/><text fill="#000000" stroke="none" font-family="Arial" font-size="13px" font-style="normal" font-weight="normal" text-decoration="undefined" x="636" y="846.5" text-anchor="start" dominant-baseline="central" transform="matrix(1 0 0 1 -29 -62)">Warning</text></g></g><g><g><path fill="none" stroke="none"/><text fill="#000000" stroke="none" font-family="Arial" font-size="13px" font-style="normal" font-weight="normal" text-decoration="undefined" x="636" y="861.5" text-anchor="start" dominant-baseline="central" transform="matrix(1 0 0 1 -29 -62)">Info</text></g></g><g><path fill="none" stroke="#000000" paint-order="fill stroke markers" d=" M 642 705 L 642 573" stroke-miterlimit="10" stroke-dasharray=""/></g><g><path fill="#000000" stroke="none" paint-order="stroke fill markers" d=" M 646.209517756016 583.1626748576241 L 642 573 L 637.790482243984 583.1626748576241 L 642 595"/></g><g><path fill="none" stroke="#000000" paint-order="fill stroke markers" d=" M 646.209517756016 583.1626748576241 L 642 573 L 637.790482243984 583.1626748576241 L 642 595 L 646.209517756016 583.1626748576241" stroke-miterlimit="10" stroke-dasharray=""/></g><g><rect fill="#C0C0C0" stroke="none" x="334" y="390" width="147.6298828125" height="106" transform="matrix(1 0 0 1 -29 -62)" fill-opacity="0.2"/></g><g><rect fill="#ffffff" stroke="none" x="327" y="383" width="147.6298828125" height="106" transform="matrix(1 0 0 1 -29 -62)"/></g><g><path fill="none" stroke="#000000" paint-order="fill stroke markers" d=" M 298 321 L 445.6298828125 321 L 445.6298828125 427 L 298 427 L 298 321 Z Z" stroke-miterlimit="10" stroke-dasharray=""/></g><g><path fill="none" stroke="#000000" paint-order="fill stroke markers" d=" M 298 374 L 445.6298828125 374" stroke-miterlimit="10" stroke-dasharray=""/></g><g><g><path fill="none" stroke="none"/><text fill="#000000" stroke="none" font-family="Arial" font-size="13px" font-style="normal" font-weight="normal" text-decoration="undefined" x="401.31494140625" y="394.5" text-anchor="middle" dominant-baseline="central" transform="matrix(1 0 0 1 -29 -62)">«dataType»</text></g></g><g><g><path fill="none" stroke="none"/><text fill="#000000" stroke="none" font-family="Arial" font-size="13px" font-style="normal" font-weight="bold" text-decoration="undefined" x="401.31494140625" y="409.5" text-anchor="middle" dominant-baseline="central" transform="matrix(1 0 0 1 -29 -62)">AppSettings</text></g></g><g><g><path fill="none" stroke="none"/><text fill="#000000" stroke="none" font-family="Arial" font-size="13px" font-style="normal" font-weight="normal" text-decoration="undefined" x="401.31494140625" y="424.5" text-anchor="middle" dominant-baseline="central" transform="matrix(1 0 0 1 -29 -62)">(from types)</text></g></g><g><g><path fill="none" stroke="none"/><text fill="#000000" stroke="none" font-family="Arial" font-size="13px" font-style="normal" font-weight="normal" text-decoration="undefined" x="332" y="447.5" text-anchor="start" dominant-baseline="central" transform="matrix(1 0 0 1 -29 -62)">+format: FormatOptions</text></g></g><g><g><path fill="none" stroke="none"/><text fill="#000000" stroke="none" font-family="Arial" font-size="13px" font-style="normal" font-weight="normal" text-decoration="undefined" x="332" y="462.5" text-anchor="start" dominant-baseline="central" transform="matrix(1 0 0 1 -29 -62)">+parser: ParserOptions</text></g></g><g><g><path fill="none" stroke="none"/><text fill="#000000" stroke="none" font-family="Arial" font-size="13px" font-style="normal" font-weight="normal" text-decoration="undefined" x="332" y="477.5" text-anchor="start" dominant-baseline="central" transform="matrix(1 0 0 1 -29 -62)">+lint: LintOptions</text></g></g><g><path fill="none" stroke="#000000" paint-order="fill stroke markers" d=" M 130 497 L 130 473 L 373 473 L 373 427" stroke-miterlimit="10" stroke-dasharray=""/></g><g><path fill="#000000" stroke="none" paint-order="stroke fill markers" d=" M 377.209517756016 437.16267485762415 L 373 427 L 368.790482243984 437.16267485762415 L 373 449"/></g><g><path fill="none" stroke="#000000" paint-order="fill stroke markers" d=" M 377.209517756016 437.16267485762415 L 373 427 L 368.790482243984 437.16267485762415 L 373 449 L 377.209517756016 437.16267485762415" stroke-miterlimit="10" stroke-dasharray=""/></g><g><path fill="none" stroke="#000000" paint-order="fill stroke markers" d=" M 373 497 L 373 427" stroke-miterlimit="10" stroke-dasharray=""/></g><g><path fill="#000000" stroke="none" paint-order="stroke fill markers" d=" M 377.209517756016 437.16267485762415 L 373 427 L 368.790482243984 437.16267485762415 L 373 449"/></g><g><path fill="none" stroke="#000000" paint-order="fill stroke markers" d=" M 377.209517756016 437.16267485762415 L 373 427 L 368.790482243984 437.16267485762415 L 373 449 L 377.209517756016 437.16267485762415" stroke-miterlimit="10" stroke-dasharray=""/></g><g><path fill="none" stroke="#000000" paint-order="fill stroke markers" d=" M 642 497 L 642 473 L 373 473 L 373 427" stroke-miterlimit="10" stroke-dasharray=""/></g><g><path fill="#000000" stroke="none" paint-order="stroke fill markers" d=" M 377.209517756016 437.16267485762415 L 373 427 L 368.790482243984 437.16267485762415 L 373 449"/></g><g><path fill="none" stroke="#000000" paint-order="fill stroke markers" d=" M 377.209517756016 437.16267485762415 L 373 427 L 368.790482243984 437.16267485762415 L 373 449 L 377.209517756016 437.16267485762415" stroke-miterlimit="10" stroke-dasharray=""/></g><g><path fill="none" stroke="#000000" paint-order="fill stroke markers" d=" M 371 321 L 371 216" stroke-miterlimit="10" stroke-dasharray=""/></g><g><path fill="#000000" stroke="none" paint-order="stroke fill markers" d=" M 375.209517756016 226.16267485762415 L 371 216 L 366.790482243984 226.16267485762415 L 371 238"/></g><g><path fill="none" stroke="#000000" paint-order="fill stroke markers" d=" M 375.209517756016 226.16267485762415 L 371 216 L 366.790482243984 226.16267485762415 L 371 238 L 375.209517756016 226.16267485762415" stroke-miterlimit="10" stroke-dasharray=""/></g></g></svg>