<svg version="1.1" xmlns="http://www.w3.org/2000/svg" xmlns:xlink="http://www.w3.org/1999/xlink" width="817.89404296875" height="575"><defs/><g><g><rect fill="#C0C0C0" stroke="none" x="55" y="71" width="424" height="206" transform="matrix(1 0 0 1 -38 -54)" fill-opacity="0.2"/></g><g><rect fill="#ffffff" stroke="none" x="48" y="64" width="424" height="206" transform="matrix(1 0 0 1 -38 -54)"/></g><g><path fill="none" stroke="#000000" paint-order="fill stroke markers" d=" M 10 10 L 434 10 L 434 216 L 10 216 L 10 10 Z Z" stroke-miterlimit="10" stroke-dasharray=""/></g><g><path fill="none" stroke="#000000" paint-order="fill stroke markers" d=" M 10 50 L 434 50" stroke-miterlimit="10" stroke-dasharray=""/></g><g><path fill="none" stroke="#000000" paint-order="fill stroke markers" d=" M 10 88 L 434 88" stroke-miterlimit="10" stroke-dasharray=""/></g><g><g><path fill="none" stroke="none"/><text fill="#000000" stroke="none" font-family="Arial" font-size="13px" font-style="normal" font-weight="bold" text-decoration="undefined" x="260.5" y="77.5" text-anchor="middle" dominant-baseline="central" transform="matrix(1 0 0 1 -38 -54)">Settings</text></g></g><g><g><path fill="none" stroke="none"/><text fill="#000000" stroke="none" font-family="Arial" font-size="13px" font-style="normal" font-weight="normal" text-decoration="undefined" x="260.5" y="92.5" text-anchor="middle" dominant-baseline="central" transform="matrix(1 0 0 1 -38 -54)">(from Settings)</text></g></g><g><g><path fill="none" stroke="none"/><text fill="#000000" stroke="none" font-family="Arial" font-size="13px" font-style="normal" font-weight="normal" text-decoration="undefined" x="53" y="115.5" text-anchor="start" dominant-baseline="central" transform="matrix(1 0 0 1 -38 -54)">-instance: Settings</text><path fill="none" stroke="#000000" paint-order="fill stroke markers" d=" M 15 68 L 121.9453125 68" stroke-miterlimit="10" stroke-dasharray=""/></g></g><g><g><path fill="none" stroke="none"/><text fill="#000000" stroke="none" font-family="Arial" font-size="13px" font-style="normal" font-weight="normal" text-decoration="undefined" x="53" y="130.5" text-anchor="start" dominant-baseline="central" transform="matrix(1 0 0 1 -38 -54)">-settings: FormatOptions</text></g></g><g><g><path fill="none" stroke="none"/><text fill="#000000" stroke="none" font-family="Arial" font-size="13px" font-style="normal" font-weight="normal" text-decoration="undefined" x="53" y="153.5" text-anchor="start" dominant-baseline="central" transform="matrix(1 0 0 1 -38 -54)">+get_settings(): Settings</text><path fill="none" stroke="#000000" paint-order="fill stroke markers" d=" M 15 106 L 155.5498046875 106" stroke-miterlimit="10" stroke-dasharray=""/></g></g><g><g><path fill="none" stroke="none"/><text fill="#000000" stroke="none" font-family="Arial" font-size="13px" font-style="normal" font-weight="normal" text-decoration="undefined" x="53" y="168.5" text-anchor="start" dominant-baseline="central" transform="matrix(1 0 0 1 -38 -54)">-load_settings_from_disk(): FormatOptions</text></g></g><g><g><path fill="none" stroke="none"/><text fill="#000000" stroke="none" font-family="Arial" font-size="13px" font-style="normal" font-weight="normal" text-decoration="undefined" x="53" y="183.5" text-anchor="start" dominant-baseline="central" transform="matrix(1 0 0 1 -38 -54)">-save_settings_to_disk(opts: FormatOptions)</text></g></g><g><g><path fill="none" stroke="none"/><text fill="#000000" stroke="none" font-family="Arial" font-size="13px" font-style="normal" font-weight="normal" text-decoration="undefined" x="53" y="198.5" text-anchor="start" dominant-baseline="central" transform="matrix(1 0 0 1 -38 -54)">-get_settings_path(): Path</text></g></g><g><g><path fill="none" stroke="none"/><text fill="#000000" stroke="none" font-family="Arial" font-size="13px" font-style="normal" font-weight="normal" text-decoration="undefined" x="53" y="213.5" text-anchor="start" dominant-baseline="central" transform="matrix(1 0 0 1 -38 -54)">-get_home_dir(): Path</text></g></g><g><g><path fill="none" stroke="none"/><text fill="#000000" stroke="none" font-family="Arial" font-size="13px" font-style="normal" font-weight="normal" text-decoration="undefined" x="53" y="228.5" text-anchor="start" dominant-baseline="central" transform="matrix(1 0 0 1 -38 -54)">-get_settings_lock(): Lock&lt;FormatOptions&gt;</text></g></g><g><rect fill="#C0C0C0" stroke="none" x="95" y="335" width="241.98779296875" height="166" transform="matrix(1 0 0 1 -38 -54)" fill-opacity="0.2"/></g><g><rect fill="#ffffff" stroke="none" x="88" y="328" width="241.98779296875" height="166" transform="matrix(1 0 0 1 -38 -54)"/></g><g><path fill="none" stroke="#000000" paint-order="fill stroke markers" d=" M 50 274 L 291.98779296875 274 L 291.98779296875 440 L 50 440 L 50 274 Z Z" stroke-miterlimit="10" stroke-dasharray=""/></g><g><path fill="none" stroke="#000000" paint-order="fill stroke markers" d=" M 50 327 L 291.98779296875 327" stroke-miterlimit="10" stroke-dasharray=""/></g><g><g><path fill="none" stroke="none"/><text fill="#000000" stroke="none" font-family="Arial" font-size="13px" font-style="normal" font-weight="normal" text-decoration="undefined" x="209.493896484375" y="339.5" text-anchor="middle" dominant-baseline="central" transform="matrix(1 0 0 1 -38 -54)">«dataType»</text></g></g><g><g><path fill="none" stroke="none"/><text fill="#000000" stroke="none" font-family="Arial" font-size="13px" font-style="normal" font-weight="bold" text-decoration="undefined" x="209.493896484375" y="354.5" text-anchor="middle" dominant-baseline="central" transform="matrix(1 0 0 1 -38 -54)">FormatOptions</text></g></g><g><g><path fill="none" stroke="none"/><text fill="#000000" stroke="none" font-family="Arial" font-size="13px" font-style="normal" font-weight="normal" text-decoration="undefined" x="209.493896484375" y="369.5" text-anchor="middle" dominant-baseline="central" transform="matrix(1 0 0 1 -38 -54)">(from types)</text></g></g><g><g><path fill="none" stroke="none"/><text fill="#000000" stroke="none" font-family="Arial" font-size="13px" font-style="normal" font-weight="normal" text-decoration="undefined" x="93" y="392.5" text-anchor="start" dominant-baseline="central" transform="matrix(1 0 0 1 -38 -54)">+use_tabs: bool = false</text></g></g><g><g><path fill="none" stroke="none"/><text fill="#000000" stroke="none" font-family="Arial" font-size="13px" font-style="normal" font-weight="normal" text-decoration="undefined" x="93" y="407.5" text-anchor="start" dominant-baseline="central" transform="matrix(1 0 0 1 -38 -54)">+indent: u8 = 2</text></g></g><g><g><path fill="none" stroke="none"/><text fill="#000000" stroke="none" font-family="Arial" font-size="13px" font-style="normal" font-weight="normal" text-decoration="undefined" x="93" y="422.5" text-anchor="start" dominant-baseline="central" transform="matrix(1 0 0 1 -38 -54)">+line_ending: LineEnding = LF</text></g></g><g><g><path fill="none" stroke="none"/><text fill="#000000" stroke="none" font-family="Arial" font-size="13px" font-style="normal" font-weight="normal" text-decoration="undefined" x="93" y="437.5" text-anchor="start" dominant-baseline="central" transform="matrix(1 0 0 1 -38 -54)">+folding_style: FoldingStyle = Expanded</text></g></g><g><g><path fill="none" stroke="none"/><text fill="#000000" stroke="none" font-family="Arial" font-size="13px" font-style="normal" font-weight="normal" text-decoration="undefined" x="93" y="452.5" text-anchor="start" dominant-baseline="central" transform="matrix(1 0 0 1 -38 -54)">+sort_keys: bool = false</text></g></g><g><g><path fill="none" stroke="none"/><text fill="#000000" stroke="none" font-family="Arial" font-size="13px" font-style="normal" font-weight="normal" text-decoration="undefined" x="93" y="467.5" text-anchor="start" dominant-baseline="central" transform="matrix(1 0 0 1 -38 -54)">+space_after_colon: bool = true</text></g></g><g><g><path fill="none" stroke="none"/><text fill="#000000" stroke="none" font-family="Arial" font-size="13px" font-style="normal" font-weight="normal" text-decoration="undefined" x="93" y="482.5" text-anchor="start" dominant-baseline="central" transform="matrix(1 0 0 1 -38 -54)">+space_after_comma: bool = true</text></g></g><g><path fill="none" stroke="#000000" paint-order="fill stroke markers" d=" M 170 274 L 170 216" stroke-miterlimit="10" stroke-dasharray=""/></g><g><path fill="#000000" stroke="none" paint-order="stroke fill markers" d=" M 174.209517756016 226.16267485762415 L 170 216 L 165.790482243984 226.16267485762415 L 170 238"/></g><g><path fill="none" stroke="#000000" paint-order="fill stroke markers" d=" M 174.209517756016 226.16267485762415 L 170 216 L 165.790482243984 226.16267485762415 L 170 238 L 174.209517756016 226.16267485762415" stroke-miterlimit="10" stroke-dasharray=""/></g><g><path fill="#FFFFD8" stroke="none" paint-order="stroke fill markers" d=" M 506 10 L 639 10 L 649 20 L 649 92 L 506 92 L 506 10"/></g><g><path fill="none" stroke="#000000" paint-order="fill stroke markers" d=" M 506 10 L 639 10 L 649 20 L 649 92 L 506 92 L 506 10 L 506 10" stroke-miterlimit="10" stroke-dasharray=""/></g><g><path fill="none" stroke="#000000" paint-order="fill stroke markers" d=" M 639 10 L 639 20 L 649 20 L 639 10" stroke-miterlimit="10" stroke-dasharray=""/></g><g><g><path fill="none" stroke="none"/><text fill="#000000" stroke="none" font-family="Arial" font-size="13px" font-style="normal" font-weight="normal" text-decoration="undefined" x="549" y="69" text-anchor="start" dominant-baseline="text-before-edge" transform="matrix(1 0 0 1 -38 -54)">if (instance == null) {</text></g></g><g><g><path fill="none" stroke="none"/><text fill="#000000" stroke="none" font-family="Arial" font-size="13px" font-style="normal" font-weight="normal" text-decoration="undefined" x="549" y="84" text-anchor="start" dominant-baseline="text-before-edge" transform="matrix(1 0 0 1 -38 -54)">    instance = Settings()</text></g></g><g><g><path fill="none" stroke="none"/><text fill="#000000" stroke="none" font-family="Arial" font-size="13px" font-style="normal" font-weight="normal" text-decoration="undefined" x="549" y="99" text-anchor="start" dominant-baseline="text-before-edge" transform="matrix(1 0 0 1 -38 -54)">}</text></g></g><g><g><path fill="none" stroke="none"/><text fill="#000000" stroke="none" font-family="Arial" font-size="13px" font-style="normal" font-weight="normal" text-decoration="undefined" x="549" y="114" text-anchor="start" dominant-baseline="text-before-edge" transform="matrix(1 0 0 1 -38 -54)">return instance</text></g></g><g><path fill="none" stroke="#000000" paint-order="fill stroke markers" d=" M 506 50 L 434 50" stroke-miterlimit="10" stroke-dasharray="3"/></g><g><rect fill="#C0C0C0" stroke="none" x="551" y="167" width="300.89404296875" height="151" transform="matrix(1 0 0 1 -38 -54)" fill-opacity="0.2"/></g><g><rect fill="#ffffff" stroke="none" x="544" y="160" width="300.89404296875" height="151" transform="matrix(1 0 0 1 -38 -54)"/></g><g><path fill="none" stroke="#000000" paint-order="fill stroke markers" d=" M 506 106 L 806.89404296875 106 L 806.89404296875 257 L 506 257 L 506 106 Z Z" stroke-miterlimit="10" stroke-dasharray=""/></g><g><path fill="none" stroke="#000000" paint-order="fill stroke markers" d=" M 506 144 L 806.89404296875 144" stroke-miterlimit="10" stroke-dasharray=""/></g><g><g><path fill="none" stroke="none"/><text fill="#000000" stroke="none" font-family="Arial" font-size="13px" font-style="normal" font-weight="normal" text-decoration="undefined" x="694.947021484375" y="171.5" text-anchor="middle" dominant-baseline="central" transform="matrix(1 0 0 1 -38 -54)">«enumeration»</text></g></g><g><g><path fill="none" stroke="none"/><text fill="#000000" stroke="none" font-family="Arial" font-size="13px" font-style="normal" font-weight="bold" text-decoration="undefined" x="694.947021484375" y="186.5" text-anchor="middle" dominant-baseline="central" transform="matrix(1 0 0 1 -38 -54)">SettingsErrors</text></g></g><g><g><path fill="none" stroke="none"/><text fill="#000000" stroke="none" font-family="Arial" font-size="13px" font-style="normal" font-weight="normal" text-decoration="undefined" x="549" y="209.5" text-anchor="start" dominant-baseline="central" transform="matrix(1 0 0 1 -38 -54)">LOCATE_HOME_DIR</text></g></g><g><g><path fill="none" stroke="none"/><text fill="#000000" stroke="none" font-family="Arial" font-size="13px" font-style="normal" font-weight="normal" text-decoration="undefined" x="549" y="224.5" text-anchor="start" dominant-baseline="central" transform="matrix(1 0 0 1 -38 -54)">READ_SETTINGS_FILE</text></g></g><g><g><path fill="none" stroke="none"/><text fill="#000000" stroke="none" font-family="Arial" font-size="13px" font-style="normal" font-weight="normal" text-decoration="undefined" x="549" y="239.5" text-anchor="start" dominant-baseline="central" transform="matrix(1 0 0 1 -38 -54)">WRITE_SETTINGS_FILE</text></g></g><g><g><path fill="none" stroke="none"/><text fill="#000000" stroke="none" font-family="Arial" font-size="13px" font-style="normal" font-weight="normal" text-decoration="undefined" x="549" y="254.5" text-anchor="start" dominant-baseline="central" transform="matrix(1 0 0 1 -38 -54)">PARSE_SETTINGS_JSON</text></g></g><g><g><path fill="none" stroke="none"/><text fill="#000000" stroke="none" font-family="Arial" font-size="13px" font-style="normal" font-weight="normal" text-decoration="undefined" x="549" y="269.5" text-anchor="start" dominant-baseline="central" transform="matrix(1 0 0 1 -38 -54)">AQUIRE_SETTINGS_WRITE_LOCK</text></g></g><g><g><path fill="none" stroke="none"/><text fill="#000000" stroke="none" font-family="Arial" font-size="13px" font-style="normal" font-weight="normal" text-decoration="undefined" x="549" y="284.5" text-anchor="start" dominant-baseline="central" transform="matrix(1 0 0 1 -38 -54)">AQUIRE_SETTINGS_READ_LOCK</text></g></g><g><g><path fill="none" stroke="none"/><text fill="#000000" stroke="none" font-family="Arial" font-size="13px" font-style="normal" font-weight="normal" text-decoration="undefined" x="549" y="299.5" text-anchor="start" dominant-baseline="central" transform="matrix(1 0 0 1 -38 -54)">SERIALIZE_SETTINGS</text></g></g><g><path fill="none" stroke="#000000" paint-order="fill stroke markers" d=" M 506 152 L 434 152" stroke-miterlimit="10" stroke-dasharray=""/></g><g><path fill="#000000" stroke="none" paint-order="stroke fill markers" d=" M 444.16267485762415 147.790482243984 L 434 152 L 444.16267485762415 156.209517756016 L 456 152"/></g><g><path fill="none" stroke="#000000" paint-order="fill stroke markers" d=" M 444.16267485762415 147.790482243984 L 434 152 L 444.16267485762415 156.209517756016 L 456 152 L 444.16267485762415 147.790482243984" stroke-miterlimit="10" stroke-dasharray=""/></g><g><rect fill="#C0C0C0" stroke="none" x="95" y="535" width="96.72802734375" height="91" transform="matrix(1 0 0 1 -38 -54)" fill-opacity="0.2"/></g><g><rect fill="#ffffff" stroke="none" x="88" y="528" width="96.72802734375" height="91" transform="matrix(1 0 0 1 -38 -54)"/></g><g><path fill="none" stroke="#000000" paint-order="fill stroke markers" d=" M 50 474 L 146.72802734375 474 L 146.72802734375 565 L 50 565 L 50 474 Z Z" stroke-miterlimit="10" stroke-dasharray=""/></g><g><path fill="none" stroke="#000000" paint-order="fill stroke markers" d=" M 50 527 L 146.72802734375 527" stroke-miterlimit="10" stroke-dasharray=""/></g><g><g><path fill="none" stroke="none"/><text fill="#000000" stroke="none" font-family="Arial" font-size="13px" font-style="normal" font-weight="normal" text-decoration="undefined" x="136.864013671875" y="539.5" text-anchor="middle" dominant-baseline="central" transform="matrix(1 0 0 1 -38 -54)">«enumeration»</text></g></g><g><g><path fill="none" stroke="none"/><text fill="#000000" stroke="none" font-family="Arial" font-size="13px" font-style="normal" font-weight="bold" text-decoration="undefined" x="136.864013671875" y="554.5" text-anchor="middle" dominant-baseline="central" transform="matrix(1 0 0 1 -38 -54)">LineEnding</text></g></g><g><g><path fill="none" stroke="none"/><text fill="#000000" stroke="none" font-family="Arial" font-size="13px" font-style="normal" font-weight="normal" text-decoration="undefined" x="136.864013671875" y="569.5" text-anchor="middle" dominant-baseline="central" transform="matrix(1 0 0 1 -38 -54)">(from types)</text></g></g><g><g><path fill="none" stroke="none"/><text fill="#000000" stroke="none" font-family="Arial" font-size="13px" font-style="normal" font-weight="normal" text-decoration="undefined" x="93" y="592.5" text-anchor="start" dominant-baseline="central" transform="matrix(1 0 0 1 -38 -54)">LF</text></g></g><g><g><path fill="none" stroke="none"/><text fill="#000000" stroke="none" font-family="Arial" font-size="13px" font-style="normal" font-weight="normal" text-decoration="undefined" x="93" y="607.5" text-anchor="start" dominant-baseline="central" transform="matrix(1 0 0 1 -38 -54)">CRLF</text></g></g><g><path fill="none" stroke="#000000" paint-order="fill stroke markers" d=" M 98 474 L 98 440" stroke-miterlimit="10" stroke-dasharray=""/></g><g><path fill="#000000" stroke="none" paint-order="stroke fill markers" d=" M 102.209517756016 450.16267485762415 L 98 440 L 93.790482243984 450.16267485762415 L 98 462"/></g><g><path fill="none" stroke="#000000" paint-order="fill stroke markers" d=" M 102.209517756016 450.16267485762415 L 98 440 L 93.790482243984 450.16267485762415 L 98 462 L 102.209517756016 450.16267485762415" stroke-miterlimit="10" stroke-dasharray=""/></g><g><rect fill="#C0C0C0" stroke="none" x="239" y="535" width="96.72802734375" height="91" transform="matrix(1 0 0 1 -38 -54)" fill-opacity="0.2"/></g><g><rect fill="#ffffff" stroke="none" x="232" y="528" width="96.72802734375" height="91" transform="matrix(1 0 0 1 -38 -54)"/></g><g><path fill="none" stroke="#000000" paint-order="fill stroke markers" d=" M 194 474 L 290.72802734375 474 L 290.72802734375 565 L 194 565 L 194 474 Z Z" stroke-miterlimit="10" stroke-dasharray=""/></g><g><path fill="none" stroke="#000000" paint-order="fill stroke markers" d=" M 194 527 L 290.72802734375 527" stroke-miterlimit="10" stroke-dasharray=""/></g><g><g><path fill="none" stroke="none"/><text fill="#000000" stroke="none" font-family="Arial" font-size="13px" font-style="normal" font-weight="normal" text-decoration="undefined" x="280.864013671875" y="539.5" text-anchor="middle" dominant-baseline="central" transform="matrix(1 0 0 1 -38 -54)">«enumeration»</text></g></g><g><g><path fill="none" stroke="none"/><text fill="#000000" stroke="none" font-family="Arial" font-size="13px" font-style="normal" font-weight="bold" text-decoration="undefined" x="280.864013671875" y="554.5" text-anchor="middle" dominant-baseline="central" transform="matrix(1 0 0 1 -38 -54)">FoldingStyle</text></g></g><g><g><path fill="none" stroke="none"/><text fill="#000000" stroke="none" font-family="Arial" font-size="13px" font-style="normal" font-weight="normal" text-decoration="undefined" x="280.864013671875" y="569.5" text-anchor="middle" dominant-baseline="central" transform="matrix(1 0 0 1 -38 -54)">(from types)</text></g></g><g><g><path fill="none" stroke="none"/><text fill="#000000" stroke="none" font-family="Arial" font-size="13px" font-style="normal" font-weight="normal" text-decoration="undefined" x="237" y="592.5" text-anchor="start" dominant-baseline="central" transform="matrix(1 0 0 1 -38 -54)">Expanded</text></g></g><g><g><path fill="none" stroke="none"/><text fill="#000000" stroke="none" font-family="Arial" font-size="13px" font-style="normal" font-weight="normal" text-decoration="undefined" x="237" y="607.5" text-anchor="start" dominant-baseline="central" transform="matrix(1 0 0 1 -38 -54)">Compact</text></g></g><g><path fill="none" stroke="#000000" paint-order="fill stroke markers" d=" M 242 474 L 242 440" stroke-miterlimit="10" stroke-dasharray=""/></g><g><path fill="#000000" stroke="none" paint-order="stroke fill markers" d=" M 246.209517756016 450.16267485762415 L 242 440 L 237.790482243984 450.16267485762415 L 242 462"/></g><g><path fill="none" stroke="#000000" paint-order="fill stroke markers" d=" M 246.209517756016 450.16267485762415 L 242 440 L 237.790482243984 450.16267485762415 L 242 462 L 246.209517756016 450.16267485762415" stroke-miterlimit="10" stroke-dasharray=""/></g></g></svg>