<svg version="1.1" xmlns="http://www.w3.org/2000/svg" xmlns:xlink="http://www.w3.org/1999/xlink" width="540" height="388"><defs/><g><g><path fill="none" stroke="#000000" paint-order="fill stroke markers" d=" M 162 10 L 530 10 L 530 378 L 162 378 L 162 10" stroke-miterlimit="10" stroke-dasharray=""/></g><g><path fill="#ffffff" stroke="none" paint-order="stroke fill markers" d=" M 162 10 L 162 33 L 300.12255859375 33 L 311.62255859375 21.5 L 311.62255859375 10 L 162 10"/></g><g><path fill="none" stroke="#000000" paint-order="fill stroke markers" d=" M 162 10 L 162 33 L 300.12255859375 33 L 311.62255859375 21.5 L 311.62255859375 10 L 162 10 L 162 10" stroke-miterlimit="10" stroke-dasharray=""/></g><g><g><path fill="none" stroke="none"/><text fill="#000000" stroke="none" font-family="Arial" font-size="13px" font-style="normal" font-weight="normal" text-decoration="undefined" x="246.92626953125" y="211.5" text-anchor="middle" dominant-baseline="central" transform="matrix(1 0 0 1 -6 -190)">C4 Model::jsonette</text></g></g><g><g><path fill="none" stroke="none"/><text fill="#000000" stroke="none" font-family="Arial" font-size="13px" font-style="normal" font-weight="bold" text-decoration="undefined" x="179.864990234375" y="211.5" text-anchor="middle" dominant-baseline="central" transform="matrix(1 0 0 1 -6 -190)">uc</text></g></g><g><path fill="#ffffff" stroke="none" paint-order="stroke fill markers" d=" M 42.99544921875 155.85000000000002 C 42.99544921875 150.96227952000004 46.95325158675 147 51.83544921875 147 C 56.71764685075 147 60.67544921875 150.96227952000004 60.67544921875 155.85000000000002 C 60.67544921875 160.73772048 56.71764685075 164.7 51.83544921875 164.7 C 46.95325158675 164.7 42.99544921875 160.73772048 42.99544921875 155.85000000000002 Z"/></g><g><path fill="none" stroke="#000000" paint-order="fill stroke markers" d=" M 42.99544921875 155.85000000000002 C 42.99544921875 150.96227952000004 46.95325158675 147 51.83544921875 147 C 56.71764685075 147 60.67544921875 150.96227952000004 60.67544921875 155.85000000000002 C 60.67544921875 160.73772048 56.71764685075 164.7 51.83544921875 164.7 C 46.95325158675 164.7 42.99544921875 160.73772048 42.99544921875 155.85000000000002 Z" stroke-miterlimit="10" stroke-dasharray=""/></g><g><path fill="none" stroke="#000000" paint-order="fill stroke markers" d=" M 51.83544921875 164.7 L 51.83544921875 182.3" stroke-miterlimit="10" stroke-dasharray=""/></g><g><path fill="none" stroke="#000000" paint-order="fill stroke markers" d=" M 42.47544921875 171.3 L 61.19544921875 171.3" stroke-miterlimit="10" stroke-dasharray=""/></g><g><path fill="none" stroke="#000000" paint-order="fill stroke markers" d=" M 51.83544921875 182.3 L 38.83544921875 200" stroke-miterlimit="10" stroke-dasharray=""/></g><g><path fill="none" stroke="#000000" paint-order="fill stroke markers" d=" M 51.83544921875 182.3 L 64.83544921875 200" stroke-miterlimit="10" stroke-dasharray=""/></g><g><g><path fill="none" stroke="none"/><text fill="#000000" stroke="none" font-family="Arial" font-size="13px" font-style="normal" font-weight="bold" text-decoration="undefined" x="58.33544921875" y="404.5" text-anchor="middle" dominant-baseline="central" transform="matrix(1 0 0 1 -6 -190)">Developer</text></g></g><g><g><path fill="none" stroke="none"/><text fill="#000000" stroke="none" font-family="Arial" font-size="13px" font-style="normal" font-weight="normal" text-decoration="undefined" x="58.33544921875" y="419.5" text-anchor="middle" dominant-baseline="central" transform="matrix(1 0 0 1 -6 -190)">(from actors)</text></g></g><g><path fill="#C0C0C0" stroke="none" paint-order="stroke fill markers" d=" M 245 93 C 245 77.53602560000002 291.3385232 65 348.5 65 C 405.6614768 65 452 77.53602560000002 452 93 C 452 108.46397439999998 405.6614768 121 348.5 121 C 291.3385232 121 245 108.46397439999998 245 93 Z" fill-opacity="0.2"/></g><g><path fill="#ffffff" stroke="none" paint-order="stroke fill markers" d=" M 238 86 C 238 70.53602560000002 284.3385232 58 341.5 58 C 398.6614768 58 445 70.53602560000002 445 86 C 445 101.46397439999998 398.6614768 114 341.5 114 C 284.3385232 114 238 101.46397439999998 238 86 Z"/></g><g><path fill="none" stroke="#000000" paint-order="fill stroke markers" d=" M 238 86 C 238 70.53602560000002 284.3385232 58 341.5 58 C 398.6614768 58 445 70.53602560000002 445 86 C 445 101.46397439999998 398.6614768 114 341.5 114 C 284.3385232 114 238 101.46397439999998 238 86 Z" stroke-miterlimit="10" stroke-dasharray=""/></g><g><g><path fill="none" stroke="none"/><text fill="#000000" stroke="none" font-family="Arial" font-size="13px" font-style="normal" font-weight="bold" text-decoration="undefined" x="347.5" y="269.5" text-anchor="middle" dominant-baseline="central" transform="matrix(1 0 0 1 -6 -190)">Type Text</text></g></g><g><g><path fill="none" stroke="none"/><text fill="#000000" stroke="none" font-family="Arial" font-size="13px" font-style="normal" font-weight="normal" text-decoration="undefined" x="347.5" y="284.5" text-anchor="middle" dominant-baseline="central" transform="matrix(1 0 0 1 -6 -190)">(from System Features)</text></g></g><g><path fill="#C0C0C0" stroke="none" paint-order="stroke fill markers" d=" M 245 197 C 245 181.53602560000002 291.3385232 169 348.5 169 C 405.6614768 169 452 181.53602560000002 452 197 C 452 212.46397439999998 405.6614768 225 348.5 225 C 291.3385232 225 245 212.46397439999998 245 197 Z" fill-opacity="0.2"/></g><g><path fill="#ffffff" stroke="none" paint-order="stroke fill markers" d=" M 238 190 C 238 174.53602560000002 284.3385232 162 341.5 162 C 398.6614768 162 445 174.53602560000002 445 190 C 445 205.46397439999998 398.6614768 218 341.5 218 C 284.3385232 218 238 205.46397439999998 238 190 Z"/></g><g><path fill="none" stroke="#000000" paint-order="fill stroke markers" d=" M 238 190 C 238 174.53602560000002 284.3385232 162 341.5 162 C 398.6614768 162 445 174.53602560000002 445 190 C 445 205.46397439999998 398.6614768 218 341.5 218 C 284.3385232 218 238 205.46397439999998 238 190 Z" stroke-miterlimit="10" stroke-dasharray=""/></g><g><g><path fill="none" stroke="none"/><text fill="#000000" stroke="none" font-family="Arial" font-size="13px" font-style="normal" font-weight="bold" text-decoration="undefined" x="347.5" y="373.5" text-anchor="middle" dominant-baseline="central" transform="matrix(1 0 0 1 -6 -190)">See Errors Underlines</text></g></g><g><g><path fill="none" stroke="none"/><text fill="#000000" stroke="none" font-family="Arial" font-size="13px" font-style="normal" font-weight="normal" text-decoration="undefined" x="347.5" y="388.5" text-anchor="middle" dominant-baseline="central" transform="matrix(1 0 0 1 -6 -190)">(from System Features)</text></g></g><g><path fill="#C0C0C0" stroke="none" paint-order="stroke fill markers" d=" M 245 301 C 245 285.5360256 291.3385232 273 348.5 273 C 405.6614768 273 452 285.5360256 452 301 C 452 316.4639744 405.6614768 329 348.5 329 C 291.3385232 329 245 316.4639744 245 301 Z" fill-opacity="0.2"/></g><g><path fill="#ffffff" stroke="none" paint-order="stroke fill markers" d=" M 238 294 C 238 278.5360256 284.3385232 266 341.5 266 C 398.6614768 266 445 278.5360256 445 294 C 445 309.4639744 398.6614768 322 341.5 322 C 284.3385232 322 238 309.4639744 238 294 Z"/></g><g><path fill="none" stroke="#000000" paint-order="fill stroke markers" d=" M 238 294 C 238 278.5360256 284.3385232 266 341.5 266 C 398.6614768 266 445 278.5360256 445 294 C 445 309.4639744 398.6614768 322 341.5 322 C 284.3385232 322 238 309.4639744 238 294 Z" stroke-miterlimit="10" stroke-dasharray=""/></g><g><g><path fill="none" stroke="none"/><text fill="#000000" stroke="none" font-family="Arial" font-size="13px" font-style="normal" font-weight="bold" text-decoration="undefined" x="347.5" y="477.5" text-anchor="middle" dominant-baseline="central" transform="matrix(1 0 0 1 -6 -190)">Hits Format</text></g></g><g><g><path fill="none" stroke="none"/><text fill="#000000" stroke="none" font-family="Arial" font-size="13px" font-style="normal" font-weight="normal" text-decoration="undefined" x="347.5" y="492.5" text-anchor="middle" dominant-baseline="central" transform="matrix(1 0 0 1 -6 -190)">(from System Features)</text></g></g><g><path fill="none" stroke="#000000" paint-order="fill stroke markers" d=" M 95 177 L 262 115" stroke-miterlimit="10" stroke-dasharray=""/></g><g><path fill="none" stroke="#000000" paint-order="fill stroke markers" d=" M 95 193 L 237 191" stroke-miterlimit="10" stroke-dasharray=""/></g><g><path fill="none" stroke="#000000" paint-order="fill stroke markers" d=" M 95 208 L 258 265" stroke-miterlimit="10" stroke-dasharray=""/></g></g></svg>