<svg version="1.1" xmlns="http://www.w3.org/2000/svg" xmlns:xlink="http://www.w3.org/1999/xlink" width="868" height="692"><defs/><g><g><path fill="none" stroke="#000000" paint-order="fill stroke markers" d=" M 10 10 L 858 10 L 858 682 L 10 682 L 10 10" stroke-miterlimit="10" stroke-dasharray=""/></g><g><path fill="#FFE2D8" stroke="none" paint-order="stroke fill markers" d=" M 10 10 L 10 33 L 182.80615234375 33 L 194.30615234375 21.5 L 194.30615234375 10 L 10 10"/></g><g><path fill="none" stroke="#000000" paint-order="fill stroke markers" d=" M 10 10 L 10 33 L 182.80615234375 33 L 194.30615234375 21.5 L 194.30615234375 10 L 10 10 L 10 10" stroke-miterlimit="10" stroke-dasharray=""/></g><g><g><path fill="none" stroke="none"/><text fill="#000000" stroke="none" font-family="Arial" font-size="13px" font-style="normal" font-weight="normal" text-decoration="undefined" x="104.26806640625" y="19.5" text-anchor="middle" dominant-baseline="central" transform="matrix(1 0 0 1 2 2)">GetSettings::GetSettings</text></g></g><g><g><path fill="none" stroke="none"/><text fill="#000000" stroke="none" font-family="Arial" font-size="13px" font-style="normal" font-weight="bold" text-decoration="undefined" x="19.864990234375" y="19.5" text-anchor="middle" dominant-baseline="central" transform="matrix(1 0 0 1 2 2)">sd</text></g></g><g><rect fill="#C0C0C0" stroke="none" x="23" y="47" width="126.1962890625" height="40" transform="matrix(1 0 0 1 2 2)" fill-opacity="0.2"/></g><g><rect fill="#ffffff" stroke="none" x="16" y="40" width="126.1962890625" height="40" transform="matrix(1 0 0 1 2 2)"/></g><g><path fill="none" stroke="#000000" paint-order="fill stroke markers" d=" M 18 42 L 144.1962890625 42 L 144.1962890625 82 L 18 82 L 18 42 Z Z" stroke-miterlimit="10" stroke-dasharray=""/></g><g><g><path fill="none" stroke="none"/><text fill="#000000" stroke="none" font-family="Arial" font-size="13px" font-style="normal" font-weight="bold" text-decoration="undefined" x="79.59814453125" y="53.5" text-anchor="middle" dominant-baseline="central" transform="matrix(1 0 0 1 2 2)">Caller: macOS</text></g></g><g><g><path fill="none" stroke="none"/><text fill="#000000" stroke="none" font-family="Arial" font-size="13px" font-style="normal" font-weight="normal" text-decoration="undefined" x="79.59814453125" y="68.5" text-anchor="middle" dominant-baseline="central" transform="matrix(1 0 0 1 2 2)">(from GetSettings)</text></g></g><g><path fill="none" stroke="#000000" paint-order="fill stroke markers" d=" M 81.5 83 L 81.5 666" stroke-miterlimit="10" stroke-dasharray="3"/></g><g><rect fill="#C0C0C0" stroke="none" x="159" y="47" width="126.1962890625" height="40" transform="matrix(1 0 0 1 2 2)" fill-opacity="0.2"/></g><g><rect fill="#ffffff" stroke="none" x="152" y="40" width="126.1962890625" height="40" transform="matrix(1 0 0 1 2 2)"/></g><g><path fill="none" stroke="#000000" paint-order="fill stroke markers" d=" M 154 42 L 280.1962890625 42 L 280.1962890625 82 L 154 82 L 154 42 Z Z" stroke-miterlimit="10" stroke-dasharray=""/></g><g><g><path fill="none" stroke="none"/><text fill="#000000" stroke="none" font-family="Arial" font-size="13px" font-style="normal" font-weight="bold" text-decoration="undefined" x="215.59814453125" y="53.5" text-anchor="middle" dominant-baseline="central" transform="matrix(1 0 0 1 2 2)">Engine: Engine</text></g></g><g><g><path fill="none" stroke="none"/><text fill="#000000" stroke="none" font-family="Arial" font-size="13px" font-style="normal" font-weight="normal" text-decoration="undefined" x="215.59814453125" y="68.5" text-anchor="middle" dominant-baseline="central" transform="matrix(1 0 0 1 2 2)">(from GetSettings)</text></g></g><g><path fill="none" stroke="#000000" paint-order="fill stroke markers" d=" M 217.5 83 L 217.5 666" stroke-miterlimit="10" stroke-dasharray="3"/></g><g><rect fill="#C0C0C0" stroke="none" x="335" y="47" width="130.50634765625" height="40" transform="matrix(1 0 0 1 2 2)" fill-opacity="0.2"/></g><g><rect fill="#ffffff" stroke="none" x="328" y="40" width="130.50634765625" height="40" transform="matrix(1 0 0 1 2 2)"/></g><g><path fill="none" stroke="#000000" paint-order="fill stroke markers" d=" M 330 42 L 460.50634765625 42 L 460.50634765625 82 L 330 82 L 330 42 Z Z" stroke-miterlimit="10" stroke-dasharray=""/></g><g><g><path fill="none" stroke="none"/><text fill="#000000" stroke="none" font-family="Arial" font-size="13px" font-style="normal" font-weight="bold" text-decoration="undefined" x="393.753173828125" y="53.5" text-anchor="middle" dominant-baseline="central" transform="matrix(1 0 0 1 2 2)">Settings: Settings</text></g></g><g><g><path fill="none" stroke="none"/><text fill="#000000" stroke="none" font-family="Arial" font-size="13px" font-style="normal" font-weight="normal" text-decoration="undefined" x="393.753173828125" y="68.5" text-anchor="middle" dominant-baseline="central" transform="matrix(1 0 0 1 2 2)">(from GetSettings)</text></g></g><g><path fill="none" stroke="#000000" paint-order="fill stroke markers" d=" M 395.5 83 L 395.5 666" stroke-miterlimit="10" stroke-dasharray="3"/></g><g><rect fill="#C0C0C0" stroke="none" x="543" y="47" width="126.1962890625" height="40" transform="matrix(1 0 0 1 2 2)" fill-opacity="0.2"/></g><g><rect fill="#ffffff" stroke="none" x="536" y="40" width="126.1962890625" height="40" transform="matrix(1 0 0 1 2 2)"/></g><g><path fill="none" stroke="#000000" paint-order="fill stroke markers" d=" M 538 42 L 664.1962890625 42 L 664.1962890625 82 L 538 82 L 538 42 Z Z" stroke-miterlimit="10" stroke-dasharray=""/></g><g><g><path fill="none" stroke="none"/><text fill="#000000" stroke="none" font-family="Arial" font-size="13px" font-style="normal" font-weight="bold" text-decoration="undefined" x="599.59814453125" y="53.5" text-anchor="middle" dominant-baseline="central" transform="matrix(1 0 0 1 2 2)">Lock</text></g></g><g><g><path fill="none" stroke="none"/><text fill="#000000" stroke="none" font-family="Arial" font-size="13px" font-style="normal" font-weight="normal" text-decoration="undefined" x="599.59814453125" y="68.5" text-anchor="middle" dominant-baseline="central" transform="matrix(1 0 0 1 2 2)">(from GetSettings)</text></g></g><g><path fill="none" stroke="#000000" paint-order="fill stroke markers" d=" M 601.5 83 L 601.5 666" stroke-miterlimit="10" stroke-dasharray="3"/></g><g><rect fill="#C0C0C0" stroke="none" x="719" y="47" width="126.1962890625" height="40" transform="matrix(1 0 0 1 2 2)" fill-opacity="0.2"/></g><g><rect fill="#ffffff" stroke="none" x="712" y="40" width="126.1962890625" height="40" transform="matrix(1 0 0 1 2 2)"/></g><g><path fill="none" stroke="#000000" paint-order="fill stroke markers" d=" M 714 42 L 840.1962890625 42 L 840.1962890625 82 L 714 82 L 714 42 Z Z" stroke-miterlimit="10" stroke-dasharray=""/></g><g><g><path fill="none" stroke="none"/><text fill="#000000" stroke="none" font-family="Arial" font-size="13px" font-style="normal" font-weight="bold" text-decoration="undefined" x="775.59814453125" y="53.5" text-anchor="middle" dominant-baseline="central" transform="matrix(1 0 0 1 2 2)">Desk</text></g></g><g><g><path fill="none" stroke="none"/><text fill="#000000" stroke="none" font-family="Arial" font-size="13px" font-style="normal" font-weight="normal" text-decoration="undefined" x="775.59814453125" y="68.5" text-anchor="middle" dominant-baseline="central" transform="matrix(1 0 0 1 2 2)">(from GetSettings)</text></g></g><g><path fill="none" stroke="#000000" paint-order="fill stroke markers" d=" M 777.5 83 L 777.5 666" stroke-miterlimit="10" stroke-dasharray="3"/></g><g><path fill="none" stroke="#000000" paint-order="fill stroke markers" d=" M 82 106 L 210 106" stroke-miterlimit="10" stroke-dasharray=""/></g><g><path fill="#000000" stroke="none" paint-order="stroke fill markers" d=" M 199.83732514237585 110.20951775601598 L 210 106 L 199.83732514237585 101.79048224398402"/></g><g><path fill="none" stroke="#000000" paint-order="fill stroke markers" d=" M 199.83732514237585 110.20951775601598 L 210 106 L 199.83732514237585 101.79048224398402 L 199.83732514237585 110.20951775601598" stroke-miterlimit="10" stroke-dasharray=""/></g><g><rect fill="#ffffff" stroke="none" x="59" y="88" width="170.54248046875" height="13" transform="matrix(1 0 0 1 2 2)"/></g><g><g><path fill="none" stroke="none"/><text fill="#000000" stroke="none" font-family="Arial" font-size="13px" font-style="normal" font-weight="normal" text-decoration="undefined" x="144.271240234375" y="94.5" text-anchor="middle" dominant-baseline="central" transform="matrix(1 0 0 1 2 2)">1 : get_settings():AppSettings</text></g></g><g><rect fill="#ffffff" stroke="none" x="208" y="104" width="14" height="536" transform="matrix(1 0 0 1 2 2)"/></g><g><path fill="none" stroke="#000000" paint-order="fill stroke markers" d=" M 210 106 L 224 106 L 224 642 L 210 642 L 210 106 Z Z" stroke-miterlimit="10" stroke-dasharray=""/></g><g><path fill="none" stroke="#000000" paint-order="fill stroke markers" d=" M 224 123 L 388 123" stroke-miterlimit="10" stroke-dasharray=""/></g><g><path fill="#000000" stroke="none" paint-order="stroke fill markers" d=" M 377.83732514237585 127.20951775601598 L 388 123 L 377.83732514237585 118.79048224398402"/></g><g><path fill="none" stroke="#000000" paint-order="fill stroke markers" d=" M 377.83732514237585 127.20951775601598 L 388 123 L 377.83732514237585 118.79048224398402 L 377.83732514237585 127.20951775601598" stroke-miterlimit="10" stroke-dasharray=""/></g><g><rect fill="#ffffff" stroke="none" x="231" y="105" width="147.41162109375" height="13" transform="matrix(1 0 0 1 2 2)"/></g><g><g><path fill="none" stroke="none"/><text fill="#000000" stroke="none" font-family="Arial" font-size="13px" font-style="normal" font-weight="normal" text-decoration="undefined" x="304.705810546875" y="111.5" text-anchor="middle" dominant-baseline="central" transform="matrix(1 0 0 1 2 2)">2 : get_settings():Settings</text></g></g><g><rect fill="#ffffff" stroke="none" x="386" y="121" width="14" height="495" transform="matrix(1 0 0 1 2 2)"/></g><g><path fill="none" stroke="#000000" paint-order="fill stroke markers" d=" M 388 123 L 402 123 L 402 618 L 388 618 L 388 123 Z Z" stroke-miterlimit="10" stroke-dasharray=""/></g><g><path fill="none" stroke="#000000" paint-order="fill stroke markers" d=" M 402 130 L 432 130 L 432 150 L 409 150" stroke-miterlimit="10" stroke-dasharray=""/></g><g><path fill="#000000" stroke="none" paint-order="stroke fill markers" d=" M 419.16267485762415 145.790482243984 L 409 150 L 419.16267485762415 154.209517756016"/></g><g><path fill="none" stroke="#000000" paint-order="fill stroke markers" d=" M 419.16267485762415 145.790482243984 L 409 150 L 419.16267485762415 154.209517756016 L 419.16267485762415 145.790482243984" stroke-miterlimit="10" stroke-dasharray=""/></g><g><rect fill="#ffffff" stroke="none" x="318" y="131" width="243.5341796875" height="13" transform="matrix(1 0 0 1 2 2)"/></g><g><g><path fill="none" stroke="none"/><text fill="#000000" stroke="none" font-family="Arial" font-size="13px" font-style="normal" font-weight="normal" text-decoration="undefined" x="439.76708984375" y="137.5" text-anchor="middle" dominant-baseline="central" transform="matrix(1 0 0 1 2 2)">3 : get_settings_lock():Lock&lt;AppSettings&gt;</text></g></g><g><rect fill="#ffffff" stroke="none" x="393" y="148" width="14" height="420" transform="matrix(1 0 0 1 2 2)"/></g><g><path fill="none" stroke="#000000" paint-order="fill stroke markers" d=" M 395 150 L 409 150 L 409 570 L 395 570 L 395 150 Z Z" stroke-miterlimit="10" stroke-dasharray=""/></g><g><path fill="none" stroke="#000000" paint-order="fill stroke markers" d=" M 409 187 L 594 187" stroke-miterlimit="10" stroke-dasharray=""/></g><g><path fill="#000000" stroke="none" paint-order="stroke fill markers" d=" M 583.8373251423759 191.209517756016 L 594 187 L 583.8373251423758 182.790482243984"/></g><g><path fill="none" stroke="#000000" paint-order="fill stroke markers" d=" M 583.8373251423759 191.209517756016 L 594 187 L 583.8373251423758 182.790482243984 L 583.8373251423759 191.209517756016" stroke-miterlimit="10" stroke-dasharray=""/></g><g><rect fill="#ffffff" stroke="none" x="460" y="169" width="78.04443359375" height="13" transform="matrix(1 0 0 1 2 2)"/></g><g><g><path fill="none" stroke="none"/><text fill="#000000" stroke="none" font-family="Arial" font-size="13px" font-style="normal" font-weight="normal" text-decoration="undefined" x="499.022216796875" y="175.5" text-anchor="middle" dominant-baseline="central" transform="matrix(1 0 0 1 2 2)">4 : GetLock</text></g></g><g><rect fill="#ffffff" stroke="none" x="592" y="185" width="14" height="28" transform="matrix(1 0 0 1 2 2)"/></g><g><path fill="none" stroke="#000000" paint-order="fill stroke markers" d=" M 594 187 L 608 187 L 608 215 L 594 215 L 594 187 Z Z" stroke-miterlimit="10" stroke-dasharray=""/></g><g><path fill="none" stroke="#000000" paint-order="fill stroke markers" d=" M 594 199 L 409 199" stroke-miterlimit="10" stroke-dasharray="3"/></g><g><path fill="none" stroke="#000000" paint-order="fill stroke markers" d=" M 419.16267485762415 194.790482243984 L 409 199 L 419.16267485762415 203.209517756016" stroke-miterlimit="10" stroke-dasharray=""/></g><g><rect fill="#ffffff" stroke="none" x="454" y="201" width="88.15625" height="13" transform="matrix(1 0 0 1 2 2)"/></g><g><g><path fill="none" stroke="none"/><text fill="#000000" stroke="none" font-family="Arial" font-size="13px" font-style="normal" font-weight="normal" text-decoration="undefined" x="498.078125" y="207.5" text-anchor="middle" dominant-baseline="central" transform="matrix(1 0 0 1 2 2)">5 : Return Lock</text></g></g><g><path fill="none" stroke="#000000" paint-order="fill stroke markers" d=" M 409 218 L 439 218 L 439 238 L 416 238" stroke-miterlimit="10" stroke-dasharray=""/></g><g><path fill="#000000" stroke="none" paint-order="stroke fill markers" d=" M 426.16267485762415 233.790482243984 L 416 238 L 426.16267485762415 242.209517756016"/></g><g><path fill="none" stroke="#000000" paint-order="fill stroke markers" d=" M 426.16267485762415 233.790482243984 L 416 238 L 426.16267485762415 242.209517756016 L 426.16267485762415 233.790482243984" stroke-miterlimit="10" stroke-dasharray=""/></g><g><rect fill="#ffffff" stroke="none" x="326" y="219" width="240.626953125" height="13" transform="matrix(1 0 0 1 2 2)"/></g><g><g><path fill="none" stroke="none"/><text fill="#000000" stroke="none" font-family="Arial" font-size="13px" font-style="normal" font-weight="normal" text-decoration="undefined" x="446.3134765625" y="225.5" text-anchor="middle" dominant-baseline="central" transform="matrix(1 0 0 1 2 2)">6 : load_settings_from_disk():AppSettings</text></g></g><g><rect fill="#ffffff" stroke="none" x="400" y="236" width="14" height="300" transform="matrix(1 0 0 1 2 2)"/></g><g><path fill="none" stroke="#000000" paint-order="fill stroke markers" d=" M 402 238 L 416 238 L 416 538 L 402 538 L 402 238 Z Z" stroke-miterlimit="10" stroke-dasharray=""/></g><g><path fill="none" stroke="#000000" paint-order="fill stroke markers" d=" M 416 258 L 446 258 L 446 278 L 423 278" stroke-miterlimit="10" stroke-dasharray=""/></g><g><path fill="#000000" stroke="none" paint-order="stroke fill markers" d=" M 433.16267485762415 273.790482243984 L 423 278 L 433.16267485762415 282.209517756016"/></g><g><path fill="none" stroke="#000000" paint-order="fill stroke markers" d=" M 433.16267485762415 273.790482243984 L 423 278 L 433.16267485762415 282.209517756016 L 433.16267485762415 273.790482243984" stroke-miterlimit="10" stroke-dasharray=""/></g><g><rect fill="#ffffff" stroke="none" x="374" y="259" width="159.71337890625" height="13" transform="matrix(1 0 0 1 2 2)"/></g><g><g><path fill="none" stroke="none"/><text fill="#000000" stroke="none" font-family="Arial" font-size="13px" font-style="normal" font-weight="normal" text-decoration="undefined" x="453.856689453125" y="265.5" text-anchor="middle" dominant-baseline="central" transform="matrix(1 0 0 1 2 2)">7 : get_settings_path():Path</text></g></g><g><rect fill="#ffffff" stroke="none" x="407" y="276" width="14" height="84" transform="matrix(1 0 0 1 2 2)"/></g><g><path fill="none" stroke="#000000" paint-order="fill stroke markers" d=" M 409 278 L 423 278 L 423 362 L 409 362 L 409 278 Z Z" stroke-miterlimit="10" stroke-dasharray=""/></g><g><path fill="none" stroke="#000000" paint-order="fill stroke markers" d=" M 423 306 L 453 306 L 453 326 L 430 326" stroke-miterlimit="10" stroke-dasharray=""/></g><g><path fill="#000000" stroke="none" paint-order="stroke fill markers" d=" M 440.16267485762415 321.790482243984 L 430 326 L 440.16267485762415 330.209517756016"/></g><g><path fill="none" stroke="#000000" paint-order="fill stroke markers" d=" M 440.16267485762415 321.790482243984 L 430 326 L 440.16267485762415 330.209517756016 L 440.16267485762415 321.790482243984" stroke-miterlimit="10" stroke-dasharray=""/></g><g><rect fill="#ffffff" stroke="none" x="392" y="307" width="136.576171875" height="13" transform="matrix(1 0 0 1 2 2)"/></g><g><g><path fill="none" stroke="none"/><text fill="#000000" stroke="none" font-family="Arial" font-size="13px" font-style="normal" font-weight="normal" text-decoration="undefined" x="460.2880859375" y="313.5" text-anchor="middle" dominant-baseline="central" transform="matrix(1 0 0 1 2 2)">8 : get_home_dir():Path</text></g></g><g><rect fill="#ffffff" stroke="none" x="414" y="324" width="14" height="28" transform="matrix(1 0 0 1 2 2)"/></g><g><path fill="none" stroke="#000000" paint-order="fill stroke markers" d=" M 416 326 L 430 326 L 430 354 L 416 354 L 416 326 Z Z" stroke-miterlimit="10" stroke-dasharray=""/></g><g><path fill="none" stroke="#000000" paint-order="fill stroke markers" d=" M 416 386 L 446 386 L 446 406 L 423 406" stroke-miterlimit="10" stroke-dasharray=""/></g><g><path fill="#000000" stroke="none" paint-order="stroke fill markers" d=" M 433.16267485762415 401.790482243984 L 423 406 L 433.16267485762415 410.209517756016"/></g><g><path fill="none" stroke="#000000" paint-order="fill stroke markers" d=" M 433.16267485762415 401.790482243984 L 423 406 L 433.16267485762415 410.209517756016 L 433.16267485762415 401.790482243984" stroke-miterlimit="10" stroke-dasharray=""/></g><g><rect fill="#ffffff" stroke="none" x="353" y="387" width="200.1669921875" height="13" transform="matrix(1 0 0 1 2 2)"/></g><g><g><path fill="none" stroke="none"/><text fill="#000000" stroke="none" font-family="Arial" font-size="13px" font-style="normal" font-weight="normal" text-decoration="undefined" x="453.08349609375" y="393.5" text-anchor="middle" dominant-baseline="central" transform="matrix(1 0 0 1 2 2)">9 : save_settings_to_disk(defaults)</text></g></g><g><rect fill="#ffffff" stroke="none" x="407" y="404" width="14" height="44" transform="matrix(1 0 0 1 2 2)"/></g><g><path fill="none" stroke="#000000" paint-order="fill stroke markers" d=" M 409 406 L 423 406 L 423 450 L 409 450 L 409 406 Z Z" stroke-miterlimit="10" stroke-dasharray=""/></g><g><path fill="none" stroke="#000000" paint-order="fill stroke markers" d=" M 423 419 L 770 419" stroke-miterlimit="10" stroke-dasharray=""/></g><g><path fill="#000000" stroke="none" paint-order="stroke fill markers" d=" M 759.8373251423759 423.209517756016 L 770 419 L 759.8373251423758 414.790482243984"/></g><g><path fill="none" stroke="#000000" paint-order="fill stroke markers" d=" M 759.8373251423759 423.209517756016 L 770 419 L 759.8373251423758 414.790482243984 L 759.8373251423759 423.209517756016" stroke-miterlimit="10" stroke-dasharray=""/></g><g><rect fill="#ffffff" stroke="none" x="545" y="401" width="98.73779296875" height="13" transform="matrix(1 0 0 1 2 2)"/></g><g><g><path fill="none" stroke="none"/><text fill="#000000" stroke="none" font-family="Arial" font-size="13px" font-style="normal" font-weight="normal" text-decoration="undefined" x="594.368896484375" y="407.5" text-anchor="middle" dominant-baseline="central" transform="matrix(1 0 0 1 2 2)">10 : WriteToDesk</text></g></g><g><rect fill="#ffffff" stroke="none" x="768" y="417" width="14" height="28" transform="matrix(1 0 0 1 2 2)"/></g><g><path fill="none" stroke="#000000" paint-order="fill stroke markers" d=" M 770 419 L 784 419 L 784 447 L 770 447 L 770 419 Z Z" stroke-miterlimit="10" stroke-dasharray=""/></g><g><path fill="none" stroke="#000000" paint-order="fill stroke markers" d=" M 770 435 L 423 435" stroke-miterlimit="10" stroke-dasharray="3"/></g><g><path fill="none" stroke="#000000" paint-order="fill stroke markers" d=" M 433.16267485762415 430.790482243984 L 423 435 L 433.16267485762415 439.209517756016" stroke-miterlimit="10" stroke-dasharray=""/></g><g><rect fill="#ffffff" stroke="none" x="552" y="437" width="83.5732421875" height="13" transform="matrix(1 0 0 1 2 2)"/></g><g><g><path fill="none" stroke="none"/><text fill="#000000" stroke="none" font-family="Arial" font-size="13px" font-style="normal" font-weight="normal" text-decoration="undefined" x="593.78662109375" y="443.5" text-anchor="middle" dominant-baseline="central" transform="matrix(1 0 0 1 2 2)">11 : Return Ok</text></g></g><g><path fill="none" stroke="#000000" paint-order="fill stroke markers" d=" M 416 479 L 770 479" stroke-miterlimit="10" stroke-dasharray=""/></g><g><path fill="#000000" stroke="none" paint-order="stroke fill markers" d=" M 759.8373251423759 483.209517756016 L 770 479 L 759.8373251423758 474.790482243984"/></g><g><path fill="none" stroke="#000000" paint-order="fill stroke markers" d=" M 759.8373251423759 483.209517756016 L 770 479 L 759.8373251423758 474.790482243984 L 759.8373251423759 483.209517756016" stroke-miterlimit="10" stroke-dasharray=""/></g><g><rect fill="#ffffff" stroke="none" x="533" y="461" width="116.32080078125" height="13" transform="matrix(1 0 0 1 2 2)"/></g><g><g><path fill="none" stroke="none"/><text fill="#000000" stroke="none" font-family="Arial" font-size="13px" font-style="normal" font-weight="normal" text-decoration="undefined" x="591.160400390625" y="467.5" text-anchor="middle" dominant-baseline="central" transform="matrix(1 0 0 1 2 2)">12 : ReadFromDesk</text></g></g><g><rect fill="#ffffff" stroke="none" x="768" y="477" width="14" height="28" transform="matrix(1 0 0 1 2 2)"/></g><g><path fill="none" stroke="#000000" paint-order="fill stroke markers" d=" M 770 479 L 784 479 L 784 507 L 770 507 L 770 479 Z Z" stroke-miterlimit="10" stroke-dasharray=""/></g><g><path fill="none" stroke="#000000" paint-order="fill stroke markers" d=" M 770 500 L 416 500" stroke-miterlimit="10" stroke-dasharray="3"/></g><g><path fill="none" stroke="#000000" paint-order="fill stroke markers" d=" M 426.16267485762415 495.790482243984 L 416 500 L 426.16267485762415 504.209517756016" stroke-miterlimit="10" stroke-dasharray=""/></g><g><rect fill="#ffffff" stroke="none" x="550" y="502" width="81.64990234375" height="13" transform="matrix(1 0 0 1 2 2)"/></g><g><g><path fill="none" stroke="none"/><text fill="#000000" stroke="none" font-family="Arial" font-size="13px" font-style="normal" font-weight="normal" text-decoration="undefined" x="590.824951171875" y="508.5" text-anchor="middle" dominant-baseline="central" transform="matrix(1 0 0 1 2 2)">13 : return OK</text></g></g><g><path fill="none" stroke="#000000" paint-order="fill stroke markers" d=" M 416 530 L 446 530 L 446 550 L 409 550" stroke-miterlimit="10" stroke-dasharray="3"/></g><g><path fill="none" stroke="#000000" paint-order="fill stroke markers" d=" M 419.16267485762415 545.790482243984 L 409 550 L 419.16267485762415 554.209517756016" stroke-miterlimit="10" stroke-dasharray=""/></g><g><rect fill="#ffffff" stroke="none" x="392" y="512" width="121.41162109375" height="13" transform="matrix(1 0 0 1 2 2)"/></g><g><g><path fill="none" stroke="none"/><text fill="#000000" stroke="none" font-family="Arial" font-size="13px" font-style="normal" font-weight="normal" text-decoration="undefined" x="452.705810546875" y="518.5" text-anchor="middle" dominant-baseline="central" transform="matrix(1 0 0 1 2 2)">14 : SettingsInstance</text></g></g><g><path fill="none" stroke="#000000" paint-order="fill stroke markers" d=" M 409 562 L 439 562 L 439 582 L 402 582" stroke-miterlimit="10" stroke-dasharray="3"/></g><g><path fill="none" stroke="#000000" paint-order="fill stroke markers" d=" M 412.16267485762415 577.790482243984 L 402 582 L 412.16267485762415 586.209517756016" stroke-miterlimit="10" stroke-dasharray=""/></g><g><rect fill="#ffffff" stroke="none" x="410" y="563" width="72.26806640625" height="13" transform="matrix(1 0 0 1 2 2)"/></g><g><g><path fill="none" stroke="none"/><text fill="#000000" stroke="none" font-family="Arial" font-size="13px" font-style="normal" font-weight="normal" text-decoration="undefined" x="446.134033203125" y="569.5" text-anchor="middle" dominant-baseline="central" transform="matrix(1 0 0 1 2 2)">15 : Settings</text></g></g><g><path fill="none" stroke="#000000" paint-order="fill stroke markers" d=" M 388 607 L 224 607" stroke-miterlimit="10" stroke-dasharray="3"/></g><g><path fill="none" stroke="#000000" paint-order="fill stroke markers" d=" M 234.16267485762415 602.790482243984 L 224 607 L 234.16267485762415 611.209517756016" stroke-miterlimit="10" stroke-dasharray=""/></g><g><rect fill="#ffffff" stroke="none" x="267" y="609" width="72.26806640625" height="13" transform="matrix(1 0 0 1 2 2)"/></g><g><g><path fill="none" stroke="none"/><text fill="#000000" stroke="none" font-family="Arial" font-size="13px" font-style="normal" font-weight="normal" text-decoration="undefined" x="303.134033203125" y="615.5" text-anchor="middle" dominant-baseline="central" transform="matrix(1 0 0 1 2 2)">16 : Settings</text></g></g><g><path fill="none" stroke="#000000" paint-order="fill stroke markers" d=" M 210 623 L 82 623" stroke-miterlimit="10" stroke-dasharray="3"/></g><g><path fill="none" stroke="#000000" paint-order="fill stroke markers" d=" M 92.16267485762415 618.790482243984 L 82 623 L 92.16267485762415 627.209517756016" stroke-miterlimit="10" stroke-dasharray=""/></g><g><rect fill="#ffffff" stroke="none" x="107" y="625" width="72.26806640625" height="13" transform="matrix(1 0 0 1 2 2)"/></g><g><g><path fill="none" stroke="none"/><text fill="#000000" stroke="none" font-family="Arial" font-size="13px" font-style="normal" font-weight="normal" text-decoration="undefined" x="143.134033203125" y="631.5" text-anchor="middle" dominant-baseline="central" transform="matrix(1 0 0 1 2 2)">17 : Settings</text></g></g><g><path fill="none" stroke="#000000" paint-order="fill stroke markers" d=" M 146 378 L 826 378 L 826 514 L 146 514 L 146 378" stroke-miterlimit="10" stroke-dasharray=""/></g><g><path fill="#FFF5D8" stroke="none" paint-order="stroke fill markers" d=" M 146 378 L 146 401 L 277.6162109375 401 L 289.1162109375 389.5 L 289.1162109375 378 L 146 378"/></g><g><path fill="none" stroke="#000000" paint-order="fill stroke markers" d=" M 146 378 L 146 401 L 277.6162109375 401 L 289.1162109375 389.5 L 289.1162109375 378 L 146 378 L 146 378" stroke-miterlimit="10" stroke-dasharray=""/></g><g><g><path fill="none" stroke="none"/><text fill="#000000" stroke="none" font-family="Arial" font-size="13px" font-style="normal" font-weight="normal" text-decoration="undefined" x="219.673095703125" y="387.5" text-anchor="middle" dominant-baseline="central" transform="matrix(1 0 0 1 2 2)">SettingsPathExist</text></g></g><g><g><path fill="none" stroke="none"/><text fill="#000000" stroke="none" font-family="Arial" font-size="13px" font-style="normal" font-weight="bold" text-decoration="undefined" x="155.864990234375" y="387.5" text-anchor="middle" dominant-baseline="central" transform="matrix(1 0 0 1 2 2)">alt</text></g></g><g><g><path fill="none" stroke="none"/><text fill="#000000" stroke="none" font-family="Arial" font-size="13px" font-style="normal" font-weight="normal" text-decoration="undefined" x="187.844970703125" y="420.5" text-anchor="middle" dominant-baseline="central" transform="matrix(1 0 0 1 2 2)">[FALSE]</text></g></g><g><path fill="none" stroke="#000000" paint-order="fill stroke markers" d=" M 146 458 L 825 458" stroke-miterlimit="10" stroke-dasharray="10,3"/></g><g><g><path fill="none" stroke="none"/><text fill="#000000" stroke="none" font-family="Arial" font-size="13px" font-style="normal" font-weight="normal" text-decoration="undefined" x="185.305908203125" y="477.5" text-anchor="middle" dominant-baseline="central" transform="matrix(1 0 0 1 2 2)">[TRUE]</text></g></g></g></svg>