<svg version="1.1" xmlns="http://www.w3.org/2000/svg" xmlns:xlink="http://www.w3.org/1999/xlink" width="394.45166015625" height="847"><defs/><g><g><rect fill="#C0C0C0" stroke="none" x="63" y="71" width="294.30517578125" height="73" transform="matrix(1 0 0 1 -46 -54)" fill-opacity="0.2"/></g><g><rect fill="#ffffff" stroke="none" x="56" y="64" width="294.30517578125" height="73" transform="matrix(1 0 0 1 -46 -54)"/></g><g><path fill="none" stroke="#000000" paint-order="fill stroke markers" d=" M 10 10 L 304.30517578125 10 L 304.30517578125 83 L 10 83 L 10 10 Z Z" stroke-miterlimit="10" stroke-dasharray=""/></g><g><path fill="none" stroke="#000000" paint-order="fill stroke markers" d=" M 10 50 L 304.30517578125 50" stroke-miterlimit="10" stroke-dasharray=""/></g><g><path fill="none" stroke="#000000" paint-order="fill stroke markers" d=" M 10 60 L 304.30517578125 60" stroke-miterlimit="10" stroke-dasharray=""/></g><g><g><path fill="none" stroke="none"/><text fill="#000000" stroke="none" font-family="Arial" font-size="13px" font-style="normal" font-weight="bold" text-decoration="undefined" x="203.652587890625" y="77.5" text-anchor="middle" dominant-baseline="central" transform="matrix(1 0 0 1 -46 -54)">SerdeJson</text></g></g><g><g><path fill="none" stroke="none"/><text fill="#000000" stroke="none" font-family="Arial" font-size="13px" font-style="normal" font-weight="normal" text-decoration="undefined" x="203.652587890625" y="92.5" text-anchor="middle" dominant-baseline="central" transform="matrix(1 0 0 1 -46 -54)">(from serde_json)</text></g></g><g><g><path fill="none" stroke="none"/><text fill="#000000" stroke="none" font-family="Arial" font-size="13px" font-style="normal" font-weight="normal" text-decoration="undefined" x="61" y="125.5" text-anchor="start" dominant-baseline="central" transform="matrix(1 0 0 1 -46 -54)">+from_str(json: String): Result&lt;Box&lt;Self&gt;, Error&gt;</text></g></g><g><rect fill="#C0C0C0" stroke="none" x="63" y="207" width="155.59619140625" height="178" transform="matrix(1 0 0 1 -46 -54)" fill-opacity="0.2"/></g><g><rect fill="#ffffff" stroke="none" x="56" y="200" width="155.59619140625" height="178" transform="matrix(1 0 0 1 -46 -54)"/></g><g><path fill="none" stroke="#000000" paint-order="fill stroke markers" d=" M 10 146 L 165.59619140625 146 L 165.59619140625 324 L 10 324 L 10 146 Z Z" stroke-miterlimit="10" stroke-dasharray=""/></g><g><path fill="none" stroke="#000000" paint-order="fill stroke markers" d=" M 10 186 L 165.59619140625 186" stroke-miterlimit="10" stroke-dasharray=""/></g><g><path fill="none" stroke="#000000" paint-order="fill stroke markers" d=" M 10 314 L 165.59619140625 314" stroke-miterlimit="10" stroke-dasharray=""/></g><g><g><path fill="none" stroke="none"/><text fill="#000000" stroke="none" font-family="Arial" font-size="13px" font-style="normal" font-weight="bold" text-decoration="undefined" x="134.298095703125" y="213.5" text-anchor="middle" dominant-baseline="central" transform="matrix(1 0 0 1 -46 -54)">Error</text></g></g><g><g><path fill="none" stroke="none"/><text fill="#000000" stroke="none" font-family="Arial" font-size="13px" font-style="normal" font-weight="normal" text-decoration="undefined" x="134.298095703125" y="228.5" text-anchor="middle" dominant-baseline="central" transform="matrix(1 0 0 1 -46 -54)">(from serde_json)</text></g></g><g><g><path fill="none" stroke="none"/><text fill="#000000" stroke="none" font-family="Arial" font-size="13px" font-style="normal" font-weight="normal" text-decoration="undefined" x="61" y="251.5" text-anchor="start" dominant-baseline="central" transform="matrix(1 0 0 1 -46 -54)">+line: usize</text></g></g><g><g><path fill="none" stroke="none"/><text fill="#000000" stroke="none" font-family="Arial" font-size="13px" font-style="normal" font-weight="normal" text-decoration="undefined" x="61" y="266.5" text-anchor="start" dominant-baseline="central" transform="matrix(1 0 0 1 -46 -54)">+column: usize</text></g></g><g><g><path fill="none" stroke="none"/><text fill="#000000" stroke="none" font-family="Arial" font-size="13px" font-style="normal" font-weight="normal" text-decoration="undefined" x="61" y="281.5" text-anchor="start" dominant-baseline="central" transform="matrix(1 0 0 1 -46 -54)">+classify: Category</text></g></g><g><g><path fill="none" stroke="none"/><text fill="#000000" stroke="none" font-family="Arial" font-size="13px" font-style="normal" font-weight="normal" text-decoration="undefined" x="61" y="296.5" text-anchor="start" dominant-baseline="central" transform="matrix(1 0 0 1 -46 -54)">+is_io: bool</text></g></g><g><g><path fill="none" stroke="none"/><text fill="#000000" stroke="none" font-family="Arial" font-size="13px" font-style="normal" font-weight="normal" text-decoration="undefined" x="61" y="311.5" text-anchor="start" dominant-baseline="central" transform="matrix(1 0 0 1 -46 -54)">+is_syntax: bool</text></g></g><g><g><path fill="none" stroke="none"/><text fill="#000000" stroke="none" font-family="Arial" font-size="13px" font-style="normal" font-weight="normal" text-decoration="undefined" x="61" y="326.5" text-anchor="start" dominant-baseline="central" transform="matrix(1 0 0 1 -46 -54)">+is_data: bool</text></g></g><g><g><path fill="none" stroke="none"/><text fill="#000000" stroke="none" font-family="Arial" font-size="13px" font-style="normal" font-weight="normal" text-decoration="undefined" x="61" y="341.5" text-anchor="start" dominant-baseline="central" transform="matrix(1 0 0 1 -46 -54)">+is_eof: bool</text></g></g><g><g><path fill="none" stroke="none"/><text fill="#000000" stroke="none" font-family="Arial" font-size="13px" font-style="normal" font-weight="normal" text-decoration="undefined" x="61" y="356.5" text-anchor="start" dominant-baseline="central" transform="matrix(1 0 0 1 -46 -54)">+io_error_kind: ErrorKind</text></g></g><g><rect fill="#C0C0C0" stroke="none" x="63" y="447" width="111.8671875" height="121" transform="matrix(1 0 0 1 -46 -54)" fill-opacity="0.2"/></g><g><rect fill="#ffffff" stroke="none" x="56" y="440" width="111.8671875" height="121" transform="matrix(1 0 0 1 -46 -54)"/></g><g><path fill="none" stroke="#000000" paint-order="fill stroke markers" d=" M 10 386 L 121.8671875 386 L 121.8671875 507 L 10 507 L 10 386 Z Z" stroke-miterlimit="10" stroke-dasharray=""/></g><g><path fill="none" stroke="#000000" paint-order="fill stroke markers" d=" M 10 439 L 121.8671875 439" stroke-miterlimit="10" stroke-dasharray=""/></g><g><g><path fill="none" stroke="none"/><text fill="#000000" stroke="none" font-family="Arial" font-size="13px" font-style="normal" font-weight="normal" text-decoration="undefined" x="112.43359375" y="451.5" text-anchor="middle" dominant-baseline="central" transform="matrix(1 0 0 1 -46 -54)">«enumeration»</text></g></g><g><g><path fill="none" stroke="none"/><text fill="#000000" stroke="none" font-family="Arial" font-size="13px" font-style="normal" font-weight="bold" text-decoration="undefined" x="112.43359375" y="466.5" text-anchor="middle" dominant-baseline="central" transform="matrix(1 0 0 1 -46 -54)">Category</text></g></g><g><g><path fill="none" stroke="none"/><text fill="#000000" stroke="none" font-family="Arial" font-size="13px" font-style="normal" font-weight="normal" text-decoration="undefined" x="112.43359375" y="481.5" text-anchor="middle" dominant-baseline="central" transform="matrix(1 0 0 1 -46 -54)">(from serde_json)</text></g></g><g><g><path fill="none" stroke="none"/><text fill="#000000" stroke="none" font-family="Arial" font-size="13px" font-style="normal" font-weight="normal" text-decoration="undefined" x="61" y="504.5" text-anchor="start" dominant-baseline="central" transform="matrix(1 0 0 1 -46 -54)">Io</text></g></g><g><g><path fill="none" stroke="none"/><text fill="#000000" stroke="none" font-family="Arial" font-size="13px" font-style="normal" font-weight="normal" text-decoration="undefined" x="61" y="519.5" text-anchor="start" dominant-baseline="central" transform="matrix(1 0 0 1 -46 -54)">Syntax</text></g></g><g><g><path fill="none" stroke="none"/><text fill="#000000" stroke="none" font-family="Arial" font-size="13px" font-style="normal" font-weight="normal" text-decoration="undefined" x="61" y="534.5" text-anchor="start" dominant-baseline="central" transform="matrix(1 0 0 1 -46 -54)">Data</text></g></g><g><g><path fill="none" stroke="none"/><text fill="#000000" stroke="none" font-family="Arial" font-size="13px" font-style="normal" font-weight="normal" text-decoration="undefined" x="61" y="549.5" text-anchor="start" dominant-baseline="central" transform="matrix(1 0 0 1 -46 -54)">Eof</text></g></g><g><rect fill="#C0C0C0" stroke="none" x="287" y="207" width="149.45166015625" height="691" transform="matrix(1 0 0 1 -46 -54)" fill-opacity="0.2"/></g><g><rect fill="#ffffff" stroke="none" x="280" y="200" width="149.45166015625" height="691" transform="matrix(1 0 0 1 -46 -54)"/></g><g><path fill="none" stroke="#000000" paint-order="fill stroke markers" d=" M 234 146 L 383.45166015625 146 L 383.45166015625 837 L 234 837 L 234 146 Z Z" stroke-miterlimit="10" stroke-dasharray=""/></g><g><path fill="none" stroke="#000000" paint-order="fill stroke markers" d=" M 234 199 L 383.45166015625 199" stroke-miterlimit="10" stroke-dasharray=""/></g><g><g><path fill="none" stroke="none"/><text fill="#000000" stroke="none" font-family="Arial" font-size="13px" font-style="normal" font-weight="normal" text-decoration="undefined" x="355.225830078125" y="211.5" text-anchor="middle" dominant-baseline="central" transform="matrix(1 0 0 1 -46 -54)">«enumeration»</text></g></g><g><g><path fill="none" stroke="none"/><text fill="#000000" stroke="none" font-family="Arial" font-size="13px" font-style="normal" font-weight="bold" text-decoration="undefined" x="355.225830078125" y="226.5" text-anchor="middle" dominant-baseline="central" transform="matrix(1 0 0 1 -46 -54)">ErrorKind</text></g></g><g><g><path fill="none" stroke="none"/><text fill="#000000" stroke="none" font-family="Arial" font-size="13px" font-style="normal" font-weight="normal" text-decoration="undefined" x="355.225830078125" y="241.5" text-anchor="middle" dominant-baseline="central" transform="matrix(1 0 0 1 -46 -54)">(from serde_json)</text></g></g><g><g><path fill="none" stroke="none"/><text fill="#000000" stroke="none" font-family="Arial" font-size="13px" font-style="normal" font-weight="normal" text-decoration="undefined" x="285" y="264.5" text-anchor="start" dominant-baseline="central" transform="matrix(1 0 0 1 -46 -54)">AddrInUse</text></g></g><g><g><path fill="none" stroke="none"/><text fill="#000000" stroke="none" font-family="Arial" font-size="13px" font-style="normal" font-weight="normal" text-decoration="undefined" x="285" y="279.5" text-anchor="start" dominant-baseline="central" transform="matrix(1 0 0 1 -46 -54)">AddrNotAvailable</text></g></g><g><g><path fill="none" stroke="none"/><text fill="#000000" stroke="none" font-family="Arial" font-size="13px" font-style="normal" font-weight="normal" text-decoration="undefined" x="285" y="294.5" text-anchor="start" dominant-baseline="central" transform="matrix(1 0 0 1 -46 -54)">AlreadyExists</text></g></g><g><g><path fill="none" stroke="none"/><text fill="#000000" stroke="none" font-family="Arial" font-size="13px" font-style="normal" font-weight="normal" text-decoration="undefined" x="285" y="309.5" text-anchor="start" dominant-baseline="central" transform="matrix(1 0 0 1 -46 -54)">ArgumentListTooLong</text></g></g><g><g><path fill="none" stroke="none"/><text fill="#000000" stroke="none" font-family="Arial" font-size="13px" font-style="normal" font-weight="normal" text-decoration="undefined" x="285" y="324.5" text-anchor="start" dominant-baseline="central" transform="matrix(1 0 0 1 -46 -54)">BrokenPipe</text></g></g><g><g><path fill="none" stroke="none"/><text fill="#000000" stroke="none" font-family="Arial" font-size="13px" font-style="normal" font-weight="normal" text-decoration="undefined" x="285" y="339.5" text-anchor="start" dominant-baseline="central" transform="matrix(1 0 0 1 -46 -54)">ConnectionAborted</text></g></g><g><g><path fill="none" stroke="none"/><text fill="#000000" stroke="none" font-family="Arial" font-size="13px" font-style="normal" font-weight="normal" text-decoration="undefined" x="285" y="354.5" text-anchor="start" dominant-baseline="central" transform="matrix(1 0 0 1 -46 -54)">ConnectionRefused</text></g></g><g><g><path fill="none" stroke="none"/><text fill="#000000" stroke="none" font-family="Arial" font-size="13px" font-style="normal" font-weight="normal" text-decoration="undefined" x="285" y="369.5" text-anchor="start" dominant-baseline="central" transform="matrix(1 0 0 1 -46 -54)">ConnectionReset</text></g></g><g><g><path fill="none" stroke="none"/><text fill="#000000" stroke="none" font-family="Arial" font-size="13px" font-style="normal" font-weight="normal" text-decoration="undefined" x="285" y="384.5" text-anchor="start" dominant-baseline="central" transform="matrix(1 0 0 1 -46 -54)">CrossesDevices</text></g></g><g><g><path fill="none" stroke="none"/><text fill="#000000" stroke="none" font-family="Arial" font-size="13px" font-style="normal" font-weight="normal" text-decoration="undefined" x="285" y="399.5" text-anchor="start" dominant-baseline="central" transform="matrix(1 0 0 1 -46 -54)">Deadlock</text></g></g><g><g><path fill="none" stroke="none"/><text fill="#000000" stroke="none" font-family="Arial" font-size="13px" font-style="normal" font-weight="normal" text-decoration="undefined" x="285" y="414.5" text-anchor="start" dominant-baseline="central" transform="matrix(1 0 0 1 -46 -54)">DirectoryNotEmpty</text></g></g><g><g><path fill="none" stroke="none"/><text fill="#000000" stroke="none" font-family="Arial" font-size="13px" font-style="normal" font-weight="normal" text-decoration="undefined" x="285" y="429.5" text-anchor="start" dominant-baseline="central" transform="matrix(1 0 0 1 -46 -54)">ExecutableFileBusy</text></g></g><g><g><path fill="none" stroke="none"/><text fill="#000000" stroke="none" font-family="Arial" font-size="13px" font-style="normal" font-weight="normal" text-decoration="undefined" x="285" y="444.5" text-anchor="start" dominant-baseline="central" transform="matrix(1 0 0 1 -46 -54)">FileTooLarge</text></g></g><g><g><path fill="none" stroke="none"/><text fill="#000000" stroke="none" font-family="Arial" font-size="13px" font-style="normal" font-weight="normal" text-decoration="undefined" x="285" y="459.5" text-anchor="start" dominant-baseline="central" transform="matrix(1 0 0 1 -46 -54)">FilesystemLoop</text></g></g><g><g><path fill="none" stroke="none"/><text fill="#000000" stroke="none" font-family="Arial" font-size="13px" font-style="normal" font-weight="normal" text-decoration="undefined" x="285" y="474.5" text-anchor="start" dominant-baseline="central" transform="matrix(1 0 0 1 -46 -54)">HostUnreachable</text></g></g><g><g><path fill="none" stroke="none"/><text fill="#000000" stroke="none" font-family="Arial" font-size="13px" font-style="normal" font-weight="normal" text-decoration="undefined" x="285" y="489.5" text-anchor="start" dominant-baseline="central" transform="matrix(1 0 0 1 -46 -54)">InProgress</text></g></g><g><g><path fill="none" stroke="none"/><text fill="#000000" stroke="none" font-family="Arial" font-size="13px" font-style="normal" font-weight="normal" text-decoration="undefined" x="285" y="504.5" text-anchor="start" dominant-baseline="central" transform="matrix(1 0 0 1 -46 -54)">Interrupted</text></g></g><g><g><path fill="none" stroke="none"/><text fill="#000000" stroke="none" font-family="Arial" font-size="13px" font-style="normal" font-weight="normal" text-decoration="undefined" x="285" y="519.5" text-anchor="start" dominant-baseline="central" transform="matrix(1 0 0 1 -46 -54)">InvalidData</text></g></g><g><g><path fill="none" stroke="none"/><text fill="#000000" stroke="none" font-family="Arial" font-size="13px" font-style="normal" font-weight="normal" text-decoration="undefined" x="285" y="534.5" text-anchor="start" dominant-baseline="central" transform="matrix(1 0 0 1 -46 -54)">InvalidFilename</text></g></g><g><g><path fill="none" stroke="none"/><text fill="#000000" stroke="none" font-family="Arial" font-size="13px" font-style="normal" font-weight="normal" text-decoration="undefined" x="285" y="549.5" text-anchor="start" dominant-baseline="central" transform="matrix(1 0 0 1 -46 -54)">InvalidInput</text></g></g><g><g><path fill="none" stroke="none"/><text fill="#000000" stroke="none" font-family="Arial" font-size="13px" font-style="normal" font-weight="normal" text-decoration="undefined" x="285" y="564.5" text-anchor="start" dominant-baseline="central" transform="matrix(1 0 0 1 -46 -54)">IsADirectory</text></g></g><g><g><path fill="none" stroke="none"/><text fill="#000000" stroke="none" font-family="Arial" font-size="13px" font-style="normal" font-weight="normal" text-decoration="undefined" x="285" y="579.5" text-anchor="start" dominant-baseline="central" transform="matrix(1 0 0 1 -46 -54)">NetworkDown</text></g></g><g><g><path fill="none" stroke="none"/><text fill="#000000" stroke="none" font-family="Arial" font-size="13px" font-style="normal" font-weight="normal" text-decoration="undefined" x="285" y="594.5" text-anchor="start" dominant-baseline="central" transform="matrix(1 0 0 1 -46 -54)">NetworkUnreachable</text></g></g><g><g><path fill="none" stroke="none"/><text fill="#000000" stroke="none" font-family="Arial" font-size="13px" font-style="normal" font-weight="normal" text-decoration="undefined" x="285" y="609.5" text-anchor="start" dominant-baseline="central" transform="matrix(1 0 0 1 -46 -54)">NotADirectory</text></g></g><g><g><path fill="none" stroke="none"/><text fill="#000000" stroke="none" font-family="Arial" font-size="13px" font-style="normal" font-weight="normal" text-decoration="undefined" x="285" y="624.5" text-anchor="start" dominant-baseline="central" transform="matrix(1 0 0 1 -46 -54)">NotConnected</text></g></g><g><g><path fill="none" stroke="none"/><text fill="#000000" stroke="none" font-family="Arial" font-size="13px" font-style="normal" font-weight="normal" text-decoration="undefined" x="285" y="639.5" text-anchor="start" dominant-baseline="central" transform="matrix(1 0 0 1 -46 -54)">NotFound</text></g></g><g><g><path fill="none" stroke="none"/><text fill="#000000" stroke="none" font-family="Arial" font-size="13px" font-style="normal" font-weight="normal" text-decoration="undefined" x="285" y="654.5" text-anchor="start" dominant-baseline="central" transform="matrix(1 0 0 1 -46 -54)">NotSeekable</text></g></g><g><g><path fill="none" stroke="none"/><text fill="#000000" stroke="none" font-family="Arial" font-size="13px" font-style="normal" font-weight="normal" text-decoration="undefined" x="285" y="669.5" text-anchor="start" dominant-baseline="central" transform="matrix(1 0 0 1 -46 -54)">Other</text></g></g><g><g><path fill="none" stroke="none"/><text fill="#000000" stroke="none" font-family="Arial" font-size="13px" font-style="normal" font-weight="normal" text-decoration="undefined" x="285" y="684.5" text-anchor="start" dominant-baseline="central" transform="matrix(1 0 0 1 -46 -54)">OutOfMemory</text></g></g><g><g><path fill="none" stroke="none"/><text fill="#000000" stroke="none" font-family="Arial" font-size="13px" font-style="normal" font-weight="normal" text-decoration="undefined" x="285" y="699.5" text-anchor="start" dominant-baseline="central" transform="matrix(1 0 0 1 -46 -54)">PermissionDenied</text></g></g><g><g><path fill="none" stroke="none"/><text fill="#000000" stroke="none" font-family="Arial" font-size="13px" font-style="normal" font-weight="normal" text-decoration="undefined" x="285" y="714.5" text-anchor="start" dominant-baseline="central" transform="matrix(1 0 0 1 -46 -54)">QuotaExceeded</text></g></g><g><g><path fill="none" stroke="none"/><text fill="#000000" stroke="none" font-family="Arial" font-size="13px" font-style="normal" font-weight="normal" text-decoration="undefined" x="285" y="729.5" text-anchor="start" dominant-baseline="central" transform="matrix(1 0 0 1 -46 -54)">ReadOnlyFilesystem</text></g></g><g><g><path fill="none" stroke="none"/><text fill="#000000" stroke="none" font-family="Arial" font-size="13px" font-style="normal" font-weight="normal" text-decoration="undefined" x="285" y="744.5" text-anchor="start" dominant-baseline="central" transform="matrix(1 0 0 1 -46 -54)">ResourceBusy</text></g></g><g><g><path fill="none" stroke="none"/><text fill="#000000" stroke="none" font-family="Arial" font-size="13px" font-style="normal" font-weight="normal" text-decoration="undefined" x="285" y="759.5" text-anchor="start" dominant-baseline="central" transform="matrix(1 0 0 1 -46 -54)">StaleNetworkFileHandle</text></g></g><g><g><path fill="none" stroke="none"/><text fill="#000000" stroke="none" font-family="Arial" font-size="13px" font-style="normal" font-weight="normal" text-decoration="undefined" x="285" y="774.5" text-anchor="start" dominant-baseline="central" transform="matrix(1 0 0 1 -46 -54)">StorageFull</text></g></g><g><g><path fill="none" stroke="none"/><text fill="#000000" stroke="none" font-family="Arial" font-size="13px" font-style="normal" font-weight="normal" text-decoration="undefined" x="285" y="789.5" text-anchor="start" dominant-baseline="central" transform="matrix(1 0 0 1 -46 -54)">TimedOut</text></g></g><g><g><path fill="none" stroke="none"/><text fill="#000000" stroke="none" font-family="Arial" font-size="13px" font-style="normal" font-weight="normal" text-decoration="undefined" x="285" y="804.5" text-anchor="start" dominant-baseline="central" transform="matrix(1 0 0 1 -46 -54)">TooManyLinks</text></g></g><g><g><path fill="none" stroke="none"/><text fill="#000000" stroke="none" font-family="Arial" font-size="13px" font-style="normal" font-weight="normal" text-decoration="undefined" x="285" y="819.5" text-anchor="start" dominant-baseline="central" transform="matrix(1 0 0 1 -46 -54)">Uncategorized</text></g></g><g><g><path fill="none" stroke="none"/><text fill="#000000" stroke="none" font-family="Arial" font-size="13px" font-style="normal" font-weight="normal" text-decoration="undefined" x="285" y="834.5" text-anchor="start" dominant-baseline="central" transform="matrix(1 0 0 1 -46 -54)">UnexpectedEof</text></g></g><g><g><path fill="none" stroke="none"/><text fill="#000000" stroke="none" font-family="Arial" font-size="13px" font-style="normal" font-weight="normal" text-decoration="undefined" x="285" y="849.5" text-anchor="start" dominant-baseline="central" transform="matrix(1 0 0 1 -46 -54)">Unsupported</text></g></g><g><g><path fill="none" stroke="none"/><text fill="#000000" stroke="none" font-family="Arial" font-size="13px" font-style="normal" font-weight="normal" text-decoration="undefined" x="285" y="864.5" text-anchor="start" dominant-baseline="central" transform="matrix(1 0 0 1 -46 -54)">WouldBlock</text></g></g><g><g><path fill="none" stroke="none"/><text fill="#000000" stroke="none" font-family="Arial" font-size="13px" font-style="normal" font-weight="normal" text-decoration="undefined" x="285" y="879.5" text-anchor="start" dominant-baseline="central" transform="matrix(1 0 0 1 -46 -54)">WriteZero</text></g></g><g><path fill="none" stroke="#000000" paint-order="fill stroke markers" d=" M 234 282 L 166 282" stroke-miterlimit="10" stroke-dasharray=""/></g><g><path fill="#000000" stroke="none" paint-order="stroke fill markers" d=" M 176.16267485762415 277.790482243984 L 166 282 L 176.16267485762415 286.209517756016 L 188 282"/></g><g><path fill="none" stroke="#000000" paint-order="fill stroke markers" d=" M 176.16267485762415 277.790482243984 L 166 282 L 176.16267485762415 286.209517756016 L 188 282 L 176.16267485762415 277.790482243984" stroke-miterlimit="10" stroke-dasharray=""/></g><g><path fill="none" stroke="#000000" paint-order="fill stroke markers" d=" M 78 386 L 78 324" stroke-miterlimit="10" stroke-dasharray=""/></g><g><path fill="#000000" stroke="none" paint-order="stroke fill markers" d=" M 82.209517756016 334.16267485762415 L 78 324 L 73.79048224398402 334.16267485762415 L 78 346"/></g><g><path fill="none" stroke="#000000" paint-order="fill stroke markers" d=" M 82.209517756016 334.16267485762415 L 78 324 L 73.79048224398402 334.16267485762415 L 78 346 L 82.209517756016 334.16267485762415" stroke-miterlimit="10" stroke-dasharray=""/></g><g><path fill="none" stroke="#000000" paint-order="fill stroke markers" d=" M 82 146 L 82 83" stroke-miterlimit="10" stroke-dasharray=""/></g><g><path fill="#000000" stroke="none" paint-order="stroke fill markers" d=" M 86.209517756016 93.16267485762415 L 82 83 L 77.79048224398402 93.16267485762415 L 82 105"/></g><g><path fill="none" stroke="#000000" paint-order="fill stroke markers" d=" M 86.209517756016 93.16267485762415 L 82 83 L 77.79048224398402 93.16267485762415 L 82 105 L 86.209517756016 93.16267485762415" stroke-miterlimit="10" stroke-dasharray=""/></g></g></svg>