<svg version="1.1" xmlns="http://www.w3.org/2000/svg" xmlns:xlink="http://www.w3.org/1999/xlink" width="666.44091796875" height="158"><defs/><g><g><rect fill="#C0C0C0" stroke="none" x="49" y="95" width="482.16650390625" height="138" transform="matrix(1 0 0 1 -22 -78)" fill-opacity="0.2"/></g><g><rect fill="#ffffff" stroke="none" x="42" y="88" width="482.16650390625" height="138" transform="matrix(1 0 0 1 -22 -78)"/></g><g><path fill="none" stroke="#000000" paint-order="fill stroke markers" d=" M 20 10 L 502.16650390625 10 L 502.16650390625 148 L 20 148 L 20 10 Z Z" stroke-miterlimit="10" stroke-dasharray=""/></g><g><rect fill="#ffffff" stroke="none" x="32" y="95" width="20" height="10" transform="matrix(1 0 0 1 -22 -78)"/></g><g><path fill="none" stroke="#000000" paint-order="fill stroke markers" d=" M 10 17 L 30 17 L 30 27 L 10 27 L 10 17 Z Z" stroke-miterlimit="10" stroke-dasharray=""/></g><g><rect fill="#ffffff" stroke="none" x="32" y="115" width="20" height="10" transform="matrix(1 0 0 1 -22 -78)"/></g><g><path fill="none" stroke="#000000" paint-order="fill stroke markers" d=" M 10 37 L 30 37 L 30 47 L 10 47 L 10 37 Z Z" stroke-miterlimit="10" stroke-dasharray=""/></g><g><path fill="none" stroke="#000000" paint-order="fill stroke markers" d=" M 30 35 L 502.16650390625 35" stroke-miterlimit="10" stroke-dasharray=""/></g><g><g><path fill="none" stroke="none"/><text fill="#000000" stroke="none" font-family="Arial" font-size="13px" font-style="normal" font-weight="bold" text-decoration="undefined" x="288.583251953125" y="101.5" text-anchor="middle" dominant-baseline="central" transform="matrix(1 0 0 1 -22 -78)">Engine</text></g></g><g><g><path fill="none" stroke="none"/><text fill="#000000" stroke="none" font-family="Arial" font-size="13px" font-style="normal" font-weight="normal" text-decoration="undefined" x="57" y="124.5" text-anchor="start" dominant-baseline="central" transform="matrix(1 0 0 1 -22 -78)">+parse(input: String): Result&lt;JsonNode, Vec&lt;Diagnostic&gt;&gt;</text></g></g><g><g><path fill="none" stroke="none"/><text fill="#000000" stroke="none" font-family="Arial" font-size="13px" font-style="normal" font-weight="normal" text-decoration="undefined" x="57" y="139.5" text-anchor="start" dominant-baseline="central" transform="matrix(1 0 0 1 -22 -78)">+tolerant_parse(input: String): (Option&lt;JsonNode&gt;, Vec&lt;Diagnostic&gt;)</text></g></g><g><g><path fill="none" stroke="none"/><text fill="#000000" stroke="none" font-family="Arial" font-size="13px" font-style="normal" font-weight="normal" text-decoration="undefined" x="57" y="154.5" text-anchor="start" dominant-baseline="central" transform="matrix(1 0 0 1 -22 -78)">+format(node: JsonNode, opts: FormatOptions): String</text></g></g><g><g><path fill="none" stroke="none"/><text fill="#000000" stroke="none" font-family="Arial" font-size="13px" font-style="normal" font-weight="normal" text-decoration="undefined" x="57" y="169.5" text-anchor="start" dominant-baseline="central" transform="matrix(1 0 0 1 -22 -78)">+minify(node: JsonNode): String</text></g></g><g><g><path fill="none" stroke="none"/><text fill="#000000" stroke="none" font-family="Arial" font-size="13px" font-style="normal" font-weight="normal" text-decoration="undefined" x="57" y="184.5" text-anchor="start" dominant-baseline="central" transform="matrix(1 0 0 1 -22 -78)">+evaluate_path(node: JsonNode, path: String): Result&lt;Vec&lt;JsonNode&gt;, String&gt;</text></g></g><g><g><path fill="none" stroke="none"/><text fill="#000000" stroke="none" font-family="Arial" font-size="13px" font-style="normal" font-weight="normal" text-decoration="undefined" x="57" y="199.5" text-anchor="start" dominant-baseline="central" transform="matrix(1 0 0 1 -22 -78)">+completions_at(node: JsonNode, path_prefix: String): Vec&lt;CompletionItem&gt;</text></g></g><g><g><path fill="none" stroke="none"/><text fill="#000000" stroke="none" font-family="Arial" font-size="13px" font-style="normal" font-weight="normal" text-decoration="undefined" x="57" y="214.5" text-anchor="start" dominant-baseline="central" transform="matrix(1 0 0 1 -22 -78)">+diagnostics(input: String): Vec&lt;Diagnostic&gt;</text></g></g><g><rect fill="#C0C0C0" stroke="none" x="585" y="103" width="99.44091796875" height="45" transform="matrix(1 0 0 1 -22 -78)" fill-opacity="0.2"/></g><g><rect fill="#ffffff" stroke="none" x="578" y="96" width="99.44091796875" height="45" transform="matrix(1 0 0 1 -22 -78)"/></g><g><path fill="none" stroke="#000000" paint-order="fill stroke markers" d=" M 556 18 L 655.44091796875 18 L 655.44091796875 63 L 556 63 L 556 18 Z Z" stroke-miterlimit="10" stroke-dasharray=""/></g><g><rect fill="#ffffff" stroke="none" x="568" y="103" width="20" height="10" transform="matrix(1 0 0 1 -22 -78)"/></g><g><path fill="none" stroke="#000000" paint-order="fill stroke markers" d=" M 546 25 L 566 25 L 566 35 L 546 35 L 546 25 Z Z" stroke-miterlimit="10" stroke-dasharray=""/></g><g><rect fill="#ffffff" stroke="none" x="568" y="123" width="20" height="10" transform="matrix(1 0 0 1 -22 -78)"/></g><g><path fill="none" stroke="#000000" paint-order="fill stroke markers" d=" M 546 45 L 566 45 L 566 55 L 546 55 L 546 45 Z Z" stroke-miterlimit="10" stroke-dasharray=""/></g><g><g><path fill="none" stroke="none"/><text fill="#000000" stroke="none" font-family="Arial" font-size="13px" font-style="normal" font-weight="bold" text-decoration="undefined" x="633.220458984375" y="109.5" text-anchor="middle" dominant-baseline="central" transform="matrix(1 0 0 1 -22 -78)">macOS</text></g></g></g></svg>