<svg version="1.1" xmlns="http://www.w3.org/2000/svg" xmlns:xlink="http://www.w3.org/1999/xlink" width="1036" height="772"><defs/><g><g><path fill="none" stroke="#000000" paint-order="fill stroke markers" d=" M 10 10 L 1026 10 L 1026 762 L 10 762 L 10 10" stroke-miterlimit="10" stroke-dasharray=""/></g><g><path fill="#FFEBD8" stroke="none" paint-order="stroke fill markers" d=" M 10 10 L 10 33 L 194.35888671875 33 L 205.85888671875 21.5 L 205.85888671875 10 L 10 10"/></g><g><path fill="none" stroke="#000000" paint-order="fill stroke markers" d=" M 10 10 L 10 33 L 194.35888671875 33 L 205.85888671875 21.5 L 205.85888671875 10 L 10 10 L 10 10" stroke-miterlimit="10" stroke-dasharray=""/></g><g><g><path fill="none" stroke="none"/><text fill="#000000" stroke="none" font-family="Arial" font-size="13px" font-style="normal" font-weight="normal" text-decoration="undefined" x="110.04443359375" y="19.5" text-anchor="middle" dominant-baseline="central" transform="matrix(1 0 0 1 2 2)">CallingParse::CallingParse</text></g></g><g><g><path fill="none" stroke="none"/><text fill="#000000" stroke="none" font-family="Arial" font-size="13px" font-style="normal" font-weight="bold" text-decoration="undefined" x="19.864990234375" y="19.5" text-anchor="middle" dominant-baseline="central" transform="matrix(1 0 0 1 2 2)">sd</text></g></g><g><rect fill="#C0C0C0" stroke="none" x="23" y="47" width="131.97265625" height="40" transform="matrix(1 0 0 1 2 2)" fill-opacity="0.2"/></g><g><rect fill="#ffffff" stroke="none" x="16" y="40" width="131.97265625" height="40" transform="matrix(1 0 0 1 2 2)"/></g><g><path fill="none" stroke="#000000" paint-order="fill stroke markers" d=" M 18 42 L 149.97265625 42 L 149.97265625 82 L 18 82 L 18 42 Z Z" stroke-miterlimit="10" stroke-dasharray=""/></g><g><g><path fill="none" stroke="none"/><text fill="#000000" stroke="none" font-family="Arial" font-size="13px" font-style="normal" font-weight="bold" text-decoration="undefined" x="82.486328125" y="53.5" text-anchor="middle" dominant-baseline="central" transform="matrix(1 0 0 1 2 2)">Caller: macOS</text></g></g><g><g><path fill="none" stroke="none"/><text fill="#000000" stroke="none" font-family="Arial" font-size="13px" font-style="normal" font-weight="normal" text-decoration="undefined" x="82.486328125" y="68.5" text-anchor="middle" dominant-baseline="central" transform="matrix(1 0 0 1 2 2)">(from CallingParse)</text></g></g><g><path fill="none" stroke="#000000" paint-order="fill stroke markers" d=" M 84.5 83 L 84.5 754" stroke-miterlimit="10" stroke-dasharray="3"/></g><g><rect fill="#C0C0C0" stroke="none" x="159" y="47" width="131.97265625" height="40" transform="matrix(1 0 0 1 2 2)" fill-opacity="0.2"/></g><g><rect fill="#ffffff" stroke="none" x="152" y="40" width="131.97265625" height="40" transform="matrix(1 0 0 1 2 2)"/></g><g><path fill="none" stroke="#000000" paint-order="fill stroke markers" d=" M 154 42 L 285.97265625 42 L 285.97265625 82 L 154 82 L 154 42 Z Z" stroke-miterlimit="10" stroke-dasharray=""/></g><g><g><path fill="none" stroke="none"/><text fill="#000000" stroke="none" font-family="Arial" font-size="13px" font-style="normal" font-weight="bold" text-decoration="undefined" x="218.486328125" y="53.5" text-anchor="middle" dominant-baseline="central" transform="matrix(1 0 0 1 2 2)">Engine: Engine</text></g></g><g><g><path fill="none" stroke="none"/><text fill="#000000" stroke="none" font-family="Arial" font-size="13px" font-style="normal" font-weight="normal" text-decoration="undefined" x="218.486328125" y="68.5" text-anchor="middle" dominant-baseline="central" transform="matrix(1 0 0 1 2 2)">(from CallingParse)</text></g></g><g><path fill="none" stroke="#000000" paint-order="fill stroke markers" d=" M 220.5 83 L 220.5 754" stroke-miterlimit="10" stroke-dasharray="3"/></g><g><rect fill="#C0C0C0" stroke="none" x="295" y="47" width="160.88623046875" height="40" transform="matrix(1 0 0 1 2 2)" fill-opacity="0.2"/></g><g><rect fill="#ffffff" stroke="none" x="288" y="40" width="160.88623046875" height="40" transform="matrix(1 0 0 1 2 2)"/></g><g><path fill="none" stroke="#000000" paint-order="fill stroke markers" d=" M 290 42 L 450.88623046875 42 L 450.88623046875 82 L 290 82 L 290 42 Z Z" stroke-miterlimit="10" stroke-dasharray=""/></g><g><g><path fill="none" stroke="none"/><text fill="#000000" stroke="none" font-family="Arial" font-size="13px" font-style="normal" font-weight="bold" text-decoration="undefined" x="368.943115234375" y="53.5" text-anchor="middle" dominant-baseline="central" transform="matrix(1 0 0 1 2 2)">SerdeJson: SerdeJson</text></g></g><g><g><path fill="none" stroke="none"/><text fill="#000000" stroke="none" font-family="Arial" font-size="13px" font-style="normal" font-weight="normal" text-decoration="undefined" x="368.943115234375" y="68.5" text-anchor="middle" dominant-baseline="central" transform="matrix(1 0 0 1 2 2)">(from CallingParse)</text></g></g><g><path fill="none" stroke="#000000" paint-order="fill stroke markers" d=" M 370.5 83 L 370.5 754" stroke-miterlimit="10" stroke-dasharray="3"/></g><g><rect fill="#C0C0C0" stroke="none" x="471" y="47" width="131.97265625" height="40" transform="matrix(1 0 0 1 2 2)" fill-opacity="0.2"/></g><g><rect fill="#ffffff" stroke="none" x="464" y="40" width="131.97265625" height="40" transform="matrix(1 0 0 1 2 2)"/></g><g><path fill="none" stroke="#000000" paint-order="fill stroke markers" d=" M 466 42 L 597.97265625 42 L 597.97265625 82 L 466 82 L 466 42 Z Z" stroke-miterlimit="10" stroke-dasharray=""/></g><g><g><path fill="none" stroke="none"/><text fill="#000000" stroke="none" font-family="Arial" font-size="13px" font-style="normal" font-weight="bold" text-decoration="undefined" x="530.486328125" y="53.5" text-anchor="middle" dominant-baseline="central" transform="matrix(1 0 0 1 2 2)">Parser: Parser</text></g></g><g><g><path fill="none" stroke="none"/><text fill="#000000" stroke="none" font-family="Arial" font-size="13px" font-style="normal" font-weight="normal" text-decoration="undefined" x="530.486328125" y="68.5" text-anchor="middle" dominant-baseline="central" transform="matrix(1 0 0 1 2 2)">(from CallingParse)</text></g></g><g><path fill="none" stroke="#000000" paint-order="fill stroke markers" d=" M 532.5 83 L 532.5 754" stroke-miterlimit="10" stroke-dasharray="3"/></g><g><rect fill="#C0C0C0" stroke="none" x="607" y="47" width="165.25341796875" height="40" transform="matrix(1 0 0 1 2 2)" fill-opacity="0.2"/></g><g><rect fill="#ffffff" stroke="none" x="600" y="40" width="165.25341796875" height="40" transform="matrix(1 0 0 1 2 2)"/></g><g><path fill="none" stroke="#000000" paint-order="fill stroke markers" d=" M 602 42 L 767.25341796875 42 L 767.25341796875 82 L 602 82 L 602 42 Z Z" stroke-miterlimit="10" stroke-dasharray=""/></g><g><g><path fill="none" stroke="none"/><text fill="#000000" stroke="none" font-family="Arial" font-size="13px" font-style="normal" font-weight="bold" text-decoration="undefined" x="683.126708984375" y="53.5" text-anchor="middle" dominant-baseline="central" transform="matrix(1 0 0 1 2 2)">Parser Instance: Parser</text></g></g><g><g><path fill="none" stroke="none"/><text fill="#000000" stroke="none" font-family="Arial" font-size="13px" font-style="normal" font-weight="normal" text-decoration="undefined" x="683.126708984375" y="68.5" text-anchor="middle" dominant-baseline="central" transform="matrix(1 0 0 1 2 2)">(from CallingParse)</text></g></g><g><path fill="none" stroke="#000000" paint-order="fill stroke markers" d=" M 685.5 83 L 685.5 754" stroke-miterlimit="10" stroke-dasharray="3"/></g><g><rect fill="#C0C0C0" stroke="none" x="783" y="47" width="165.24072265625" height="40" transform="matrix(1 0 0 1 2 2)" fill-opacity="0.2"/></g><g><rect fill="#ffffff" stroke="none" x="776" y="40" width="165.24072265625" height="40" transform="matrix(1 0 0 1 2 2)"/></g><g><path fill="none" stroke="#000000" paint-order="fill stroke markers" d=" M 778 42 L 943.24072265625 42 L 943.24072265625 82 L 778 82 L 778 42 Z Z" stroke-miterlimit="10" stroke-dasharray=""/></g><g><g><path fill="none" stroke="none"/><text fill="#000000" stroke="none" font-family="Arial" font-size="13px" font-style="normal" font-weight="bold" text-decoration="undefined" x="859.120361328125" y="53.5" text-anchor="middle" dominant-baseline="central" transform="matrix(1 0 0 1 2 2)">ParserUtils: ParserUtils</text></g></g><g><g><path fill="none" stroke="none"/><text fill="#000000" stroke="none" font-family="Arial" font-size="13px" font-style="normal" font-weight="normal" text-decoration="undefined" x="859.120361328125" y="68.5" text-anchor="middle" dominant-baseline="central" transform="matrix(1 0 0 1 2 2)">(from CallingParse)</text></g></g><g><path fill="none" stroke="#000000" paint-order="fill stroke markers" d=" M 861.5 83 L 861.5 754" stroke-miterlimit="10" stroke-dasharray="3"/></g><g><path fill="none" stroke="#000000" paint-order="fill stroke markers" d=" M 85 106 L 213 106" stroke-miterlimit="10" stroke-dasharray=""/></g><g><path fill="#000000" stroke="none" paint-order="stroke fill markers" d=" M 202.83732514237585 110.20951775601598 L 213 106 L 202.83732514237585 101.79048224398402"/></g><g><path fill="none" stroke="#000000" paint-order="fill stroke markers" d=" M 202.83732514237585 110.20951775601598 L 213 106 L 202.83732514237585 101.79048224398402 L 202.83732514237585 110.20951775601598" stroke-miterlimit="10" stroke-dasharray=""/></g><g><rect fill="#ffffff" stroke="none" x="104" y="88" width="87.4326171875" height="13" transform="matrix(1 0 0 1 2 2)"/></g><g><g><path fill="none" stroke="none"/><text fill="#000000" stroke="none" font-family="Arial" font-size="13px" font-style="normal" font-weight="normal" text-decoration="undefined" x="147.71630859375" y="94.5" text-anchor="middle" dominant-baseline="central" transform="matrix(1 0 0 1 2 2)">1 : parse(input)</text></g></g><g><rect fill="#ffffff" stroke="none" x="211" y="104" width="14" height="576" transform="matrix(1 0 0 1 2 2)"/></g><g><path fill="none" stroke="#000000" paint-order="fill stroke markers" d=" M 213 106 L 227 106 L 227 682 L 213 682 L 213 106 Z Z" stroke-miterlimit="10" stroke-dasharray=""/></g><g><path fill="none" stroke="#000000" paint-order="fill stroke markers" d=" M 227 123 L 363 123" stroke-miterlimit="10" stroke-dasharray=""/></g><g><path fill="#000000" stroke="none" paint-order="stroke fill markers" d=" M 352.83732514237585 127.20951775601598 L 363 123 L 352.83732514237585 118.79048224398402"/></g><g><path fill="none" stroke="#000000" paint-order="fill stroke markers" d=" M 352.83732514237585 127.20951775601598 L 363 123 L 352.83732514237585 118.79048224398402 L 352.83732514237585 127.20951775601598" stroke-miterlimit="10" stroke-dasharray=""/></g><g><rect fill="#ffffff" stroke="none" x="242" y="105" width="102.58447265625" height="13" transform="matrix(1 0 0 1 2 2)"/></g><g><g><path fill="none" stroke="none"/><text fill="#000000" stroke="none" font-family="Arial" font-size="13px" font-style="normal" font-weight="normal" text-decoration="undefined" x="293.292236328125" y="111.5" text-anchor="middle" dominant-baseline="central" transform="matrix(1 0 0 1 2 2)">2 : from_str(input)</text></g></g><g><rect fill="#ffffff" stroke="none" x="361" y="121" width="14" height="175" transform="matrix(1 0 0 1 2 2)"/></g><g><path fill="none" stroke="#000000" paint-order="fill stroke markers" d=" M 363 123 L 377 123 L 377 298 L 363 298 L 363 123 Z Z" stroke-miterlimit="10" stroke-dasharray=""/></g><g><path fill="none" stroke="#000000" paint-order="fill stroke markers" d=" M 363 163 L 227 163" stroke-miterlimit="10" stroke-dasharray="3"/></g><g><path fill="none" stroke="#000000" paint-order="fill stroke markers" d=" M 237.16267485762415 158.790482243984 L 227 163 L 237.16267485762415 167.209517756016" stroke-miterlimit="10" stroke-dasharray=""/></g><g><rect fill="#ffffff" stroke="none" x="269" y="165" width="46.95361328125" height="13" transform="matrix(1 0 0 1 2 2)"/></g><g><g><path fill="none" stroke="none"/><text fill="#000000" stroke="none" font-family="Arial" font-size="13px" font-style="normal" font-weight="normal" text-decoration="undefined" x="292.476806640625" y="171.5" text-anchor="middle" dominant-baseline="central" transform="matrix(1 0 0 1 2 2)">3 : Error</text></g></g><g><path fill="none" stroke="#000000" paint-order="fill stroke markers" d=" M 227 202 L 854 202" stroke-miterlimit="10" stroke-dasharray=""/></g><g><path fill="#000000" stroke="none" paint-order="stroke fill markers" d=" M 843.8373251423759 206.209517756016 L 854 202 L 843.8373251423758 197.790482243984"/></g><g><path fill="none" stroke="#000000" paint-order="fill stroke markers" d=" M 843.8373251423759 206.209517756016 L 854 202 L 843.8373251423758 197.790482243984 L 843.8373251423759 206.209517756016" stroke-miterlimit="10" stroke-dasharray=""/></g><g><rect fill="#ffffff" stroke="none" x="419" y="184" width="238.9638671875" height="13" transform="matrix(1 0 0 1 2 2)"/></g><g><g><path fill="none" stroke="none"/><text fill="#000000" stroke="none" font-family="Arial" font-size="13px" font-style="normal" font-weight="normal" text-decoration="undefined" x="538.48193359375" y="190.5" text-anchor="middle" dominant-baseline="central" transform="matrix(1 0 0 1 2 2)">4 : line_col_to_byte_offset(input, line, col)</text></g></g><g><rect fill="#ffffff" stroke="none" x="852" y="200" width="14" height="28" transform="matrix(1 0 0 1 2 2)"/></g><g><path fill="none" stroke="#000000" paint-order="fill stroke markers" d=" M 854 202 L 868 202 L 868 230 L 854 230 L 854 202 Z Z" stroke-miterlimit="10" stroke-dasharray=""/></g><g><path fill="none" stroke="#000000" paint-order="fill stroke markers" d=" M 854 218 L 227 218" stroke-miterlimit="10" stroke-dasharray="3"/></g><g><path fill="none" stroke="#000000" paint-order="fill stroke markers" d=" M 237.16267485762415 213.790482243984 L 227 218 L 237.16267485762415 222.209517756016" stroke-miterlimit="10" stroke-dasharray=""/></g><g><rect fill="#ffffff" stroke="none" x="499" y="220" width="77.8095703125" height="13" transform="matrix(1 0 0 1 2 2)"/></g><g><g><path fill="none" stroke="none"/><text fill="#000000" stroke="none" font-family="Arial" font-size="13px" font-style="normal" font-weight="normal" text-decoration="undefined" x="537.90478515625" y="226.5" text-anchor="middle" dominant-baseline="central" transform="matrix(1 0 0 1 2 2)">5 : byte offset</text></g></g><g><path fill="none" stroke="#000000" paint-order="fill stroke markers" d=" M 213 226 L 85 226" stroke-miterlimit="10" stroke-dasharray="3"/></g><g><path fill="none" stroke="#000000" paint-order="fill stroke markers" d=" M 95.16267485762415 221.790482243984 L 85 226 L 95.16267485762415 230.209517756016" stroke-miterlimit="10" stroke-dasharray=""/></g><g><rect fill="#ffffff" stroke="none" x="70" y="228" width="153.17529296875" height="13" transform="matrix(1 0 0 1 2 2)"/></g><g><g><path fill="none" stroke="none"/><text fill="#000000" stroke="none" font-family="Arial" font-size="13px" font-style="normal" font-weight="normal" text-decoration="undefined" x="146.587646484375" y="234.5" text-anchor="middle" dominant-baseline="central" transform="matrix(1 0 0 1 2 2)">6 : Error(Vec&lt;Diagnostic&gt;)</text></g></g><g><path fill="none" stroke="#000000" paint-order="fill stroke markers" d=" M 363 277 L 227 277" stroke-miterlimit="10" stroke-dasharray="3"/></g><g><path fill="none" stroke="#000000" paint-order="fill stroke markers" d=" M 237.16267485762415 272.790482243984 L 227 277 L 237.16267485762415 281.209517756016" stroke-miterlimit="10" stroke-dasharray=""/></g><g><rect fill="#ffffff" stroke="none" x="274" y="279" width="36.84814453125" height="13" transform="matrix(1 0 0 1 2 2)"/></g><g><g><path fill="none" stroke="none"/><text fill="#000000" stroke="none" font-family="Arial" font-size="13px" font-style="normal" font-weight="normal" text-decoration="undefined" x="292.424072265625" y="285.5" text-anchor="middle" dominant-baseline="central" transform="matrix(1 0 0 1 2 2)">7 : OK</text></g></g><g><path fill="none" stroke="#000000" paint-order="fill stroke markers" d=" M 227 314 L 525 314" stroke-miterlimit="10" stroke-dasharray=""/></g><g><path fill="#000000" stroke="none" paint-order="stroke fill markers" d=" M 514.8373251423759 318.209517756016 L 525 314 L 514.8373251423758 309.790482243984"/></g><g><path fill="none" stroke="#000000" paint-order="fill stroke markers" d=" M 514.8373251423759 318.209517756016 L 525 314 L 514.8373251423758 309.790482243984 L 514.8373251423759 318.209517756016" stroke-miterlimit="10" stroke-dasharray=""/></g><g><rect fill="#ffffff" stroke="none" x="328" y="296" width="93.20263671875" height="13" transform="matrix(1 0 0 1 2 2)"/></g><g><g><path fill="none" stroke="none"/><text fill="#000000" stroke="none" font-family="Arial" font-size="13px" font-style="normal" font-weight="normal" text-decoration="undefined" x="374.601318359375" y="302.5" text-anchor="middle" dominant-baseline="central" transform="matrix(1 0 0 1 2 2)">8 : Parser(input)</text></g></g><g><rect fill="#ffffff" stroke="none" x="523" y="312" width="14" height="28" transform="matrix(1 0 0 1 2 2)"/></g><g><path fill="none" stroke="#000000" paint-order="fill stroke markers" d=" M 525 314 L 539 314 L 539 342 L 525 342 L 525 314 Z Z" stroke-miterlimit="10" stroke-dasharray=""/></g><g><path fill="none" stroke="#000000" paint-order="fill stroke markers" d=" M 525 340 L 227 340" stroke-miterlimit="10" stroke-dasharray="3"/></g><g><path fill="none" stroke="#000000" paint-order="fill stroke markers" d=" M 237.16267485762415 335.790482243984 L 227 340 L 237.16267485762415 344.209517756016" stroke-miterlimit="10" stroke-dasharray=""/></g><g><rect fill="#ffffff" stroke="none" x="315" y="342" width="116.33984375" height="13" transform="matrix(1 0 0 1 2 2)"/></g><g><g><path fill="none" stroke="none"/><text fill="#000000" stroke="none" font-family="Arial" font-size="13px" font-style="normal" font-weight="normal" text-decoration="undefined" x="373.169921875" y="348.5" text-anchor="middle" dominant-baseline="central" transform="matrix(1 0 0 1 2 2)">9 : Parser Instance</text></g></g><g><path fill="none" stroke="#000000" paint-order="fill stroke markers" d=" M 227 382 L 678 382" stroke-miterlimit="10" stroke-dasharray=""/></g><g><path fill="#000000" stroke="none" paint-order="stroke fill markers" d=" M 667.8373251423759 386.209517756016 L 678 382 L 667.8373251423758 377.790482243984"/></g><g><path fill="none" stroke="#000000" paint-order="fill stroke markers" d=" M 667.8373251423759 386.209517756016 L 678 382 L 667.8373251423758 377.790482243984 L 667.8373251423759 386.209517756016" stroke-miterlimit="10" stroke-dasharray=""/></g><g><rect fill="#ffffff" stroke="none" x="307" y="364" width="286.88232421875" height="13" transform="matrix(1 0 0 1 2 2)"/></g><g><g><path fill="none" stroke="none"/><text fill="#000000" stroke="none" font-family="Arial" font-size="13px" font-style="normal" font-weight="normal" text-decoration="undefined" x="450.441162109375" y="370.5" text-anchor="middle" dominant-baseline="central" transform="matrix(1 0 0 1 2 2)">10 : parse_value():Result&lt;JsonNode, Diagnostic&gt;</text></g></g><g><rect fill="#ffffff" stroke="none" x="676" y="380" width="14" height="28" transform="matrix(1 0 0 1 2 2)"/></g><g><path fill="none" stroke="#000000" paint-order="fill stroke markers" d=" M 678 382 L 692 382 L 692 410 L 678 410 L 678 382 Z Z" stroke-miterlimit="10" stroke-dasharray=""/></g><g><path fill="none" stroke="#000000" paint-order="fill stroke markers" d=" M 678 406 L 227 406" stroke-miterlimit="10" stroke-dasharray="3"/></g><g><path fill="none" stroke="#000000" paint-order="fill stroke markers" d=" M 237.16267485762415 401.790482243984 L 227 406 L 237.16267485762415 410.209517756016" stroke-miterlimit="10" stroke-dasharray=""/></g><g><rect fill="#ffffff" stroke="none" x="427" y="408" width="44.078125" height="13" transform="matrix(1 0 0 1 2 2)"/></g><g><g><path fill="none" stroke="none"/><text fill="#000000" stroke="none" font-family="Arial" font-size="13px" font-style="normal" font-weight="normal" text-decoration="undefined" x="449.0390625" y="414.5" text-anchor="middle" dominant-baseline="central" transform="matrix(1 0 0 1 2 2)">11 : OK</text></g></g><g><path fill="none" stroke="#000000" paint-order="fill stroke markers" d=" M 227 444 L 678 444" stroke-miterlimit="10" stroke-dasharray=""/></g><g><path fill="#000000" stroke="none" paint-order="stroke fill markers" d=" M 667.8373251423759 448.209517756016 L 678 444 L 667.8373251423758 439.790482243984"/></g><g><path fill="none" stroke="#000000" paint-order="fill stroke markers" d=" M 667.8373251423759 448.209517756016 L 678 444 L 667.8373251423758 439.790482243984 L 667.8373251423759 448.209517756016" stroke-miterlimit="10" stroke-dasharray=""/></g><g><rect fill="#ffffff" stroke="none" x="386" y="426" width="129.33984375" height="13" transform="matrix(1 0 0 1 2 2)"/></g><g><g><path fill="none" stroke="none"/><text fill="#000000" stroke="none" font-family="Arial" font-size="13px" font-style="normal" font-weight="normal" text-decoration="undefined" x="450.669921875" y="432.5" text-anchor="middle" dominant-baseline="central" transform="matrix(1 0 0 1 2 2)">12 : skip_whitespace()</text></g></g><g><rect fill="#ffffff" stroke="none" x="676" y="442" width="14" height="28" transform="matrix(1 0 0 1 2 2)"/></g><g><path fill="none" stroke="#000000" paint-order="fill stroke markers" d=" M 678 444 L 692 444 L 692 472 L 678 472 L 678 444 Z Z" stroke-miterlimit="10" stroke-dasharray=""/></g><g><path fill="none" stroke="#000000" paint-order="fill stroke markers" d=" M 213 546 L 85 546" stroke-miterlimit="10" stroke-dasharray="3"/></g><g><path fill="none" stroke="#000000" paint-order="fill stroke markers" d=" M 95.16267485762415 541.790482243984 L 85 546 L 95.16267485762415 550.209517756016" stroke-miterlimit="10" stroke-dasharray=""/></g><g><rect fill="#ffffff" stroke="none" x="66" y="548" width="160.4052734375" height="13" transform="matrix(1 0 0 1 2 2)"/></g><g><g><path fill="none" stroke="none"/><text fill="#000000" stroke="none" font-family="Arial" font-size="13px" font-style="normal" font-weight="normal" text-decoration="undefined" x="146.20263671875" y="554.5" text-anchor="middle" dominant-baseline="central" transform="matrix(1 0 0 1 2 2)">13 : Error(Vec&lt;Diagnostic&gt;)</text></g></g><g><path fill="none" stroke="#000000" paint-order="fill stroke markers" d=" M 213 636 L 85 636" stroke-miterlimit="10" stroke-dasharray="3"/></g><g><path fill="none" stroke="#000000" paint-order="fill stroke markers" d=" M 95.16267485762415 631.790482243984 L 85 636 L 95.16267485762415 640.209517756016" stroke-miterlimit="10" stroke-dasharray=""/></g><g><rect fill="#ffffff" stroke="none" x="91" y="638" width="111.2744140625" height="13" transform="matrix(1 0 0 1 2 2)"/></g><g><g><path fill="none" stroke="none"/><text fill="#000000" stroke="none" font-family="Arial" font-size="13px" font-style="normal" font-weight="normal" text-decoration="undefined" x="146.63720703125" y="644.5" text-anchor="middle" dominant-baseline="central" transform="matrix(1 0 0 1 2 2)">14 : OK(JsonNode)</text></g></g><g><path fill="none" stroke="#000000" paint-order="fill stroke markers" d=" M 42 138 L 890 138 L 890 690 L 42 690 L 42 138" stroke-miterlimit="10" stroke-dasharray=""/></g><g><path fill="#FFFFD8" stroke="none" paint-order="stroke fill markers" d=" M 42 138 L 42 161 L 149.7490234375 161 L 161.2490234375 149.5 L 161.2490234375 138 L 42 138"/></g><g><path fill="none" stroke="#000000" paint-order="fill stroke markers" d=" M 42 138 L 42 161 L 149.7490234375 161 L 161.2490234375 149.5 L 161.2490234375 138 L 42 138 L 42 138" stroke-miterlimit="10" stroke-dasharray=""/></g><g><g><path fill="none" stroke="none"/><text fill="#000000" stroke="none" font-family="Arial" font-size="13px" font-style="normal" font-weight="normal" text-decoration="undefined" x="103.739501953125" y="147.5" text-anchor="middle" dominant-baseline="central" transform="matrix(1 0 0 1 2 2)">JSON validity</text></g></g><g><g><path fill="none" stroke="none"/><text fill="#000000" stroke="none" font-family="Arial" font-size="13px" font-style="normal" font-weight="bold" text-decoration="undefined" x="51.864990234375" y="147.5" text-anchor="middle" dominant-baseline="central" transform="matrix(1 0 0 1 2 2)">alt</text></g></g><g><g><path fill="none" stroke="none"/><text fill="#000000" stroke="none" font-family="Arial" font-size="13px" font-style="normal" font-weight="normal" text-decoration="undefined" x="107.680419921875" y="180.5" text-anchor="middle" dominant-baseline="central" transform="matrix(1 0 0 1 2 2)">[JSON is invalid]</text></g></g><g><path fill="none" stroke="#000000" paint-order="fill stroke markers" d=" M 42 258 L 889 258" stroke-miterlimit="10" stroke-dasharray="10,3"/></g><g><g><path fill="none" stroke="none"/><text fill="#000000" stroke="none" font-family="Arial" font-size="13px" font-style="normal" font-weight="normal" text-decoration="undefined" x="102.621337890625" y="277.5" text-anchor="middle" dominant-baseline="central" transform="matrix(1 0 0 1 2 2)">[JSON is valid]</text></g></g><g><path fill="none" stroke="#000000" paint-order="fill stroke markers" d=" M 50 474 L 242 474 L 242 666 L 50 666 L 50 474" stroke-miterlimit="10" stroke-dasharray=""/></g><g><path fill="#FFFFD8" stroke="none" paint-order="stroke fill markers" d=" M 50 474 L 50 497 L 206.17529296875 497 L 217.67529296875 485.5 L 217.67529296875 474 L 50 474"/></g><g><path fill="none" stroke="#000000" paint-order="fill stroke markers" d=" M 50 474 L 50 497 L 206.17529296875 497 L 217.67529296875 485.5 L 217.67529296875 474 L 50 474 L 50 474" stroke-miterlimit="10" stroke-dasharray=""/></g><g><g><path fill="none" stroke="none"/><text fill="#000000" stroke="none" font-family="Arial" font-size="13px" font-style="normal" font-weight="normal" text-decoration="undefined" x="135.95263671875" y="483.5" text-anchor="middle" dominant-baseline="central" transform="matrix(1 0 0 1 2 2)">Remaning Characters</text></g></g><g><g><path fill="none" stroke="none"/><text fill="#000000" stroke="none" font-family="Arial" font-size="13px" font-style="normal" font-weight="bold" text-decoration="undefined" x="59.864990234375" y="483.5" text-anchor="middle" dominant-baseline="central" transform="matrix(1 0 0 1 2 2)">alt</text></g></g><g><g><path fill="none" stroke="none"/><text fill="#000000" stroke="none" font-family="Arial" font-size="13px" font-style="normal" font-weight="normal" text-decoration="undefined" x="150.4814453125" y="516.5" text-anchor="middle" dominant-baseline="central" transform="matrix(1 0 0 1 2 2)">[Trailing Characters Remain]</text></g></g><g><path fill="none" stroke="#000000" paint-order="fill stroke markers" d=" M 50 586 L 241 586" stroke-miterlimit="10" stroke-dasharray="10,3"/></g><g><g><path fill="none" stroke="none"/><text fill="#000000" stroke="none" font-family="Arial" font-size="13px" font-style="normal" font-weight="normal" text-decoration="undefined" x="128.331298828125" y="605.5" text-anchor="middle" dominant-baseline="central" transform="matrix(1 0 0 1 2 2)">[Parsed Successully]</text></g></g></g></svg>