<svg version="1.1" xmlns="http://www.w3.org/2000/svg" xmlns:xlink="http://www.w3.org/1999/xlink" width="644" height="612"><defs/><g><g><path fill="none" stroke="#000000" paint-order="fill stroke markers" d=" M 10 10 L 634 10 L 634 602 L 10 602 L 10 10" stroke-miterlimit="10" stroke-dasharray=""/></g><g><path fill="#ffffff" stroke="none" paint-order="stroke fill markers" d=" M 10 10 L 10 33 L 133.65625 33 L 145.15625 21.5 L 145.15625 10 L 10 10"/></g><g><path fill="none" stroke="#000000" paint-order="fill stroke markers" d=" M 10 10 L 10 33 L 133.65625 33 L 145.15625 21.5 L 145.15625 10 L 10 10 L 10 10" stroke-miterlimit="10" stroke-dasharray=""/></g><g><g><path fill="none" stroke="none"/><text fill="#000000" stroke="none" font-family="Arial" font-size="13px" font-style="normal" font-weight="normal" text-decoration="undefined" x="79.693115234375" y="19.5" text-anchor="middle" dominant-baseline="central" transform="matrix(1 0 0 1 2 2)">jsonette::Format</text></g></g><g><g><path fill="none" stroke="none"/><text fill="#000000" stroke="none" font-family="Arial" font-size="13px" font-style="normal" font-weight="bold" text-decoration="undefined" x="19.864990234375" y="19.5" text-anchor="middle" dominant-baseline="central" transform="matrix(1 0 0 1 2 2)">sd</text></g></g><g><path fill="#ffffff" stroke="none" paint-order="stroke fill markers" d=" M 78.3399520596591 49.3 C 78.3399520596591 45.82060576 81.21835378184092 43 84.76904296875 43 C 88.31973215565908 43 91.1981338778409 45.82060576 91.1981338778409 49.3 C 91.1981338778409 52.779394239999995 88.31973215565908 55.6 84.76904296875 55.6 C 81.21835378184092 55.6 78.3399520596591 52.779394239999995 78.3399520596591 49.3 Z"/></g><g><path fill="none" stroke="#000000" paint-order="fill stroke markers" d=" M 78.3399520596591 49.3 C 78.3399520596591 45.82060576 81.21835378184092 43 84.76904296875 43 C 88.31973215565908 43 91.1981338778409 45.82060576 91.1981338778409 49.3 C 91.1981338778409 52.779394239999995 88.31973215565908 55.6 84.76904296875 55.6 C 81.21835378184092 55.6 78.3399520596591 52.779394239999995 78.3399520596591 49.3 Z" stroke-miterlimit="10" stroke-dasharray=""/></g><g><path fill="none" stroke="#000000" paint-order="fill stroke markers" d=" M 84.76904296875 55.6 L 84.76904296875 68.4" stroke-miterlimit="10" stroke-dasharray=""/></g><g><path fill="none" stroke="#000000" paint-order="fill stroke markers" d=" M 77.96177024147727 60.4 L 91.57631569602273 60.4" stroke-miterlimit="10" stroke-dasharray=""/></g><g><path fill="none" stroke="#000000" paint-order="fill stroke markers" d=" M 84.76904296875 68.4 L 75.31449751420455 81" stroke-miterlimit="10" stroke-dasharray=""/></g><g><path fill="none" stroke="#000000" paint-order="fill stroke markers" d=" M 84.76904296875 68.4 L 94.22358842329545 81" stroke-miterlimit="10" stroke-dasharray=""/></g><g><g><path fill="none" stroke="none"/><text fill="#000000" stroke="none" font-family="Arial" font-size="13px" font-style="normal" font-weight="bold" text-decoration="undefined" x="83.26904296875" y="93.5" text-anchor="middle" dominant-baseline="central" transform="matrix(1 0 0 1 2 2)">Lifeline1: Developer</text></g></g><g><g><path fill="none" stroke="none"/><text fill="#000000" stroke="none" font-family="Arial" font-size="13px" font-style="normal" font-weight="normal" text-decoration="undefined" x="83.26904296875" y="108.5" text-anchor="middle" dominant-baseline="central" transform="matrix(1 0 0 1 2 2)">(from Format)</text></g></g><g><path fill="none" stroke="#000000" paint-order="fill stroke markers" d=" M 85.5 123 L 85.5 578" stroke-miterlimit="10" stroke-dasharray="3"/></g><g><rect fill="#ffffff" stroke="none" x="210.51727973090277" y="40" width="34.44444444444446" height="40" transform="matrix(1 0 0 1 2 2)"/></g><g><path fill="none" stroke="#000000" paint-order="fill stroke markers" d=" M 212.51727973090277 42 L 246.96172417534723 42 L 246.96172417534723 82 L 212.51727973090277 82 L 212.51727973090277 42 Z Z" stroke-miterlimit="10" stroke-dasharray=""/></g><g><rect fill="#ffffff" stroke="none" x="200.51727973090277" y="46" width="20" height="10" transform="matrix(1 0 0 1 2 2)"/></g><g><path fill="none" stroke="#000000" paint-order="fill stroke markers" d=" M 202.51727973090277 48 L 222.51727973090277 48 L 222.51727973090277 58 L 202.51727973090277 58 L 202.51727973090277 48 Z Z" stroke-miterlimit="10" stroke-dasharray=""/></g><g><rect fill="#ffffff" stroke="none" x="200.51727973090277" y="63" width="20" height="10" transform="matrix(1 0 0 1 2 2)"/></g><g><path fill="none" stroke="#000000" paint-order="fill stroke markers" d=" M 202.51727973090277 65 L 222.51727973090277 65 L 222.51727973090277 75 L 202.51727973090277 75 L 202.51727973090277 65 Z Z" stroke-miterlimit="10" stroke-dasharray=""/></g><g><g><path fill="none" stroke="none"/><text fill="#000000" stroke="none" font-family="Arial" font-size="13px" font-style="normal" font-weight="bold" text-decoration="undefined" x="223.239501953125" y="93.5" text-anchor="middle" dominant-baseline="central" transform="matrix(1 0 0 1 2 2)">Lifeline2: macOS</text></g></g><g><g><path fill="none" stroke="none"/><text fill="#000000" stroke="none" font-family="Arial" font-size="13px" font-style="normal" font-weight="normal" text-decoration="undefined" x="223.239501953125" y="108.5" text-anchor="middle" dominant-baseline="central" transform="matrix(1 0 0 1 2 2)">(from Format)</text></g></g><g><path fill="none" stroke="#000000" paint-order="fill stroke markers" d=" M 225.5 123 L 225.5 578" stroke-miterlimit="10" stroke-dasharray="3"/></g><g><rect fill="#ffffff" stroke="none" x="556.7841254340278" y="40" width="34.44444444444446" height="40" transform="matrix(1 0 0 1 2 2)"/></g><g><path fill="none" stroke="#000000" paint-order="fill stroke markers" d=" M 558.7841254340278 42 L 593.2285698784723 42 L 593.2285698784723 82 L 558.7841254340278 82 L 558.7841254340278 42 Z Z" stroke-miterlimit="10" stroke-dasharray=""/></g><g><rect fill="#ffffff" stroke="none" x="546.7841254340278" y="46" width="20" height="10" transform="matrix(1 0 0 1 2 2)"/></g><g><path fill="none" stroke="#000000" paint-order="fill stroke markers" d=" M 548.7841254340278 48 L 568.7841254340278 48 L 568.7841254340278 58 L 548.7841254340278 58 L 548.7841254340278 48 Z Z" stroke-miterlimit="10" stroke-dasharray=""/></g><g><rect fill="#ffffff" stroke="none" x="546.7841254340278" y="63" width="20" height="10" transform="matrix(1 0 0 1 2 2)"/></g><g><path fill="none" stroke="#000000" paint-order="fill stroke markers" d=" M 548.7841254340278 65 L 568.7841254340278 65 L 568.7841254340278 75 L 548.7841254340278 75 L 548.7841254340278 65 Z Z" stroke-miterlimit="10" stroke-dasharray=""/></g><g><g><path fill="none" stroke="none"/><text fill="#000000" stroke="none" font-family="Arial" font-size="13px" font-style="normal" font-weight="bold" text-decoration="undefined" x="569.50634765625" y="93.5" text-anchor="middle" dominant-baseline="central" transform="matrix(1 0 0 1 2 2)">Lifeline3: Engine</text></g></g><g><g><path fill="none" stroke="none"/><text fill="#000000" stroke="none" font-family="Arial" font-size="13px" font-style="normal" font-weight="normal" text-decoration="undefined" x="569.50634765625" y="108.5" text-anchor="middle" dominant-baseline="central" transform="matrix(1 0 0 1 2 2)">(from Format)</text></g></g><g><path fill="none" stroke="#000000" paint-order="fill stroke markers" d=" M 571.5 123 L 571.5 578" stroke-miterlimit="10" stroke-dasharray="3"/></g><g><path fill="none" stroke="#000000" paint-order="fill stroke markers" d=" M 86 141 L 218 141" stroke-miterlimit="10" stroke-dasharray=""/></g><g><path fill="#000000" stroke="none" paint-order="stroke fill markers" d=" M 207.83732514237585 145.209517756016 L 218 141 L 207.83732514237585 136.790482243984"/></g><g><path fill="none" stroke="#000000" paint-order="fill stroke markers" d=" M 207.83732514237585 145.209517756016 L 218 141 L 207.83732514237585 136.790482243984 L 207.83732514237585 145.209517756016" stroke-miterlimit="10" stroke-dasharray=""/></g><g><rect fill="#ffffff" stroke="none" x="104" y="123" width="93.90087890625" height="13" transform="matrix(1 0 0 1 2 2)"/></g><g><g><path fill="none" stroke="none"/><text fill="#000000" stroke="none" font-family="Arial" font-size="13px" font-style="normal" font-weight="normal" text-decoration="undefined" x="150.950439453125" y="129.5" text-anchor="middle" dominant-baseline="central" transform="matrix(1 0 0 1 2 2)">1 : ClicksFormat</text></g></g><g><rect fill="#ffffff" stroke="none" x="216" y="139" width="14" height="28" transform="matrix(1 0 0 1 2 2)"/></g><g><path fill="none" stroke="#000000" paint-order="fill stroke markers" d=" M 218 141 L 232 141 L 232 169 L 218 169 L 218 141 Z Z" stroke-miterlimit="10" stroke-dasharray=""/></g><g><path fill="none" stroke="#000000" paint-order="fill stroke markers" d=" M 226 198 L 564 198" stroke-miterlimit="10" stroke-dasharray=""/></g><g><path fill="#000000" stroke="none" paint-order="stroke fill markers" d=" M 553.8373251423759 202.209517756016 L 564 198 L 553.8373251423758 193.790482243984"/></g><g><path fill="none" stroke="#000000" paint-order="fill stroke markers" d=" M 553.8373251423759 202.209517756016 L 564 198 L 553.8373251423758 193.790482243984 L 553.8373251423759 202.209517756016" stroke-miterlimit="10" stroke-dasharray=""/></g><g><rect fill="#ffffff" stroke="none" x="326" y="180" width="135.103515625" height="13" transform="matrix(1 0 0 1 2 2)"/></g><g><g><path fill="none" stroke="none"/><text fill="#000000" stroke="none" font-family="Arial" font-size="13px" font-style="normal" font-weight="normal" text-decoration="undefined" x="393.5517578125" y="186.5" text-anchor="middle" dominant-baseline="central" transform="matrix(1 0 0 1 2 2)">2 : format(currentNode)</text></g></g><g><rect fill="#ffffff" stroke="none" x="562" y="196" width="14" height="28" transform="matrix(1 0 0 1 2 2)"/></g><g><path fill="none" stroke="#000000" paint-order="fill stroke markers" d=" M 564 198 L 578 198 L 578 226 L 564 226 L 564 198 Z Z" stroke-miterlimit="10" stroke-dasharray=""/></g><g><path fill="none" stroke="#000000" paint-order="fill stroke markers" d=" M 564 218 L 226 218" stroke-miterlimit="10" stroke-dasharray="3"/></g><g><path fill="none" stroke="#000000" paint-order="fill stroke markers" d=" M 236.16267485762415 213.790482243984 L 226 218 L 236.16267485762415 222.209517756016" stroke-miterlimit="10" stroke-dasharray=""/></g><g><rect fill="#ffffff" stroke="none" x="342" y="220" width="101.14990234375" height="13" transform="matrix(1 0 0 1 2 2)"/></g><g><g><path fill="none" stroke="none"/><text fill="#000000" stroke="none" font-family="Arial" font-size="13px" font-style="normal" font-weight="normal" text-decoration="undefined" x="392.574951171875" y="226.5" text-anchor="middle" dominant-baseline="central" transform="matrix(1 0 0 1 2 2)">3 : FormattedText</text></g></g><g><path fill="none" stroke="#000000" paint-order="fill stroke markers" d=" M 226 298 L 256 298 L 256 318 L 232 318" stroke-miterlimit="10" stroke-dasharray=""/></g><g><path fill="#000000" stroke="none" paint-order="stroke fill markers" d=" M 242.16267485762415 313.790482243984 L 232 318 L 242.16267485762415 322.209517756016"/></g><g><path fill="none" stroke="#000000" paint-order="fill stroke markers" d=" M 242.16267485762415 313.790482243984 L 232 318 L 242.16267485762415 322.209517756016 L 242.16267485762415 313.790482243984" stroke-miterlimit="10" stroke-dasharray=""/></g><g><rect fill="#ffffff" stroke="none" x="187" y="299" width="152.46435546875" height="13" transform="matrix(1 0 0 1 2 2)"/></g><g><g><path fill="none" stroke="none"/><text fill="#000000" stroke="none" font-family="Arial" font-size="13px" font-style="normal" font-weight="normal" text-decoration="undefined" x="263.232177734375" y="305.5" text-anchor="middle" dominant-baseline="central" transform="matrix(1 0 0 1 2 2)">4 : ReplacesTheEntireText</text></g></g><g><rect fill="#ffffff" stroke="none" x="216" y="316" width="14" height="28" transform="matrix(1 0 0 1 2 2)"/></g><g><path fill="none" stroke="#000000" paint-order="fill stroke markers" d=" M 218 318 L 232 318 L 232 346 L 218 346 L 218 318 Z Z" stroke-miterlimit="10" stroke-dasharray=""/></g></g></svg>