<svg version="1.1" xmlns="http://www.w3.org/2000/svg" xmlns:xlink="http://www.w3.org/1999/xlink" width="712" height="612"><defs/><g><g><path fill="none" stroke="#000000" paint-order="fill stroke markers" d=" M 10 10 L 702 10 L 702 602 L 10 602 L 10 10" stroke-miterlimit="10" stroke-dasharray=""/></g><g><path fill="#ffffff" stroke="none" paint-order="stroke fill markers" d=" M 10 10 L 10 33 L 71.53173828125 33 L 83.03173828125 21.5 L 83.03173828125 10 L 10 10"/></g><g><path fill="none" stroke="#000000" paint-order="fill stroke markers" d=" M 10 10 L 10 33 L 71.53173828125 33 L 83.03173828125 21.5 L 83.03173828125 10 L 10 10 L 10 10" stroke-miterlimit="10" stroke-dasharray=""/></g><g><g><path fill="none" stroke="none"/><text fill="#000000" stroke="none" font-family="Arial" font-size="13px" font-style="normal" font-weight="normal" text-decoration="undefined" x="48.630859375" y="19.5" text-anchor="middle" dominant-baseline="central" transform="matrix(1 0 0 1 2 2)">Open</text></g></g><g><g><path fill="none" stroke="none"/><text fill="#000000" stroke="none" font-family="Arial" font-size="13px" font-style="normal" font-weight="bold" text-decoration="undefined" x="19.864990234375" y="19.5" text-anchor="middle" dominant-baseline="central" transform="matrix(1 0 0 1 2 2)">sd</text></g></g><g><path fill="#ffffff" stroke="none" paint-order="stroke fill markers" d=" M 78.3399520596591 49.3 C 78.3399520596591 45.82060576 81.21835378184092 43 84.76904296875 43 C 88.31973215565908 43 91.1981338778409 45.82060576 91.1981338778409 49.3 C 91.1981338778409 52.779394239999995 88.31973215565908 55.6 84.76904296875 55.6 C 81.21835378184092 55.6 78.3399520596591 52.779394239999995 78.3399520596591 49.3 Z"/></g><g><path fill="none" stroke="#000000" paint-order="fill stroke markers" d=" M 78.3399520596591 49.3 C 78.3399520596591 45.82060576 81.21835378184092 43 84.76904296875 43 C 88.31973215565908 43 91.1981338778409 45.82060576 91.1981338778409 49.3 C 91.1981338778409 52.779394239999995 88.31973215565908 55.6 84.76904296875 55.6 C 81.21835378184092 55.6 78.3399520596591 52.779394239999995 78.3399520596591 49.3 Z" stroke-miterlimit="10" stroke-dasharray=""/></g><g><path fill="none" stroke="#000000" paint-order="fill stroke markers" d=" M 84.76904296875 55.6 L 84.76904296875 68.4" stroke-miterlimit="10" stroke-dasharray=""/></g><g><path fill="none" stroke="#000000" paint-order="fill stroke markers" d=" M 77.96177024147727 60.4 L 91.57631569602273 60.4" stroke-miterlimit="10" stroke-dasharray=""/></g><g><path fill="none" stroke="#000000" paint-order="fill stroke markers" d=" M 84.76904296875 68.4 L 75.31449751420455 81" stroke-miterlimit="10" stroke-dasharray=""/></g><g><path fill="none" stroke="#000000" paint-order="fill stroke markers" d=" M 84.76904296875 68.4 L 94.22358842329545 81" stroke-miterlimit="10" stroke-dasharray=""/></g><g><g><path fill="none" stroke="none"/><text fill="#000000" stroke="none" font-family="Arial" font-size="13px" font-style="normal" font-weight="bold" text-decoration="undefined" x="83.26904296875" y="93.5" text-anchor="middle" dominant-baseline="central" transform="matrix(1 0 0 1 2 2)">Lifeline1: Developer</text></g></g><g><path fill="none" stroke="#000000" paint-order="fill stroke markers" d=" M 85.5 108 L 85.5 578" stroke-miterlimit="10" stroke-dasharray="3"/></g><g><rect fill="#ffffff" stroke="none" x="213.51727973090277" y="40" width="34.44444444444446" height="40" transform="matrix(1 0 0 1 2 2)"/></g><g><path fill="none" stroke="#000000" paint-order="fill stroke markers" d=" M 215.51727973090277 42 L 249.96172417534723 42 L 249.96172417534723 82 L 215.51727973090277 82 L 215.51727973090277 42 Z Z" stroke-miterlimit="10" stroke-dasharray=""/></g><g><rect fill="#ffffff" stroke="none" x="203.51727973090277" y="46" width="20" height="10" transform="matrix(1 0 0 1 2 2)"/></g><g><path fill="none" stroke="#000000" paint-order="fill stroke markers" d=" M 205.51727973090277 48 L 225.51727973090277 48 L 225.51727973090277 58 L 205.51727973090277 58 L 205.51727973090277 48 Z Z" stroke-miterlimit="10" stroke-dasharray=""/></g><g><rect fill="#ffffff" stroke="none" x="203.51727973090277" y="63" width="20" height="10" transform="matrix(1 0 0 1 2 2)"/></g><g><path fill="none" stroke="#000000" paint-order="fill stroke markers" d=" M 205.51727973090277 65 L 225.51727973090277 65 L 225.51727973090277 75 L 205.51727973090277 75 L 205.51727973090277 65 Z Z" stroke-miterlimit="10" stroke-dasharray=""/></g><g><g><path fill="none" stroke="none"/><text fill="#000000" stroke="none" font-family="Arial" font-size="13px" font-style="normal" font-weight="bold" text-decoration="undefined" x="226.239501953125" y="93.5" text-anchor="middle" dominant-baseline="central" transform="matrix(1 0 0 1 2 2)">Lifeline2: macOS</text></g></g><g><path fill="none" stroke="#000000" paint-order="fill stroke markers" d=" M 228.5 108 L 228.5 578" stroke-miterlimit="10" stroke-dasharray="3"/></g><g><rect fill="#ffffff" stroke="none" x="617.7841254340278" y="40" width="34.44444444444446" height="40" transform="matrix(1 0 0 1 2 2)"/></g><g><path fill="none" stroke="#000000" paint-order="fill stroke markers" d=" M 619.7841254340278 42 L 654.2285698784723 42 L 654.2285698784723 82 L 619.7841254340278 82 L 619.7841254340278 42 Z Z" stroke-miterlimit="10" stroke-dasharray=""/></g><g><rect fill="#ffffff" stroke="none" x="607.7841254340278" y="46" width="20" height="10" transform="matrix(1 0 0 1 2 2)"/></g><g><path fill="none" stroke="#000000" paint-order="fill stroke markers" d=" M 609.7841254340278 48 L 629.7841254340278 48 L 629.7841254340278 58 L 609.7841254340278 58 L 609.7841254340278 48 Z Z" stroke-miterlimit="10" stroke-dasharray=""/></g><g><rect fill="#ffffff" stroke="none" x="607.7841254340278" y="63" width="20" height="10" transform="matrix(1 0 0 1 2 2)"/></g><g><path fill="none" stroke="#000000" paint-order="fill stroke markers" d=" M 609.7841254340278 65 L 629.7841254340278 65 L 629.7841254340278 75 L 609.7841254340278 75 L 609.7841254340278 65 Z Z" stroke-miterlimit="10" stroke-dasharray=""/></g><g><g><path fill="none" stroke="none"/><text fill="#000000" stroke="none" font-family="Arial" font-size="13px" font-style="normal" font-weight="bold" text-decoration="undefined" x="630.50634765625" y="93.5" text-anchor="middle" dominant-baseline="central" transform="matrix(1 0 0 1 2 2)">Lifeline3: Engine</text></g></g><g><path fill="none" stroke="#000000" paint-order="fill stroke markers" d=" M 632.5 108 L 632.5 578" stroke-miterlimit="10" stroke-dasharray="3"/></g><g><path fill="none" stroke="#000000" paint-order="fill stroke markers" d=" M 86 125 L 221 125" stroke-miterlimit="10" stroke-dasharray=""/></g><g><path fill="none" stroke="#000000" paint-order="fill stroke markers" d=" M 210.83732514237585 129.209517756016 L 221 125 L 210.83732514237585 120.79048224398402" stroke-miterlimit="10" stroke-dasharray=""/></g><g><rect fill="#ffffff" stroke="none" x="112" y="107" width="78.04443359375" height="13" transform="matrix(1 0 0 1 2 2)"/></g><g><g><path fill="none" stroke="none"/><text fill="#000000" stroke="none" font-family="Arial" font-size="13px" font-style="normal" font-weight="normal" text-decoration="undefined" x="151.022216796875" y="113.5" text-anchor="middle" dominant-baseline="central" transform="matrix(1 0 0 1 2 2)">1 : OpensFile</text></g></g><g><rect fill="#ffffff" stroke="none" x="219" y="123" width="14" height="28" transform="matrix(1 0 0 1 2 2)"/></g><g><path fill="none" stroke="#000000" paint-order="fill stroke markers" d=" M 221 125 L 235 125 L 235 153 L 221 153 L 221 125 Z Z" stroke-miterlimit="10" stroke-dasharray=""/></g><g><path fill="none" stroke="#000000" paint-order="fill stroke markers" d=" M 229 162 L 259 162 L 259 182 L 235 182" stroke-miterlimit="10" stroke-dasharray=""/></g><g><path fill="#000000" stroke="none" paint-order="stroke fill markers" d=" M 245.16267485762415 177.790482243984 L 235 182 L 245.16267485762415 186.209517756016"/></g><g><path fill="none" stroke="#000000" paint-order="fill stroke markers" d=" M 245.16267485762415 177.790482243984 L 235 182 L 245.16267485762415 186.209517756016 L 245.16267485762415 177.790482243984" stroke-miterlimit="10" stroke-dasharray=""/></g><g><rect fill="#ffffff" stroke="none" x="222" y="163" width="88.15625" height="13" transform="matrix(1 0 0 1 2 2)"/></g><g><g><path fill="none" stroke="none"/><text fill="#000000" stroke="none" font-family="Arial" font-size="13px" font-style="normal" font-weight="normal" text-decoration="undefined" x="266.078125" y="169.5" text-anchor="middle" dominant-baseline="central" transform="matrix(1 0 0 1 2 2)">2 : ReadsBytes</text></g></g><g><rect fill="#ffffff" stroke="none" x="219" y="180" width="14" height="28" transform="matrix(1 0 0 1 2 2)"/></g><g><path fill="none" stroke="#000000" paint-order="fill stroke markers" d=" M 221 182 L 235 182 L 235 210 L 221 210 L 221 182 Z Z" stroke-miterlimit="10" stroke-dasharray=""/></g><g><path fill="none" stroke="#000000" paint-order="fill stroke markers" d=" M 229 226 L 625 226" stroke-miterlimit="10" stroke-dasharray=""/></g><g><path fill="#000000" stroke="none" paint-order="stroke fill markers" d=" M 614.8373251423759 230.209517756016 L 625 226 L 614.8373251423758 221.790482243984"/></g><g><path fill="none" stroke="#000000" paint-order="fill stroke markers" d=" M 614.8373251423759 230.209517756016 L 625 226 L 614.8373251423758 221.790482243984 L 614.8373251423759 230.209517756016" stroke-miterlimit="10" stroke-dasharray=""/></g><g><rect fill="#ffffff" stroke="none" x="221" y="208" width="408.28759765625" height="13" transform="matrix(1 0 0 1 2 2)"/></g><g><g><path fill="none" stroke="none"/><text fill="#000000" stroke="none" font-family="Arial" font-size="13px" font-style="normal" font-weight="normal" text-decoration="undefined" x="425.143798828125" y="214.5" text-anchor="middle" dominant-baseline="central" transform="matrix(1 0 0 1 2 2)">3 : tolerant_parse(text)</text></g></g><g><rect fill="#ffffff" stroke="none" x="623" y="224" width="14" height="36" transform="matrix(1 0 0 1 2 2)"/></g><g><path fill="none" stroke="#000000" paint-order="fill stroke markers" d=" M 625 226 L 639 226 L 639 262 L 625 262 L 625 226 Z Z" stroke-miterlimit="10" stroke-dasharray=""/></g><g><path fill="none" stroke="#000000" paint-order="fill stroke markers" d=" M 625 242 L 229 242" stroke-miterlimit="10" stroke-dasharray="3"/></g><g><path fill="none" stroke="#000000" paint-order="fill stroke markers" d=" M 239.16267485762415 237.790482243984 L 229 242 L 239.16267485762415 246.209517756016" stroke-miterlimit="10" stroke-dasharray=""/></g><g><rect fill="#ffffff" stroke="none" x="380" y="244" width="88.87353515625" height="13" transform="matrix(1 0 0 1 2 2)"/></g><g><g><path fill="none" stroke="none"/><text fill="#000000" stroke="none" font-family="Arial" font-size="13px" font-style="normal" font-weight="normal" text-decoration="undefined" x="424.436767578125" y="250.5" text-anchor="middle" dominant-baseline="central" transform="matrix(1 0 0 1 2 2)">4 : ParseResult</text></g></g><g><path fill="none" stroke="#000000" paint-order="fill stroke markers" d=" M 229 298 L 259 298 L 259 318 L 235 318" stroke-miterlimit="10" stroke-dasharray=""/></g><g><path fill="#000000" stroke="none" paint-order="stroke fill markers" d=" M 245.16267485762415 313.790482243984 L 235 318 L 245.16267485762415 322.209517756016"/></g><g><path fill="none" stroke="#000000" paint-order="fill stroke markers" d=" M 245.16267485762415 313.790482243984 L 235 318 L 245.16267485762415 322.209517756016 L 245.16267485762415 313.790482243984" stroke-miterlimit="10" stroke-dasharray=""/></g><g><rect fill="#ffffff" stroke="none" x="220" y="299" width="93.4501953125" height="13" transform="matrix(1 0 0 1 2 2)"/></g><g><g><path fill="none" stroke="none"/><text fill="#000000" stroke="none" font-family="Arial" font-size="13px" font-style="normal" font-weight="normal" text-decoration="undefined" x="266.72509765625" y="305.5" text-anchor="middle" dominant-baseline="central" transform="matrix(1 0 0 1 2 2)">5 : RendersTree</text></g></g><g><rect fill="#ffffff" stroke="none" x="219" y="316" width="14" height="28" transform="matrix(1 0 0 1 2 2)"/></g><g><path fill="none" stroke="#000000" paint-order="fill stroke markers" d=" M 221 318 L 235 318 L 235 346 L 221 346 L 221 318 Z Z" stroke-miterlimit="10" stroke-dasharray=""/></g></g></svg>