<svg version="1.1" xmlns="http://www.w3.org/2000/svg" xmlns:xlink="http://www.w3.org/1999/xlink" width="1012.30029296875" height="770"><defs/><g><g><rect fill="#C0C0C0" stroke="none" x="31" y="47" width="110.41357421875" height="91" transform="matrix(1 0 0 1 -14 -30)" fill-opacity="0.2"/></g><g><rect fill="#ffffff" stroke="none" x="24" y="40" width="110.41357421875" height="91" transform="matrix(1 0 0 1 -14 -30)"/></g><g><path fill="none" stroke="#000000" paint-order="fill stroke markers" d=" M 10 10 L 120.41357421875 10 L 120.41357421875 101 L 10 101 L 10 10 Z Z" stroke-miterlimit="10" stroke-dasharray=""/></g><g><path fill="none" stroke="#000000" paint-order="fill stroke markers" d=" M 10 63 L 120.41357421875 63" stroke-miterlimit="10" stroke-dasharray=""/></g><g><g><path fill="none" stroke="none"/><text fill="#000000" stroke="none" font-family="Arial" font-size="13px" font-style="normal" font-weight="normal" text-decoration="undefined" x="79.706787109375" y="51.5" text-anchor="middle" dominant-baseline="central" transform="matrix(1 0 0 1 -14 -30)">«dataType»</text></g></g><g><g><path fill="none" stroke="none"/><text fill="#000000" stroke="none" font-family="Arial" font-size="13px" font-style="normal" font-weight="bold" text-decoration="undefined" x="79.706787109375" y="66.5" text-anchor="middle" dominant-baseline="central" transform="matrix(1 0 0 1 -14 -30)">Span</text></g></g><g><g><path fill="none" stroke="none"/><text fill="#000000" stroke="none" font-family="Arial" font-size="13px" font-style="normal" font-weight="normal" text-decoration="undefined" x="79.706787109375" y="81.5" text-anchor="middle" dominant-baseline="central" transform="matrix(1 0 0 1 -14 -30)">(from types)</text></g></g><g><g><path fill="none" stroke="none"/><text fill="#000000" stroke="none" font-family="Arial" font-size="13px" font-style="normal" font-weight="normal" text-decoration="undefined" x="29" y="104.5" text-anchor="start" dominant-baseline="central" transform="matrix(1 0 0 1 -14 -30)">+start: usize</text></g></g><g><g><path fill="none" stroke="none"/><text fill="#000000" stroke="none" font-family="Arial" font-size="13px" font-style="normal" font-weight="normal" text-decoration="undefined" x="29" y="119.5" text-anchor="start" dominant-baseline="central" transform="matrix(1 0 0 1 -14 -30)">+end: usize</text></g></g><g><rect fill="#C0C0C0" stroke="none" x="31" y="223" width="111.5244140625" height="91" transform="matrix(1 0 0 1 -14 -30)" fill-opacity="0.2"/></g><g><rect fill="#ffffff" stroke="none" x="24" y="216" width="111.5244140625" height="91" transform="matrix(1 0 0 1 -14 -30)"/></g><g><path fill="none" stroke="#000000" paint-order="fill stroke markers" d=" M 10 186 L 121.5244140625 186 L 121.5244140625 277 L 10 277 L 10 186 Z Z" stroke-miterlimit="10" stroke-dasharray=""/></g><g><path fill="none" stroke="#000000" paint-order="fill stroke markers" d=" M 10 239 L 121.5244140625 239" stroke-miterlimit="10" stroke-dasharray=""/></g><g><g><path fill="none" stroke="none"/><text fill="#000000" stroke="none" font-family="Arial" font-size="13px" font-style="normal" font-weight="normal" text-decoration="undefined" x="80.26220703125" y="227.5" text-anchor="middle" dominant-baseline="central" transform="matrix(1 0 0 1 -14 -30)">«dataType»</text></g></g><g><g><path fill="none" stroke="none"/><text fill="#000000" stroke="none" font-family="Arial" font-size="13px" font-style="normal" font-weight="bold" text-decoration="undefined" x="80.26220703125" y="242.5" text-anchor="middle" dominant-baseline="central" transform="matrix(1 0 0 1 -14 -30)">Diagnostic</text></g></g><g><g><path fill="none" stroke="none"/><text fill="#000000" stroke="none" font-family="Arial" font-size="13px" font-style="normal" font-weight="normal" text-decoration="undefined" x="80.26220703125" y="257.5" text-anchor="middle" dominant-baseline="central" transform="matrix(1 0 0 1 -14 -30)">(from types)</text></g></g><g><g><path fill="none" stroke="none"/><text fill="#000000" stroke="none" font-family="Arial" font-size="13px" font-style="normal" font-weight="normal" text-decoration="undefined" x="29" y="280.5" text-anchor="start" dominant-baseline="central" transform="matrix(1 0 0 1 -14 -30)">+span: Span</text></g></g><g><g><path fill="none" stroke="none"/><text fill="#000000" stroke="none" font-family="Arial" font-size="13px" font-style="normal" font-weight="normal" text-decoration="undefined" x="29" y="295.5" text-anchor="start" dominant-baseline="central" transform="matrix(1 0 0 1 -14 -30)">+message: String</text></g></g><g><rect fill="#C0C0C0" stroke="none" x="32" y="631" width="241.98779296875" height="166" transform="matrix(1 0 0 1 -14 -30)" fill-opacity="0.2"/></g><g><rect fill="#ffffff" stroke="none" x="25" y="624" width="241.98779296875" height="166" transform="matrix(1 0 0 1 -14 -30)"/></g><g><path fill="none" stroke="#000000" paint-order="fill stroke markers" d=" M 11 594 L 252.98779296875 594 L 252.98779296875 760 L 11 760 L 11 594 Z Z" stroke-miterlimit="10" stroke-dasharray=""/></g><g><path fill="none" stroke="#000000" paint-order="fill stroke markers" d=" M 11 647 L 252.98779296875 647" stroke-miterlimit="10" stroke-dasharray=""/></g><g><g><path fill="none" stroke="none"/><text fill="#000000" stroke="none" font-family="Arial" font-size="13px" font-style="normal" font-weight="normal" text-decoration="undefined" x="146.493896484375" y="635.5" text-anchor="middle" dominant-baseline="central" transform="matrix(1 0 0 1 -14 -30)">«dataType»</text></g></g><g><g><path fill="none" stroke="none"/><text fill="#000000" stroke="none" font-family="Arial" font-size="13px" font-style="normal" font-weight="bold" text-decoration="undefined" x="146.493896484375" y="650.5" text-anchor="middle" dominant-baseline="central" transform="matrix(1 0 0 1 -14 -30)">FormatOptions</text></g></g><g><g><path fill="none" stroke="none"/><text fill="#000000" stroke="none" font-family="Arial" font-size="13px" font-style="normal" font-weight="normal" text-decoration="undefined" x="146.493896484375" y="665.5" text-anchor="middle" dominant-baseline="central" transform="matrix(1 0 0 1 -14 -30)">(from types)</text></g></g><g><g><path fill="none" stroke="none"/><text fill="#000000" stroke="none" font-family="Arial" font-size="13px" font-style="normal" font-weight="normal" text-decoration="undefined" x="30" y="688.5" text-anchor="start" dominant-baseline="central" transform="matrix(1 0 0 1 -14 -30)">+use_tabs: bool = false</text></g></g><g><g><path fill="none" stroke="none"/><text fill="#000000" stroke="none" font-family="Arial" font-size="13px" font-style="normal" font-weight="normal" text-decoration="undefined" x="30" y="703.5" text-anchor="start" dominant-baseline="central" transform="matrix(1 0 0 1 -14 -30)">+indent: u8 = 2</text></g></g><g><g><path fill="none" stroke="none"/><text fill="#000000" stroke="none" font-family="Arial" font-size="13px" font-style="normal" font-weight="normal" text-decoration="undefined" x="30" y="718.5" text-anchor="start" dominant-baseline="central" transform="matrix(1 0 0 1 -14 -30)">+line_ending: LineEnding = LF</text></g></g><g><g><path fill="none" stroke="none"/><text fill="#000000" stroke="none" font-family="Arial" font-size="13px" font-style="normal" font-weight="normal" text-decoration="undefined" x="30" y="733.5" text-anchor="start" dominant-baseline="central" transform="matrix(1 0 0 1 -14 -30)">+folding_style: FoldingStyle = Expanded</text></g></g><g><g><path fill="none" stroke="none"/><text fill="#000000" stroke="none" font-family="Arial" font-size="13px" font-style="normal" font-weight="normal" text-decoration="undefined" x="30" y="748.5" text-anchor="start" dominant-baseline="central" transform="matrix(1 0 0 1 -14 -30)">+sort_keys: bool = false</text></g></g><g><g><path fill="none" stroke="none"/><text fill="#000000" stroke="none" font-family="Arial" font-size="13px" font-style="normal" font-weight="normal" text-decoration="undefined" x="30" y="763.5" text-anchor="start" dominant-baseline="central" transform="matrix(1 0 0 1 -14 -30)">+space_after_colon: bool = true</text></g></g><g><g><path fill="none" stroke="none"/><text fill="#000000" stroke="none" font-family="Arial" font-size="13px" font-style="normal" font-weight="normal" text-decoration="undefined" x="30" y="778.5" text-anchor="start" dominant-baseline="central" transform="matrix(1 0 0 1 -14 -30)">+space_after_comma: bool = true</text></g></g><g><rect fill="#C0C0C0" stroke="none" x="31" y="343" width="110.41357421875" height="91" transform="matrix(1 0 0 1 -14 -30)" fill-opacity="0.2"/></g><g><rect fill="#ffffff" stroke="none" x="24" y="336" width="110.41357421875" height="91" transform="matrix(1 0 0 1 -14 -30)"/></g><g><path fill="none" stroke="#000000" paint-order="fill stroke markers" d=" M 10 306 L 120.41357421875 306 L 120.41357421875 397 L 10 397 L 10 306 Z Z" stroke-miterlimit="10" stroke-dasharray=""/></g><g><path fill="none" stroke="#000000" paint-order="fill stroke markers" d=" M 10 359 L 120.41357421875 359" stroke-miterlimit="10" stroke-dasharray=""/></g><g><g><path fill="none" stroke="none"/><text fill="#000000" stroke="none" font-family="Arial" font-size="13px" font-style="normal" font-weight="normal" text-decoration="undefined" x="79.706787109375" y="347.5" text-anchor="middle" dominant-baseline="central" transform="matrix(1 0 0 1 -14 -30)">«dataType»</text></g></g><g><g><path fill="none" stroke="none"/><text fill="#000000" stroke="none" font-family="Arial" font-size="13px" font-style="normal" font-weight="bold" text-decoration="undefined" x="79.706787109375" y="362.5" text-anchor="middle" dominant-baseline="central" transform="matrix(1 0 0 1 -14 -30)">CompletionItem</text></g></g><g><g><path fill="none" stroke="none"/><text fill="#000000" stroke="none" font-family="Arial" font-size="13px" font-style="normal" font-weight="normal" text-decoration="undefined" x="79.706787109375" y="377.5" text-anchor="middle" dominant-baseline="central" transform="matrix(1 0 0 1 -14 -30)">(from types)</text></g></g><g><g><path fill="none" stroke="none"/><text fill="#000000" stroke="none" font-family="Arial" font-size="13px" font-style="normal" font-weight="normal" text-decoration="undefined" x="29" y="400.5" text-anchor="start" dominant-baseline="central" transform="matrix(1 0 0 1 -14 -30)">+key: String</text></g></g><g><g><path fill="none" stroke="none"/><text fill="#000000" stroke="none" font-family="Arial" font-size="13px" font-style="normal" font-weight="normal" text-decoration="undefined" x="29" y="415.5" text-anchor="start" dominant-baseline="central" transform="matrix(1 0 0 1 -14 -30)">+path: String</text></g></g><g><path fill="none" stroke="#000000" paint-order="fill stroke markers" d=" M 65 185 L 65 102" stroke-miterlimit="10" stroke-dasharray=""/></g><g><path fill="#000000" stroke="none" paint-order="stroke fill markers" d=" M 60.790482243984016 174.83732514237585 L 65 185 L 69.20951775601598 174.83732514237585 L 65 163"/></g><g><path fill="none" stroke="#000000" paint-order="fill stroke markers" d=" M 60.790482243984016 174.83732514237585 L 65 185 L 69.20951775601598 174.83732514237585 L 65 163 L 60.790482243984016 174.83732514237585" stroke-miterlimit="10" stroke-dasharray=""/></g><g><rect fill="#C0C0C0" stroke="none" x="519" y="47" width="344" height="116" transform="matrix(1 0 0 1 -14 -30)" fill-opacity="0.2"/></g><g><rect fill="#ffffff" stroke="none" x="512" y="40" width="344" height="116" transform="matrix(1 0 0 1 -14 -30)"/></g><g><path fill="none" stroke="#000000" paint-order="fill stroke markers" d=" M 498 10 L 842 10 L 842 126 L 498 126 L 498 10 Z Z" stroke-miterlimit="10" stroke-dasharray=""/></g><g><path fill="none" stroke="#000000" paint-order="fill stroke markers" d=" M 498 35 L 842 35" stroke-miterlimit="10" stroke-dasharray=""/></g><g><path fill="none" stroke="#000000" paint-order="fill stroke markers" d=" M 498 73 L 842 73" stroke-miterlimit="10" stroke-dasharray=""/></g><g><g><path fill="none" stroke="none"/><text fill="#000000" stroke="none" font-family="Arial" font-size="13px" font-style="italic" font-weight="bold" text-decoration="undefined" x="684.5" y="53.5" text-anchor="middle" dominant-baseline="central" transform="matrix(1 0 0 1 -14 -30)">JsonNode</text></g></g><g><g><path fill="none" stroke="none"/><text fill="#000000" stroke="none" font-family="Arial" font-size="13px" font-style="normal" font-weight="normal" text-decoration="undefined" x="517" y="76.5" text-anchor="start" dominant-baseline="central" transform="matrix(1 0 0 1 -14 -30)">-type: String</text></g></g><g><g><path fill="none" stroke="none"/><text fill="#000000" stroke="none" font-family="Arial" font-size="13px" font-style="normal" font-weight="normal" text-decoration="undefined" x="517" y="91.5" text-anchor="start" dominant-baseline="central" transform="matrix(1 0 0 1 -14 -30)">+span: Span</text></g></g><g><g><path fill="none" stroke="none"/><text fill="#000000" stroke="none" font-family="Arial" font-size="13px" font-style="normal" font-weight="normal" text-decoration="undefined" x="517" y="114.5" text-anchor="start" dominant-baseline="central" transform="matrix(1 0 0 1 -14 -30)">#JsonNode(type: String): JsonNode</text></g></g><g><g><path fill="none" stroke="none"/><text fill="#000000" stroke="none" font-family="Arial" font-size="13px" font-style="normal" font-weight="normal" text-decoration="undefined" x="517" y="129.5" text-anchor="start" dominant-baseline="central" transform="matrix(1 0 0 1 -14 -30)">+nodeType(): String</text></g></g><g><g><path fill="none" stroke="none"/><text fill="#000000" stroke="none" font-family="Arial" font-size="13px" font-style="italic" font-weight="normal" text-decoration="undefined" x="517" y="144.5" text-anchor="start" dominant-baseline="central" transform="matrix(1 0 0 1 -14 -30)">+getValue()</text></g></g><g><rect fill="#C0C0C0" stroke="none" x="454.453125" y="212" width="90.57080078125" height="58" transform="matrix(1 0 0 1 -14 -30)" fill-opacity="0.2"/></g><g><rect fill="#ffffff" stroke="none" x="447.453125" y="205" width="90.57080078125" height="58" transform="matrix(1 0 0 1 -14 -30)"/></g><g><path fill="none" stroke="#000000" paint-order="fill stroke markers" d=" M 433.453125 175 L 524.02392578125 175 L 524.02392578125 233 L 433.453125 233 L 433.453125 175 Z Z" stroke-miterlimit="10" stroke-dasharray=""/></g><g><path fill="none" stroke="#000000" paint-order="fill stroke markers" d=" M 433.453125 200 L 524.02392578125 200" stroke-miterlimit="10" stroke-dasharray=""/></g><g><path fill="none" stroke="#000000" paint-order="fill stroke markers" d=" M 433.453125 210 L 524.02392578125 210" stroke-miterlimit="10" stroke-dasharray=""/></g><g><g><path fill="none" stroke="none"/><text fill="#000000" stroke="none" font-family="Arial" font-size="13px" font-style="normal" font-weight="bold" text-decoration="undefined" x="493.238525390625" y="218.5" text-anchor="middle" dominant-baseline="central" transform="matrix(1 0 0 1 -14 -30)">JsonNull</text></g></g><g><g><path fill="none" stroke="none"/><text fill="#000000" stroke="none" font-family="Arial" font-size="13px" font-style="normal" font-weight="normal" text-decoration="undefined" x="452.453125" y="251.5" text-anchor="start" dominant-baseline="central" transform="matrix(1 0 0 1 -14 -30)">+getValue()</text></g></g><g><rect fill="#C0C0C0" stroke="none" x="799" y="307" width="108.40771484375" height="71" transform="matrix(1 0 0 1 -14 -30)" fill-opacity="0.2"/></g><g><rect fill="#ffffff" stroke="none" x="792" y="300" width="108.40771484375" height="71" transform="matrix(1 0 0 1 -14 -30)"/></g><g><path fill="none" stroke="#000000" paint-order="fill stroke markers" d=" M 778 270 L 886.40771484375 270 L 886.40771484375 341 L 778 341 L 778 270 Z Z" stroke-miterlimit="10" stroke-dasharray=""/></g><g><path fill="none" stroke="#000000" paint-order="fill stroke markers" d=" M 778 295 L 886.40771484375 295" stroke-miterlimit="10" stroke-dasharray=""/></g><g><path fill="none" stroke="#000000" paint-order="fill stroke markers" d=" M 778 318 L 886.40771484375 318" stroke-miterlimit="10" stroke-dasharray=""/></g><g><g><path fill="none" stroke="none"/><text fill="#000000" stroke="none" font-family="Arial" font-size="13px" font-style="normal" font-weight="bold" text-decoration="undefined" x="846.703857421875" y="313.5" text-anchor="middle" dominant-baseline="central" transform="matrix(1 0 0 1 -14 -30)">JsonBool</text></g></g><g><g><path fill="none" stroke="none"/><text fill="#000000" stroke="none" font-family="Arial" font-size="13px" font-style="normal" font-weight="normal" text-decoration="undefined" x="797" y="336.5" text-anchor="start" dominant-baseline="central" transform="matrix(1 0 0 1 -14 -30)">+value: bool</text></g></g><g><g><path fill="none" stroke="none"/><text fill="#000000" stroke="none" font-family="Arial" font-size="13px" font-style="normal" font-weight="normal" text-decoration="undefined" x="797" y="359.5" text-anchor="start" dominant-baseline="central" transform="matrix(1 0 0 1 -14 -30)">+getValue(): bool</text></g></g><g><rect fill="#C0C0C0" stroke="none" x="799" y="212" width="117.78955078125" height="71" transform="matrix(1 0 0 1 -14 -30)" fill-opacity="0.2"/></g><g><rect fill="#ffffff" stroke="none" x="792" y="205" width="117.78955078125" height="71" transform="matrix(1 0 0 1 -14 -30)"/></g><g><path fill="none" stroke="#000000" paint-order="fill stroke markers" d=" M 778 175 L 895.78955078125 175 L 895.78955078125 246 L 778 246 L 778 175 Z Z" stroke-miterlimit="10" stroke-dasharray=""/></g><g><path fill="none" stroke="#000000" paint-order="fill stroke markers" d=" M 778 200 L 895.78955078125 200" stroke-miterlimit="10" stroke-dasharray=""/></g><g><path fill="none" stroke="#000000" paint-order="fill stroke markers" d=" M 778 223 L 895.78955078125 223" stroke-miterlimit="10" stroke-dasharray=""/></g><g><g><path fill="none" stroke="none"/><text fill="#000000" stroke="none" font-family="Arial" font-size="13px" font-style="normal" font-weight="bold" text-decoration="undefined" x="851.394775390625" y="218.5" text-anchor="middle" dominant-baseline="central" transform="matrix(1 0 0 1 -14 -30)">JsonString</text></g></g><g><g><path fill="none" stroke="none"/><text fill="#000000" stroke="none" font-family="Arial" font-size="13px" font-style="normal" font-weight="normal" text-decoration="undefined" x="797" y="241.5" text-anchor="start" dominant-baseline="central" transform="matrix(1 0 0 1 -14 -30)">+value: String</text></g></g><g><g><path fill="none" stroke="none"/><text fill="#000000" stroke="none" font-family="Arial" font-size="13px" font-style="normal" font-weight="normal" text-decoration="undefined" x="797" y="264.5" text-anchor="start" dominant-baseline="central" transform="matrix(1 0 0 1 -14 -30)">+getValue(): String</text></g></g><g><rect fill="#C0C0C0" stroke="none" x="422.15625" y="307" width="122.86767578125" height="86" transform="matrix(1 0 0 1 -14 -30)" fill-opacity="0.2"/></g><g><rect fill="#ffffff" stroke="none" x="415.15625" y="300" width="122.86767578125" height="86" transform="matrix(1 0 0 1 -14 -30)"/></g><g><path fill="none" stroke="#000000" paint-order="fill stroke markers" d=" M 401.15625 270 L 524.02392578125 270 L 524.02392578125 356 L 401.15625 356 L 401.15625 270 Z Z" stroke-miterlimit="10" stroke-dasharray=""/></g><g><path fill="none" stroke="#000000" paint-order="fill stroke markers" d=" M 401.15625 295 L 524.02392578125 295" stroke-miterlimit="10" stroke-dasharray=""/></g><g><path fill="none" stroke="#000000" paint-order="fill stroke markers" d=" M 401.15625 333 L 524.02392578125 333" stroke-miterlimit="10" stroke-dasharray=""/></g><g><g><path fill="none" stroke="none"/><text fill="#000000" stroke="none" font-family="Arial" font-size="13px" font-style="normal" font-weight="bold" text-decoration="undefined" x="477.090087890625" y="313.5" text-anchor="middle" dominant-baseline="central" transform="matrix(1 0 0 1 -14 -30)">JsonNumber</text></g></g><g><g><path fill="none" stroke="none"/><text fill="#000000" stroke="none" font-family="Arial" font-size="13px" font-style="normal" font-weight="normal" text-decoration="undefined" x="420.15625" y="336.5" text-anchor="start" dominant-baseline="central" transform="matrix(1 0 0 1 -14 -30)">+value: f64</text></g></g><g><g><path fill="none" stroke="none"/><text fill="#000000" stroke="none" font-family="Arial" font-size="13px" font-style="normal" font-weight="normal" text-decoration="undefined" x="420.15625" y="351.5" text-anchor="start" dominant-baseline="central" transform="matrix(1 0 0 1 -14 -30)">+raw: String</text></g></g><g><g><path fill="none" stroke="none"/><text fill="#000000" stroke="none" font-family="Arial" font-size="13px" font-style="normal" font-weight="normal" text-decoration="undefined" x="420.15625" y="374.5" text-anchor="start" dominant-baseline="central" transform="matrix(1 0 0 1 -14 -30)">+getValue(): f64</text></g></g><g><rect fill="#C0C0C0" stroke="none" x="799" y="419" width="223.30029296875" height="101" transform="matrix(1 0 0 1 -14 -30)" fill-opacity="0.2"/></g><g><rect fill="#ffffff" stroke="none" x="792" y="412" width="223.30029296875" height="101" transform="matrix(1 0 0 1 -14 -30)"/></g><g><path fill="none" stroke="#000000" paint-order="fill stroke markers" d=" M 778 382 L 1001.30029296875 382 L 1001.30029296875 483 L 778 483 L 778 382 Z Z" stroke-miterlimit="10" stroke-dasharray=""/></g><g><path fill="none" stroke="#000000" paint-order="fill stroke markers" d=" M 778 407 L 1001.30029296875 407" stroke-miterlimit="10" stroke-dasharray=""/></g><g><path fill="none" stroke="#000000" paint-order="fill stroke markers" d=" M 778 430 L 1001.30029296875 430" stroke-miterlimit="10" stroke-dasharray=""/></g><g><g><path fill="none" stroke="none"/><text fill="#000000" stroke="none" font-family="Arial" font-size="13px" font-style="normal" font-weight="bold" text-decoration="undefined" x="904.150146484375" y="425.5" text-anchor="middle" dominant-baseline="central" transform="matrix(1 0 0 1 -14 -30)">JsonArray</text></g></g><g><g><path fill="none" stroke="none"/><text fill="#000000" stroke="none" font-family="Arial" font-size="13px" font-style="normal" font-weight="normal" text-decoration="undefined" x="797" y="448.5" text-anchor="start" dominant-baseline="central" transform="matrix(1 0 0 1 -14 -30)">+value[*]</text></g></g><g><g><path fill="none" stroke="none"/><text fill="#000000" stroke="none" font-family="Arial" font-size="13px" font-style="normal" font-weight="normal" text-decoration="undefined" x="797" y="471.5" text-anchor="start" dominant-baseline="central" transform="matrix(1 0 0 1 -14 -30)">+getValue(): null[*]</text></g></g><g><g><path fill="none" stroke="none"/><text fill="#000000" stroke="none" font-family="Arial" font-size="13px" font-style="normal" font-weight="normal" text-decoration="undefined" x="797" y="486.5" text-anchor="start" dominant-baseline="central" transform="matrix(1 0 0 1 -14 -30)">+getValueAt(index: usize): null</text></g></g><g><g><path fill="none" stroke="none"/><text fill="#000000" stroke="none" font-family="Arial" font-size="13px" font-style="normal" font-weight="normal" text-decoration="undefined" x="797" y="501.5" text-anchor="start" dominant-baseline="central" transform="matrix(1 0 0 1 -14 -30)">+size(): usize</text></g></g><g><rect fill="#C0C0C0" stroke="none" x="321" y="419" width="224.02392578125" height="101" transform="matrix(1 0 0 1 -14 -30)" fill-opacity="0.2"/></g><g><rect fill="#ffffff" stroke="none" x="314" y="412" width="224.02392578125" height="101" transform="matrix(1 0 0 1 -14 -30)"/></g><g><path fill="none" stroke="#000000" paint-order="fill stroke markers" d=" M 300 382 L 524.02392578125 382 L 524.02392578125 483 L 300 483 L 300 382 Z Z" stroke-miterlimit="10" stroke-dasharray=""/></g><g><path fill="none" stroke="#000000" paint-order="fill stroke markers" d=" M 300 407 L 524.02392578125 407" stroke-miterlimit="10" stroke-dasharray=""/></g><g><path fill="none" stroke="#000000" paint-order="fill stroke markers" d=" M 300 430 L 524.02392578125 430" stroke-miterlimit="10" stroke-dasharray=""/></g><g><g><path fill="none" stroke="none"/><text fill="#000000" stroke="none" font-family="Arial" font-size="13px" font-style="normal" font-weight="bold" text-decoration="undefined" x="426.511962890625" y="425.5" text-anchor="middle" dominant-baseline="central" transform="matrix(1 0 0 1 -14 -30)">JsonObject</text></g></g><g><g><path fill="none" stroke="none"/><text fill="#000000" stroke="none" font-family="Arial" font-size="13px" font-style="normal" font-weight="normal" text-decoration="undefined" x="319" y="448.5" text-anchor="start" dominant-baseline="central" transform="matrix(1 0 0 1 -14 -30)">+value: KeyValuePair[*]</text></g></g><g><g><path fill="none" stroke="none"/><text fill="#000000" stroke="none" font-family="Arial" font-size="13px" font-style="normal" font-weight="normal" text-decoration="undefined" x="319" y="471.5" text-anchor="start" dominant-baseline="central" transform="matrix(1 0 0 1 -14 -30)">+getValue(): KeyValuePair[*]</text></g></g><g><path fill="none" stroke="#000000" paint-order="fill stroke markers" d=" M 524 227 L 578 227 L 578 126" stroke-miterlimit="10" stroke-dasharray=""/></g><g><path fill="#FFFFFF" stroke="none" paint-order="stroke fill markers" d=" M 586.419035512032 146.3253497152483 L 578 126 L 569.580964487968 146.3253497152483"/></g><g><path fill="none" stroke="#000000" paint-order="fill stroke markers" d=" M 586.419035512032 146.3253497152483 L 578 126 L 569.580964487968 146.3253497152483 L 586.419035512032 146.3253497152483" stroke-miterlimit="10" stroke-dasharray=""/></g><g><path fill="none" stroke="#000000" paint-order="fill stroke markers" d=" M 524 321 L 602 321 L 602 126" stroke-miterlimit="10" stroke-dasharray=""/></g><g><path fill="#FFFFFF" stroke="none" paint-order="stroke fill markers" d=" M 610.419035512032 146.3253497152483 L 602 126 L 593.580964487968 146.3253497152483"/></g><g><path fill="none" stroke="#000000" paint-order="fill stroke markers" d=" M 610.419035512032 146.3253497152483 L 602 126 L 593.580964487968 146.3253497152483 L 610.419035512032 146.3253497152483" stroke-miterlimit="10" stroke-dasharray=""/></g><g><path fill="none" stroke="#000000" paint-order="fill stroke markers" d=" M 524 449 L 626 449 L 626 126" stroke-miterlimit="10" stroke-dasharray=""/></g><g><path fill="#FFFFFF" stroke="none" paint-order="stroke fill markers" d=" M 634.419035512032 146.3253497152483 L 626 126 L 617.580964487968 146.3253497152483"/></g><g><path fill="none" stroke="#000000" paint-order="fill stroke markers" d=" M 634.419035512032 146.3253497152483 L 626 126 L 617.580964487968 146.3253497152483 L 634.419035512032 146.3253497152483" stroke-miterlimit="10" stroke-dasharray=""/></g><g><path fill="none" stroke="#000000" paint-order="fill stroke markers" d=" M 778 226 L 746 226 L 746 126" stroke-miterlimit="10" stroke-dasharray=""/></g><g><path fill="#FFFFFF" stroke="none" paint-order="stroke fill markers" d=" M 754.419035512032 146.3253497152483 L 746 126 L 737.580964487968 146.3253497152483"/></g><g><path fill="none" stroke="#000000" paint-order="fill stroke markers" d=" M 754.419035512032 146.3253497152483 L 746 126 L 737.580964487968 146.3253497152483 L 754.419035512032 146.3253497152483" stroke-miterlimit="10" stroke-dasharray=""/></g><g><path fill="none" stroke="#000000" paint-order="fill stroke markers" d=" M 778 322 L 722 322 L 722 126" stroke-miterlimit="10" stroke-dasharray=""/></g><g><path fill="#FFFFFF" stroke="none" paint-order="stroke fill markers" d=" M 730.419035512032 146.3253497152483 L 722 126 L 713.580964487968 146.3253497152483"/></g><g><path fill="none" stroke="#000000" paint-order="fill stroke markers" d=" M 730.419035512032 146.3253497152483 L 722 126 L 713.580964487968 146.3253497152483 L 730.419035512032 146.3253497152483" stroke-miterlimit="10" stroke-dasharray=""/></g><g><path fill="none" stroke="#000000" paint-order="fill stroke markers" d=" M 778 450 L 698 450 L 698 126" stroke-miterlimit="10" stroke-dasharray=""/></g><g><path fill="#FFFFFF" stroke="none" paint-order="stroke fill markers" d=" M 706.419035512032 146.3253497152483 L 698 126 L 689.580964487968 146.3253497152483"/></g><g><path fill="none" stroke="#000000" paint-order="fill stroke markers" d=" M 706.419035512032 146.3253497152483 L 698 126 L 689.580964487968 146.3253497152483 L 706.419035512032 146.3253497152483" stroke-miterlimit="10" stroke-dasharray=""/></g><g><rect fill="#C0C0C0" stroke="none" x="31" y="463" width="96.72802734375" height="91" transform="matrix(1 0 0 1 -14 -30)" fill-opacity="0.2"/></g><g><rect fill="#ffffff" stroke="none" x="24" y="456" width="96.72802734375" height="91" transform="matrix(1 0 0 1 -14 -30)"/></g><g><path fill="none" stroke="#000000" paint-order="fill stroke markers" d=" M 10 426 L 106.72802734375 426 L 106.72802734375 517 L 10 517 L 10 426 Z Z" stroke-miterlimit="10" stroke-dasharray=""/></g><g><path fill="none" stroke="#000000" paint-order="fill stroke markers" d=" M 10 479 L 106.72802734375 479" stroke-miterlimit="10" stroke-dasharray=""/></g><g><g><path fill="none" stroke="none"/><text fill="#000000" stroke="none" font-family="Arial" font-size="13px" font-style="normal" font-weight="normal" text-decoration="undefined" x="72.864013671875" y="467.5" text-anchor="middle" dominant-baseline="central" transform="matrix(1 0 0 1 -14 -30)">«enumeration»</text></g></g><g><g><path fill="none" stroke="none"/><text fill="#000000" stroke="none" font-family="Arial" font-size="13px" font-style="normal" font-weight="bold" text-decoration="undefined" x="72.864013671875" y="482.5" text-anchor="middle" dominant-baseline="central" transform="matrix(1 0 0 1 -14 -30)">LineEnding</text></g></g><g><g><path fill="none" stroke="none"/><text fill="#000000" stroke="none" font-family="Arial" font-size="13px" font-style="normal" font-weight="normal" text-decoration="undefined" x="72.864013671875" y="497.5" text-anchor="middle" dominant-baseline="central" transform="matrix(1 0 0 1 -14 -30)">(from types)</text></g></g><g><g><path fill="none" stroke="none"/><text fill="#000000" stroke="none" font-family="Arial" font-size="13px" font-style="normal" font-weight="normal" text-decoration="undefined" x="29" y="520.5" text-anchor="start" dominant-baseline="central" transform="matrix(1 0 0 1 -14 -30)">LF</text></g></g><g><g><path fill="none" stroke="none"/><text fill="#000000" stroke="none" font-family="Arial" font-size="13px" font-style="normal" font-weight="normal" text-decoration="undefined" x="29" y="535.5" text-anchor="start" dominant-baseline="central" transform="matrix(1 0 0 1 -14 -30)">CRLF</text></g></g><g><rect fill="#C0C0C0" stroke="none" x="173.00048828125" y="463" width="100.9873046875" height="91" transform="matrix(1 0 0 1 -14 -30)" fill-opacity="0.2"/></g><g><rect fill="#ffffff" stroke="none" x="166.00048828125" y="456" width="100.9873046875" height="91" transform="matrix(1 0 0 1 -14 -30)"/></g><g><path fill="none" stroke="#000000" paint-order="fill stroke markers" d=" M 152.00048828125 426 L 252.98779296875 426 L 252.98779296875 517 L 152.00048828125 517 L 152.00048828125 426 Z Z" stroke-miterlimit="10" stroke-dasharray=""/></g><g><path fill="none" stroke="#000000" paint-order="fill stroke markers" d=" M 152.00048828125 479 L 252.98779296875 479" stroke-miterlimit="10" stroke-dasharray=""/></g><g><g><path fill="none" stroke="none"/><text fill="#000000" stroke="none" font-family="Arial" font-size="13px" font-style="normal" font-weight="normal" text-decoration="undefined" x="216.994140625" y="467.5" text-anchor="middle" dominant-baseline="central" transform="matrix(1 0 0 1 -14 -30)">«enumeration»</text></g></g><g><g><path fill="none" stroke="none"/><text fill="#000000" stroke="none" font-family="Arial" font-size="13px" font-style="normal" font-weight="bold" text-decoration="undefined" x="216.994140625" y="482.5" text-anchor="middle" dominant-baseline="central" transform="matrix(1 0 0 1 -14 -30)">FoldingStyle</text></g></g><g><g><path fill="none" stroke="none"/><text fill="#000000" stroke="none" font-family="Arial" font-size="13px" font-style="normal" font-weight="normal" text-decoration="undefined" x="216.994140625" y="497.5" text-anchor="middle" dominant-baseline="central" transform="matrix(1 0 0 1 -14 -30)">(from types)</text></g></g><g><g><path fill="none" stroke="none"/><text fill="#000000" stroke="none" font-family="Arial" font-size="13px" font-style="normal" font-weight="normal" text-decoration="undefined" x="171.00048828125" y="520.5" text-anchor="start" dominant-baseline="central" transform="matrix(1 0 0 1 -14 -30)">Expanded</text></g></g><g><g><path fill="none" stroke="none"/><text fill="#000000" stroke="none" font-family="Arial" font-size="13px" font-style="normal" font-weight="normal" text-decoration="undefined" x="171.00048828125" y="535.5" text-anchor="start" dominant-baseline="central" transform="matrix(1 0 0 1 -14 -30)">Compact</text></g></g><g><path fill="none" stroke="#000000" paint-order="fill stroke markers" d=" M 220 517 L 220 594" stroke-miterlimit="10" stroke-dasharray=""/></g><g><path fill="#000000" stroke="none" paint-order="stroke fill markers" d=" M 215.790482243984 583.8373251423759 L 220 594 L 224.209517756016 583.8373251423759 L 220 572"/></g><g><path fill="none" stroke="#000000" paint-order="fill stroke markers" d=" M 215.790482243984 583.8373251423759 L 220 594 L 224.209517756016 583.8373251423759 L 220 572 L 215.790482243984 583.8373251423759" stroke-miterlimit="10" stroke-dasharray=""/></g><g><path fill="none" stroke="#000000" paint-order="fill stroke markers" d=" M 66 517 L 66 594" stroke-miterlimit="10" stroke-dasharray=""/></g><g><path fill="#000000" stroke="none" paint-order="stroke fill markers" d=" M 61.790482243984016 583.8373251423759 L 66 594 L 70.20951775601598 583.8373251423759 L 66 572"/></g><g><path fill="none" stroke="#000000" paint-order="fill stroke markers" d=" M 61.790482243984016 583.8373251423759 L 66 594 L 70.20951775601598 583.8373251423759 L 66 572 L 61.790482243984016 583.8373251423759" stroke-miterlimit="10" stroke-dasharray=""/></g><g><rect fill="#C0C0C0" stroke="none" x="376" y="599" width="114.431640625" height="91" transform="matrix(1 0 0 1 -14 -30)" fill-opacity="0.2"/></g><g><rect fill="#ffffff" stroke="none" x="369" y="592" width="114.431640625" height="91" transform="matrix(1 0 0 1 -14 -30)"/></g><g><path fill="none" stroke="#000000" paint-order="fill stroke markers" d=" M 355 562 L 469.431640625 562 L 469.431640625 653 L 355 653 L 355 562 Z Z" stroke-miterlimit="10" stroke-dasharray=""/></g><g><path fill="none" stroke="#000000" paint-order="fill stroke markers" d=" M 355 615 L 469.431640625 615" stroke-miterlimit="10" stroke-dasharray=""/></g><g><g><path fill="none" stroke="none"/><text fill="#000000" stroke="none" font-family="Arial" font-size="13px" font-style="normal" font-weight="normal" text-decoration="undefined" x="426.7158203125" y="603.5" text-anchor="middle" dominant-baseline="central" transform="matrix(1 0 0 1 -14 -30)">«dataType»</text></g></g><g><g><path fill="none" stroke="none"/><text fill="#000000" stroke="none" font-family="Arial" font-size="13px" font-style="normal" font-weight="bold" text-decoration="undefined" x="426.7158203125" y="618.5" text-anchor="middle" dominant-baseline="central" transform="matrix(1 0 0 1 -14 -30)">KeyValuePair</text></g></g><g><g><path fill="none" stroke="none"/><text fill="#000000" stroke="none" font-family="Arial" font-size="13px" font-style="normal" font-weight="normal" text-decoration="undefined" x="426.7158203125" y="633.5" text-anchor="middle" dominant-baseline="central" transform="matrix(1 0 0 1 -14 -30)">(from types)</text></g></g><g><g><path fill="none" stroke="none"/><text fill="#000000" stroke="none" font-family="Arial" font-size="13px" font-style="normal" font-weight="normal" text-decoration="undefined" x="374" y="656.5" text-anchor="start" dominant-baseline="central" transform="matrix(1 0 0 1 -14 -30)">+key: String</text></g></g><g><g><path fill="none" stroke="none"/><text fill="#000000" stroke="none" font-family="Arial" font-size="13px" font-style="normal" font-weight="normal" text-decoration="undefined" x="374" y="671.5" text-anchor="start" dominant-baseline="central" transform="matrix(1 0 0 1 -14 -30)">+value</text></g></g><g><path fill="none" stroke="#000000" paint-order="fill stroke markers" d=" M 410 562 L 410 483" stroke-miterlimit="10" stroke-dasharray=""/></g><g><path fill="#000000" stroke="none" paint-order="stroke fill markers" d=" M 414.209517756016 493.1626748576241 L 410 483 L 405.790482243984 493.1626748576241 L 410 505"/></g><g><path fill="none" stroke="#000000" paint-order="fill stroke markers" d=" M 414.209517756016 493.1626748576241 L 410 483 L 405.790482243984 493.1626748576241 L 410 505 L 414.209517756016 493.1626748576241" stroke-miterlimit="10" stroke-dasharray=""/></g><g><path fill="none" stroke="#000000" paint-order="fill stroke markers" d=" M 120 58 L 498 58" stroke-miterlimit="10" stroke-dasharray=""/></g><g><path fill="#000000" stroke="none" paint-order="stroke fill markers" d=" M 487.83732514237585 62.209517756015984 L 498 58 L 487.83732514237585 53.790482243984016 L 476 58"/></g><g><path fill="none" stroke="#000000" paint-order="fill stroke markers" d=" M 487.83732514237585 62.209517756015984 L 498 58 L 487.83732514237585 53.790482243984016 L 476 58 L 487.83732514237585 62.209517756015984" stroke-miterlimit="10" stroke-dasharray=""/></g></g></svg>